<svg width="44" height="48" viewBox="0 0 44 48" fill="none" xmlns="http://www.w3.org/2000/svg">
<g>
	<!-- filter="url(#filter0_b_503_2242)" -->
<path d="M1.94922 13.4764V33.5084C1.94922 33.6364 1.94922 33.8284 2.01322 33.9564H1.94922C1.94922 40.7404 7.45322 46.2444 14.1732 46.2444H20.0612C26.7812 46.2444 32.2852 40.7404 32.2852 34.0204V14.0524C32.2852 13.8604 32.2852 13.7324 32.2212 13.5404H32.2852C32.2852 6.7564 26.7812 1.31641 20.0612 1.31641H14.1732C7.45322 1.31641 1.94922 6.7564 1.94922 13.4764ZM6.04522 33.9564C6.04522 33.8284 6.10922 33.6364 6.10922 33.5084V13.5404C6.10922 9.06041 9.69322 5.41241 14.1732 5.41241H20.0612C24.5412 5.41241 28.1892 9.06041 28.1892 13.5404V33.9564C28.1892 38.4364 24.5412 42.0844 20.0612 42.0844H14.1732C9.69322 42.0844 6.10922 38.4364 6.10922 33.9564H6.04522Z" fill="url(#paint0_linear_503_2242)"/>
<path d="M40.7472 1.31641C39.5952 1.31641 38.6992 2.27641 38.6992 3.42841V44.1324C38.6992 45.2844 39.5952 46.2444 40.7472 46.2444C41.8992 46.2444 42.7952 45.2844 42.7952 44.1324V3.42841C42.7952 2.27641 41.8992 1.31641 40.7472 1.31641Z" fill="url(#paint1_linear_503_2242)"/>
<path d="M1.44922 33.4564V33.5084L1.44922 33.5142C1.44922 33.5183 1.44922 33.5225 1.44922 33.527V33.9564C1.44922 41.0148 7.17538 46.7444 14.1732 46.7444H20.0612C27.0574 46.7444 32.7852 41.0166 32.7852 34.0204V14.0524V14.0404C32.7852 14.0404 32.7852 14.0404 32.7852 14.0404C32.7852 14.0334 32.7852 14.0263 32.7852 14.0193V13.5404C32.7852 6.47856 27.0557 0.816406 20.0612 0.816406H14.1732C7.1805 0.816406 1.44922 6.47685 1.44922 13.4764V33.4564ZM6.60922 33.5084V33.4564V13.5404C6.60922 9.33138 9.9745 5.91241 14.1732 5.91241H20.0612C24.2651 5.91241 27.6892 9.33655 27.6892 13.5404V33.9564C27.6892 38.1603 24.2651 41.5844 20.0612 41.5844H14.1732C9.9745 41.5844 6.60922 38.1654 6.60922 33.9564V33.5084ZM40.7472 0.816406C39.2992 0.816406 38.1992 2.02053 38.1992 3.42841V44.1324C38.1992 45.5403 39.2992 46.7444 40.7472 46.7444C42.1952 46.7444 43.2952 45.5403 43.2952 44.1324V3.42841C43.2952 2.02053 42.1952 0.816406 40.7472 0.816406Z" stroke="#7F7F7F"/>
</g>
<defs>
<filter id="filter0_b_503_2242" x="-3.05078" y="-3.68359" width="50.8457" height="54.9277" filterUnits="userSpaceOnUse" color-interpolation-filters="sRGB">
<feFlood flood-opacity="0" result="BackgroundImageFix"/>
<feGaussianBlur in="BackgroundImage" stdDeviation="2"/>
<feComposite in2="SourceAlpha" operator="in" result="effect1_backgroundBlur_503_2242"/>
<feBlend mode="normal" in="SourceGraphic" in2="effect1_backgroundBlur_503_2242" result="shape"/>
</filter>
<linearGradient id="paint0_linear_503_2242" x1="-21.5" y1="86.7461" x2="84" y2="-85.7539" gradientUnits="userSpaceOnUse">
<stop stop-color="#7F7F7F"/>
<stop offset="1" stop-opacity="0"/>
</linearGradient>
<linearGradient id="paint1_linear_503_2242" x1="-21.5" y1="86.7461" x2="84" y2="-85.7539" gradientUnits="userSpaceOnUse">
<stop stop-color="#7F7F7F"/>
<stop offset="1" stop-opacity="0"/>
</linearGradient>
</defs>
</svg>
