<svg width="70" height="48" viewBox="0 0 70 48" fill="none" xmlns="http://www.w3.org/2000/svg">
<g>
	<!-- filter="url(#filter0_b_504_2243)" -->
<path d="M1.63672 13.4764V33.5084C1.63672 33.6364 1.63672 33.8284 1.70072 33.9564H1.63672C1.63672 40.7404 7.14072 46.2444 13.8607 46.2444H19.7487C26.4687 46.2444 31.9727 40.7404 31.9727 34.0204V14.0524C31.9727 13.8604 31.9727 13.7324 31.9087 13.5404H31.9727C31.9727 6.7564 26.4687 1.31641 19.7487 1.31641H13.8607C7.14072 1.31641 1.63672 6.7564 1.63672 13.4764ZM5.73272 33.9564C5.73272 33.8284 5.79672 33.6364 5.79672 33.5084V13.5404C5.79672 9.06041 9.38072 5.41241 13.8607 5.41241H19.7487C24.2287 5.41241 27.8767 9.06041 27.8767 13.5404V33.9564C27.8767 38.4364 24.2287 42.0844 19.7487 42.0844H13.8607C9.38072 42.0844 5.79672 38.4364 5.79672 33.9564H5.73272Z" fill="url(#paint0_linear_504_2243)"/>
<path d="M50.6747 21.6684C43.8907 21.6684 38.3867 27.1724 38.3867 33.9564C38.3867 40.7404 43.8907 46.2444 50.6747 46.2444H66.6747C67.8267 46.2444 68.7867 45.2844 68.7867 44.1324C68.7867 42.9804 67.8267 42.0844 66.6747 42.0844H50.6747C46.1947 42.0844 42.5467 38.4364 42.5467 33.9564C42.5467 29.4764 46.1947 25.8284 50.6747 25.8284H56.4987C63.2827 25.8284 68.7867 20.3244 68.7867 13.5404C68.7867 6.7564 63.2827 1.31641 56.4987 1.31641H40.6267C39.4747 1.31641 38.5787 2.21241 38.5787 3.36441C38.5787 4.51641 39.4747 5.41241 40.6267 5.41241H56.4987C60.9787 5.41241 64.6267 9.06041 64.6267 13.5404C64.6267 18.0204 60.9787 21.6684 56.4987 21.6684H50.6747Z" fill="url(#paint1_linear_504_2243)"/>
<path d="M1.13672 33.4564V33.5084L1.13672 33.5142C1.13672 33.5183 1.13672 33.5225 1.13672 33.527V33.9564C1.13672 41.0148 6.86288 46.7444 13.8607 46.7444H19.7487C26.7449 46.7444 32.4727 41.0166 32.4727 34.0204V14.0524V14.0404C32.4727 14.0404 32.4727 14.0404 32.4727 14.0404C32.4727 14.0334 32.4727 14.0263 32.4727 14.0193V13.5404C32.4727 6.47856 26.7432 0.816406 19.7487 0.816406H13.8607C6.868 0.816406 1.13672 6.47685 1.13672 13.4764V33.4564ZM6.29672 33.5084V33.4564V13.5404C6.29672 9.33138 9.662 5.91241 13.8607 5.91241H19.7487C23.9526 5.91241 27.3767 9.33655 27.3767 13.5404V33.9564C27.3767 38.1603 23.9526 41.5844 19.7487 41.5844H13.8607C9.662 41.5844 6.29672 38.1654 6.29672 33.9564V33.5084ZM50.6747 21.1684C43.6146 21.1684 37.8867 26.8963 37.8867 33.9564C37.8867 41.0165 43.6146 46.7444 50.6747 46.7444H66.6747C68.1029 46.7444 69.2867 45.5606 69.2867 44.1324C69.2867 42.6844 68.0826 41.5844 66.6747 41.5844H50.6747C46.4709 41.5844 43.0467 38.1603 43.0467 33.9564C43.0467 29.7525 46.4709 26.3284 50.6747 26.3284H56.4987C63.5589 26.3284 69.2867 20.6005 69.2867 13.5404C69.2867 6.47686 63.5555 0.816406 56.4987 0.816406H40.6267C39.1986 0.816406 38.0787 1.93626 38.0787 3.36441C38.0787 4.79255 39.1986 5.91241 40.6267 5.91241H56.4987C60.7026 5.91241 64.1267 9.33655 64.1267 13.5404C64.1267 17.7443 60.7026 21.1684 56.4987 21.1684H50.6747Z" stroke="#7F7F7F"/>
</g>
<defs>
<filter id="filter0_b_504_2243" x="-3.36328" y="-3.68359" width="77.1504" height="54.9277" filterUnits="userSpaceOnUse" color-interpolation-filters="sRGB">
<feFlood flood-opacity="0" result="BackgroundImageFix"/>
<feGaussianBlur in="BackgroundImage" stdDeviation="2"/>
<feComposite in2="SourceAlpha" operator="in" result="effect1_backgroundBlur_504_2243"/>
<feBlend mode="normal" in="SourceGraphic" in2="effect1_backgroundBlur_504_2243" result="shape"/>
</filter>
<linearGradient id="paint0_linear_504_2243" x1="-32.0625" y1="86.7461" x2="49.1809" y2="-118.047" gradientUnits="userSpaceOnUse">
<stop stop-color="#7F7F7F"/>
<stop offset="1" stop-opacity="0"/>
</linearGradient>
<linearGradient id="paint1_linear_504_2243" x1="-32.0625" y1="86.7461" x2="49.1809" y2="-118.047" gradientUnits="userSpaceOnUse">
<stop stop-color="#7F7F7F"/>
<stop offset="1" stop-opacity="0"/>
</linearGradient>
</defs>
</svg>
