<svg width="71" height="48" viewBox="0 0 71 48" fill="none" xmlns="http://www.w3.org/2000/svg">
<g filter="url(#filter0_b_506_2498)">
<path d="M1.94922 13.4764V33.5084C1.94922 33.6364 1.94922 33.8284 2.01322 33.9564H1.94922C1.94922 40.7404 7.45322 46.2444 14.1732 46.2444H20.0612C26.7812 46.2444 32.2852 40.7404 32.2852 34.0204V14.0524C32.2852 13.8604 32.2852 13.7324 32.2212 13.5404H32.2852C32.2852 6.7564 26.7812 1.31641 20.0612 1.31641H14.1732C7.45322 1.31641 1.94922 6.7564 1.94922 13.4764ZM6.04522 33.9564C6.04522 33.8284 6.10922 33.6364 6.10922 33.5084V13.5404C6.10922 9.06041 9.69322 5.41241 14.1732 5.41241H20.0612C24.5412 5.41241 28.1892 9.06041 28.1892 13.5404V33.9564C28.1892 38.4364 24.5412 42.0844 20.0612 42.0844H14.1732C9.69322 42.0844 6.10922 38.4364 6.10922 33.9564H6.04522Z" fill="url(#paint0_linear_506_2498)"/>
<path d="M40.7472 46.2444H59.5632C65.1952 46.2444 69.8032 41.7004 69.8032 36.0044C69.8032 30.5644 65.5152 26.5324 60.0752 26.2764H53.3552C52.0752 26.2764 51.1152 25.2524 51.1152 24.0364C51.1152 22.7564 52.0752 21.7964 53.3552 21.7964H59.5632C65.1952 21.7964 69.8032 17.1884 69.8032 11.5564C69.8032 5.8604 65.1952 1.31641 59.5632 1.31641H40.7472C39.6592 1.31641 38.6992 2.21241 38.6992 3.36441C38.6992 4.51641 39.6592 5.41241 40.7472 5.41241H59.5632C62.8912 5.41241 65.6432 8.16441 65.6432 11.5564C65.6432 14.8844 62.8912 17.6364 59.5632 17.6364H53.3552C49.8352 17.6364 46.9552 20.4524 46.9552 24.0364C46.9552 27.5564 49.8352 30.3724 53.3552 30.3724H59.5632C62.8912 30.3724 65.6432 32.6764 65.6432 36.0044C65.6432 39.3964 62.8912 42.0844 59.5632 42.0844H40.7472C39.6592 42.0844 38.6992 42.9804 38.6992 44.1324C38.6992 45.2844 39.6592 46.2444 40.7472 46.2444Z" fill="url(#paint1_linear_506_2498)"/>
<path d="M1.44922 33.4564V33.5084L1.44922 33.5142C1.44922 33.5183 1.44922 33.5225 1.44922 33.527V33.9564C1.44922 41.0148 7.17538 46.7444 14.1732 46.7444H20.0612C27.0574 46.7444 32.7852 41.0166 32.7852 34.0204V14.0524V14.0404C32.7852 14.0404 32.7852 14.0404 32.7852 14.0404C32.7852 14.0334 32.7852 14.0263 32.7852 14.0193V13.5404C32.7852 6.47856 27.0557 0.816406 20.0612 0.816406H14.1732C7.1805 0.816406 1.44922 6.47685 1.44922 13.4764V33.4564ZM6.60922 33.5084V33.4564V13.5404C6.60922 9.33138 9.9745 5.91241 14.1732 5.91241H20.0612C24.2651 5.91241 27.6892 9.33655 27.6892 13.5404V33.9564C27.6892 38.1603 24.2651 41.5844 20.0612 41.5844H14.1732C9.9745 41.5844 6.60922 38.1654 6.60922 33.9564V33.5084ZM60.0987 25.777L60.087 25.7764H60.0752H53.3552C52.3606 25.7764 51.6152 24.9856 51.6152 24.0364C51.6152 23.0325 52.3514 22.2964 53.3552 22.2964H59.5632C65.4714 22.2964 70.3032 17.4645 70.3032 11.5564C70.3032 5.58223 65.4693 0.816406 59.5632 0.816406H40.7472C39.3933 0.816406 38.1992 1.92618 38.1992 3.36441C38.1992 4.80263 39.3933 5.91241 40.7472 5.91241H59.5632C62.6117 5.91241 65.1432 8.43714 65.1432 11.5564C65.1432 14.6083 62.6151 17.1364 59.5632 17.1364H53.3552C49.5623 17.1364 46.4552 20.173 46.4552 24.0364C46.4552 27.8391 49.5656 30.8724 53.3552 30.8724H59.5632C62.6667 30.8724 65.1432 33.0015 65.1432 36.0044C65.1432 39.1168 62.6185 41.5844 59.5632 41.5844H40.7472C39.3933 41.5844 38.1992 42.6942 38.1992 44.1324C38.1992 45.5506 39.3732 46.7444 40.7472 46.7444H59.5632C65.4693 46.7444 70.3032 41.9786 70.3032 36.0044C70.3032 30.2678 65.7748 26.0441 60.0987 25.777Z" stroke="#7F7F7F"/>
</g>
<defs>
<filter id="filter0_b_506_2498" x="-3.05078" y="-3.68359" width="77.8535" height="54.9277" filterUnits="userSpaceOnUse" color-interpolation-filters="sRGB">
<feFlood flood-opacity="0" result="BackgroundImageFix"/>
<feGaussianBlur in="BackgroundImage" stdDeviation="2"/>
<feComposite in2="SourceAlpha" operator="in" result="effect1_backgroundBlur_506_2498"/>
<feBlend mode="normal" in="SourceGraphic" in2="effect1_backgroundBlur_506_2498" result="shape"/>
</filter>
<linearGradient id="paint0_linear_506_2498" x1="-32.4688" y1="86.7461" x2="47.9812" y2="-118.787" gradientUnits="userSpaceOnUse">
<stop stop-color="#7F7F7F"/>
<stop offset="1" stop-opacity="0"/>
</linearGradient>
<linearGradient id="paint1_linear_506_2498" x1="-32.4688" y1="86.7461" x2="47.9812" y2="-118.787" gradientUnits="userSpaceOnUse">
<stop stop-color="#7F7F7F"/>
<stop offset="1" stop-opacity="0"/>
</linearGradient>
</defs>
</svg>
