<svg width="51" height="39" viewBox="0 0 51 39" fill="none" xmlns="http://www.w3.org/2000/svg">
<g>
	<!-- filter="url(#filter0_b_49_1541)" -->
<path fill-rule="evenodd" clip-rule="evenodd" d="M47.5987 3.61009C50.06 6.15888 49.9827 10.2002 47.4262 12.6367L23.6533 35.2933C20.2892 38.4994 14.783 37.7318 12.4121 33.7263L2.69197 17.3046C0.890185 14.2606 1.90798 10.3503 4.96528 8.57082C8.02258 6.79132 11.9616 7.81642 13.7634 10.8605L19.869 21.1755L38.5133 3.40675C41.0698 0.970267 45.1375 1.06131 47.5987 3.61009Z" fill="url(#paint0_linear_49_1541)"/>
<path fill-rule="evenodd" clip-rule="evenodd" d="M47.5987 3.61009C50.06 6.15888 49.9827 10.2002 47.4262 12.6367L23.6533 35.2933C20.2892 38.4994 14.783 37.7318 12.4121 33.7263L2.69197 17.3046C0.890185 14.2606 1.90798 10.3503 4.96528 8.57082C8.02258 6.79132 11.9616 7.81642 13.7634 10.8605L19.869 21.1755L38.5133 3.40675C41.0698 0.970267 45.1375 1.06131 47.5987 3.61009Z" stroke="#7F7F7F" stroke-width="2" stroke-linecap="round"/>
</g>
<defs>
<filter id="filter0_b_49_1541" x="-3.19922" y="-3.36279" width="57.5947" height="45.6475" filterUnits="userSpaceOnUse" color-interpolation-filters="sRGB">
<feFlood flood-opacity="0" result="BackgroundImageFix"/>
<feGaussianBlur in="BackgroundImage" stdDeviation="2"/>
<feComposite in2="SourceAlpha" operator="in" result="effect1_backgroundBlur_49_1541"/>
<feBlend mode="normal" in="SourceGraphic" in2="effect1_backgroundBlur_49_1541" result="shape"/>
</filter>
<linearGradient id="paint0_linear_49_1541" x1="-52" y1="119.745" x2="53.244" y2="-9.96815" gradientUnits="userSpaceOnUse">
<stop stop-color="#7F7F7F"/>
<stop offset="1" stop-color="white" stop-opacity="0"/>
</linearGradient>
</defs>
</svg>
