<svg width="13" height="23" viewBox="0 0 13 23" fill="none" xmlns="http://www.w3.org/2000/svg">
<path d="M8.71288 12.5355C8.71288 12.6809 8.71288 12.7887 8.71288 12.8964C8.71288 15.6914 8.71288 18.4864 8.71288 21.2814C8.71288 22.073 8.63029 22.1484 7.74543 22.1484C6.62462 22.1484 5.5097 22.1484 4.38888 22.1484C3.76948 22.1484 3.62201 22.0192 3.62201 21.4537C3.62201 18.6156 3.62201 15.7722 3.62201 12.9341C3.62201 12.8264 3.62201 12.724 3.62201 12.584C3.50403 12.5786 3.39784 12.5679 3.29756 12.5679C2.4422 12.5679 1.59274 12.5679 0.737379 12.5679C0.147476 12.5679 0 12.4386 0 11.9055C0 10.8553 0 9.80516 0 8.76039C0 8.20032 0.141577 8.07645 0.743279 8.07645C1.58684 8.07645 2.4304 8.07645 3.27396 8.07645C3.38015 8.07645 3.48633 8.07645 3.62201 8.07645C3.62201 7.94182 3.62201 7.8395 3.62201 7.73179C3.63971 6.70857 3.60431 5.68535 3.6987 4.67289C3.93466 2.12023 6.0878 0.267658 8.90164 0.170721C10.0756 0.133023 11.2554 0.154565 12.4352 0.154565C12.8245 0.154565 12.9897 0.310741 12.9956 0.666176C13.0015 1.73248 13.0015 2.79878 12.9956 3.86509C12.9956 4.22591 12.8304 4.37131 12.4057 4.38208C11.6093 4.39824 10.8188 4.39824 10.0225 4.40901C9.10221 4.41978 8.73647 4.73752 8.71877 5.58302C8.70108 6.38006 8.71288 7.17709 8.71288 8.00106C8.83676 8.00644 8.94294 8.01183 9.04322 8.01183C10.0638 8.01183 11.0843 8.01183 12.1048 8.01183C12.7242 8.01183 12.8776 8.15185 12.8776 8.70654C12.8776 9.77284 12.8776 10.8391 12.8776 11.9055C12.8776 12.4009 12.7419 12.5248 12.1992 12.5248C11.161 12.5302 10.1168 12.5248 9.07862 12.5248C8.97243 12.5355 8.86625 12.5355 8.71288 12.5355Z" fill="white"/>
</svg>
