<svg width="346" height="95" viewBox="0 0 346 95" fill="none" xmlns="http://www.w3.org/2000/svg">
<g filter="url(#filter0_b_474_2606)">
<rect y="0.140625" width="346" height="94" rx="28" fill="url(#paint0_radial_474_2606)"/>
<rect x="1" y="1.14062" width="344" height="92" rx="27" stroke="url(#paint1_linear_474_2606)" stroke-width="2"/>
</g>
<path d="M106.428 38.9326L106.356 39.1126L103.872 45.5206C103.656 46.1326 103.98 46.7446 104.556 47.0326C105.132 47.3206 105.816 46.9606 106.068 46.3486L108.228 40.6606H112.692C114.672 40.6606 116.256 39.0766 116.256 37.0606C116.256 35.0806 114.672 33.4966 112.692 33.4966H110.856L110.892 33.3526H110.928L113.448 26.8366L113.7 26.1886L119.928 42.5686L121.368 46.3846C121.584 46.9966 122.268 47.2486 122.88 47.0686C123.492 46.8886 123.816 46.2766 123.528 45.5566C120.54 37.6366 120.324 37.0246 117.3 29.1406L114.852 22.6246C114.78 22.5166 114.744 22.4086 114.672 22.3366C114.564 22.1206 114.384 21.9766 114.168 21.9406C114.024 21.9046 113.88 21.8686 113.736 21.8686H113.628C113.196 21.8686 112.764 22.1566 112.584 22.6246L109.2 31.3006L108.084 34.1806C108.048 34.3246 108.012 34.4686 108.012 34.6126V34.6486C108.012 35.2966 108.552 35.8006 109.2 35.8006H112.692C113.376 35.8006 113.952 36.3766 113.952 37.0606C113.952 37.7806 113.376 38.3206 112.692 38.3206H107.292C106.932 38.3206 106.608 38.5726 106.428 38.9326ZM128.437 47.1406C129.085 47.1406 129.589 46.6006 129.589 45.9526V23.0566C129.589 22.4086 129.085 21.8686 128.437 21.8686C127.789 21.8686 127.249 22.4086 127.249 23.0566V45.9526C127.249 46.6006 127.789 47.1406 128.437 47.1406ZM149.499 47.1406C150.147 47.1406 150.651 46.6366 150.651 45.9886V41.2726C150.579 38.2846 148.203 36.0526 145.215 35.9086H141.399C140.715 35.9086 140.139 35.3686 140.139 34.6486C140.139 33.9646 140.715 33.3886 141.399 33.3886H144.891C148.095 33.3886 150.651 30.8326 150.651 27.6286C150.651 24.4606 148.095 21.8686 144.891 21.8686H134.343C133.695 21.8686 133.191 22.4086 133.191 23.0566V45.9886C133.191 46.6366 133.695 47.1406 134.343 47.1406C134.991 47.1406 135.495 46.6366 135.495 45.9886V24.2086H144.891C146.799 24.2086 148.311 25.7566 148.311 27.6286C148.311 29.5366 146.799 31.0486 144.891 31.0486H141.399C139.419 31.0486 137.799 32.6686 137.799 34.6486C137.799 36.6286 139.419 38.2486 141.399 38.2486H144.891C146.799 38.2486 148.311 39.5086 148.311 41.4166V45.9886C148.311 46.6366 148.851 47.1406 149.499 47.1406ZM171.745 27.6286C171.745 24.4246 169.189 21.8686 165.985 21.8686H155.437C154.789 21.8686 154.249 22.3726 154.249 23.0206V45.9526C154.249 46.6006 154.789 47.1406 155.437 47.1406H165.985C169.189 47.1406 171.745 44.5846 171.745 41.3806V27.6286ZM169.405 41.3806C169.405 43.2886 167.893 44.8006 165.985 44.8006H156.589V24.1726H165.985C167.893 24.1726 169.405 25.7206 169.405 27.6286V41.3806ZM191.651 47.1406C192.299 47.1406 192.803 46.6366 192.803 45.9886V41.2726C192.731 38.2846 190.355 36.0526 187.367 35.9086H183.551C182.867 35.9086 182.291 35.3686 182.291 34.6486C182.291 33.9646 182.867 33.3886 183.551 33.3886H187.043C190.247 33.3886 192.803 30.8326 192.803 27.6286C192.803 24.4606 190.247 21.8686 187.043 21.8686H176.495C175.847 21.8686 175.343 22.4086 175.343 23.0566V45.9886C175.343 46.6366 175.847 47.1406 176.495 47.1406C177.143 47.1406 177.647 46.6366 177.647 45.9886V24.2086H187.043C188.951 24.2086 190.463 25.7566 190.463 27.6286C190.463 29.5366 188.951 31.0486 187.043 31.0486H183.551C181.571 31.0486 179.951 32.6686 179.951 34.6486C179.951 36.6286 181.571 38.2486 183.551 38.2486H187.043C188.951 38.2486 190.463 39.5086 190.463 41.4166V45.9886C190.463 46.6366 191.003 47.1406 191.651 47.1406ZM207.245 21.8686C200.261 21.8686 194.609 27.5206 194.609 34.5046C194.609 41.4886 200.261 47.1406 207.245 47.1406C214.229 47.1406 219.881 41.4886 219.881 34.5046C219.881 27.5206 214.229 21.8686 207.245 21.8686ZM207.245 44.8006C201.557 44.8006 196.949 40.1926 196.949 34.5046C196.949 28.8166 201.557 24.2086 207.245 24.2086C212.933 24.2086 217.541 28.8166 217.541 34.5046C217.541 40.1926 212.933 44.8006 207.245 44.8006ZM224.624 21.8686C224.012 21.8686 223.472 22.4086 223.472 23.0566V45.9886C223.472 46.6366 224.012 47.1406 224.624 47.1406C225.272 47.1406 225.812 46.6366 225.812 45.9886V33.3886H235.208C238.376 33.3886 240.968 30.8326 240.968 27.6286C240.968 24.4606 238.376 21.8686 235.208 21.8686H224.624ZM225.812 31.0486V24.2086H235.208C237.08 24.2086 238.628 25.7566 238.628 27.6286C238.628 29.5366 237.08 31.0486 235.208 31.0486H225.812Z" fill="#00E23F"/>
<defs>
<filter id="filter0_b_474_2606" x="-15" y="-14.8594" width="376" height="124" filterUnits="userSpaceOnUse" color-interpolation-filters="sRGB">
<feFlood flood-opacity="0" result="BackgroundImageFix"/>
<feGaussianBlur in="BackgroundImage" stdDeviation="7.5"/>
<feComposite in2="SourceAlpha" operator="in" result="effect1_backgroundBlur_474_2606"/>
<feBlend mode="normal" in="SourceGraphic" in2="effect1_backgroundBlur_474_2606" result="shape"/>
</filter>
<radialGradient id="paint0_radial_474_2606" cx="0" cy="0" r="1" gradientUnits="userSpaceOnUse" gradientTransform="translate(-20.4717 101.182) rotate(-7.15459) scale(530.73 238.78)">
<stop stop-color="#7F7F7F" stop-opacity="0.41"/>
<stop offset="0.884594" stop-color="#7F7F7F" stop-opacity="0"/>
</radialGradient>
<linearGradient id="paint1_linear_474_2606" x1="13.8618" y1="-1.71402" x2="65.554" y2="202.836" gradientUnits="userSpaceOnUse">
<stop stop-color="#7F7F7F"/>
<stop offset="1" stop-color="#101010" stop-opacity="0"/>
</linearGradient>
</defs>
</svg>
