<svg width="1017" height="342" viewBox="0 0 1017 342" fill="none" xmlns="http://www.w3.org/2000/svg">
<path d="M61.2 338.126C60.0707 338.126 59.212 337.692 58.624 336.824C58.036 335.956 57.742 334.701 57.742 333.058C57.742 331.406 58.036 330.151 58.624 329.292C59.212 328.433 60.0707 328.004 61.2 328.004C62.3387 328.004 63.1973 328.433 63.776 329.292C64.364 330.141 64.658 331.392 64.658 333.044C64.658 334.696 64.3593 335.956 63.762 336.824C63.174 337.692 62.32 338.126 61.2 338.126ZM61.2 337.132C61.984 337.132 62.5627 336.801 62.936 336.138C63.3187 335.466 63.51 334.435 63.51 333.044C63.51 331.644 63.3233 330.622 62.95 329.978C62.5767 329.325 61.9933 328.998 61.2 328.998C60.416 328.998 59.8327 329.325 59.45 329.978C59.0767 330.631 58.89 331.653 58.89 333.044C58.89 334.435 59.0767 335.466 59.45 336.138C59.8327 336.801 60.416 337.132 61.2 337.132ZM67.0045 338.056C66.7712 338.056 66.5845 337.986 66.4445 337.846C66.3045 337.697 66.2345 337.51 66.2345 337.286C66.2345 337.062 66.3045 336.88 66.4445 336.74C66.5845 336.591 66.7712 336.516 67.0045 336.516C67.2379 336.516 67.4199 336.591 67.5505 336.74C67.6905 336.88 67.7605 337.062 67.7605 337.286C67.7605 337.51 67.6905 337.697 67.5505 337.846C67.4199 337.986 67.2379 338.056 67.0045 338.056ZM70.3861 338C70.1714 338 70.0174 337.953 69.9241 337.86C69.8307 337.757 69.7841 337.622 69.7841 337.454C69.7841 337.258 69.8821 337.057 70.0781 336.852L73.2141 333.492C73.6901 332.979 74.0307 332.507 74.2361 332.078C74.4507 331.639 74.5581 331.196 74.5581 330.748C74.5581 329.6 73.8907 329.026 72.5561 329.026C71.7254 329.026 70.9694 329.292 70.2881 329.824C70.1387 329.936 70.0034 329.978 69.8821 329.95C69.7607 329.913 69.6674 329.838 69.6021 329.726C69.5461 329.614 69.5227 329.493 69.5321 329.362C69.5507 329.222 69.6301 329.101 69.7701 328.998C70.1341 328.699 70.5727 328.461 71.0861 328.284C71.5994 328.097 72.1221 328.004 72.6541 328.004C73.6434 328.004 74.3994 328.237 74.9221 328.704C75.4541 329.161 75.7201 329.815 75.7201 330.664C75.7201 331.252 75.5754 331.831 75.2861 332.4C75.0061 332.96 74.5627 333.557 73.9561 334.192L71.2961 337.02H75.6921C76.0467 337.02 76.2241 337.179 76.2241 337.496C76.2241 337.832 76.0467 338 75.6921 338H70.3861ZM79.1446 338C78.7899 338 78.6126 337.832 78.6126 337.496C78.6126 337.179 78.7899 337.02 79.1446 337.02H80.9646V329.474L79.5366 330.426C79.3873 330.519 79.2473 330.547 79.1166 330.51C78.9953 330.463 78.9019 330.384 78.8366 330.272C78.7713 330.16 78.7479 330.039 78.7666 329.908C78.7946 329.777 78.8833 329.661 79.0326 329.558L80.9646 328.284C81.0859 328.209 81.2026 328.149 81.3146 328.102C81.4266 328.055 81.5386 328.032 81.6506 328.032C81.7813 328.032 81.8886 328.074 81.9726 328.158C82.0659 328.233 82.1126 328.354 82.1126 328.522V337.02H83.7926C84.1473 337.02 84.3246 337.179 84.3246 337.496C84.3246 337.832 84.1473 338 83.7926 338H79.1446ZM89.5691 338.014C89.4851 338.163 89.3825 338.252 89.2611 338.28C89.1398 338.308 89.0231 338.289 88.9111 338.224C88.8085 338.168 88.7385 338.079 88.7011 337.958C88.6638 337.837 88.6871 337.701 88.7711 337.552L94.1751 328.144C94.2591 327.995 94.3618 327.906 94.4831 327.878C94.6045 327.85 94.7165 327.869 94.8191 327.934C94.9218 327.99 94.9918 328.079 95.0291 328.2C95.0758 328.321 95.0571 328.457 94.9731 328.606L89.5691 338.014ZM88.5331 334.052C87.7865 334.052 87.2031 333.786 86.7831 333.254C86.3631 332.722 86.1531 331.98 86.1531 331.028C86.1531 330.076 86.3631 329.339 86.7831 328.816C87.2031 328.284 87.7865 328.018 88.5331 328.018C89.2705 328.018 89.8491 328.284 90.2691 328.816C90.6985 329.339 90.9131 330.076 90.9131 331.028C90.9131 331.98 90.6985 332.722 90.2691 333.254C89.8491 333.786 89.2705 334.052 88.5331 334.052ZM88.5331 333.226C88.9625 333.226 89.3031 333.044 89.5551 332.68C89.8071 332.307 89.9331 331.756 89.9331 331.028C89.9331 330.3 89.8071 329.754 89.5551 329.39C89.3031 329.026 88.9625 328.844 88.5331 328.844C88.0945 328.844 87.7491 329.026 87.4971 329.39C87.2545 329.754 87.1331 330.3 87.1331 331.028C87.1331 331.756 87.2545 332.307 87.4971 332.68C87.7491 333.044 88.0945 333.226 88.5331 333.226ZM95.2251 338.126C94.4878 338.126 93.9045 337.86 93.4751 337.328C93.0551 336.796 92.8451 336.054 92.8451 335.102C92.8451 334.159 93.0551 333.422 93.4751 332.89C93.9045 332.358 94.4878 332.092 95.2251 332.092C95.9718 332.092 96.5551 332.358 96.9751 332.89C97.3951 333.422 97.6051 334.159 97.6051 335.102C97.6051 336.054 97.3951 336.796 96.9751 337.328C96.5551 337.86 95.9718 338.126 95.2251 338.126ZM95.2251 337.3C95.6638 337.3 96.0045 337.118 96.2471 336.754C96.4991 336.381 96.6251 335.83 96.6251 335.102C96.6251 334.374 96.4991 333.828 96.2471 333.464C96.0045 333.1 95.6638 332.918 95.2251 332.918C94.7958 332.918 94.4551 333.1 94.2031 333.464C93.9605 333.828 93.8391 334.374 93.8391 335.102C93.8391 335.839 93.9605 336.39 94.2031 336.754C94.4551 337.118 94.7958 337.3 95.2251 337.3Z" fill="white"/>
<path d="M6.59188 302C6.23721 302 6.05988 301.832 6.05988 301.496C6.05988 301.179 6.23721 301.02 6.59188 301.02H8.41188V293.474L6.98388 294.426C6.83454 294.519 6.69454 294.547 6.56388 294.51C6.44254 294.463 6.34921 294.384 6.28388 294.272C6.21854 294.16 6.19521 294.039 6.21388 293.908C6.24188 293.777 6.33054 293.661 6.47987 293.558L8.41188 292.284C8.53321 292.209 8.64988 292.149 8.76188 292.102C8.87388 292.055 8.98588 292.032 9.09788 292.032C9.22854 292.032 9.33588 292.074 9.41988 292.158C9.51321 292.233 9.55988 292.354 9.55988 292.522V301.02H11.2399C11.5945 301.02 11.7719 301.179 11.7719 301.496C11.7719 301.832 11.5945 302 11.2399 302H6.59188ZM17.0164 302.126C15.8871 302.126 15.0284 301.692 14.4404 300.824C13.8524 299.956 13.5584 298.701 13.5584 297.058C13.5584 295.406 13.8524 294.151 14.4404 293.292C15.0284 292.433 15.8871 292.004 17.0164 292.004C18.1551 292.004 19.0137 292.433 19.5924 293.292C20.1804 294.141 20.4744 295.392 20.4744 297.044C20.4744 298.696 20.1757 299.956 19.5784 300.824C18.9904 301.692 18.1364 302.126 17.0164 302.126ZM17.0164 301.132C17.8004 301.132 18.3791 300.801 18.7524 300.138C19.1351 299.466 19.3264 298.435 19.3264 297.044C19.3264 295.644 19.1397 294.622 18.7664 293.978C18.3931 293.325 17.8097 292.998 17.0164 292.998C16.2324 292.998 15.6491 293.325 15.2664 293.978C14.8931 294.631 14.7064 295.653 14.7064 297.044C14.7064 298.435 14.8931 299.466 15.2664 300.138C15.6491 300.801 16.2324 301.132 17.0164 301.132ZM25.4109 302.126C24.2816 302.126 23.4229 301.692 22.8349 300.824C22.2469 299.956 21.9529 298.701 21.9529 297.058C21.9529 295.406 22.2469 294.151 22.8349 293.292C23.4229 292.433 24.2816 292.004 25.4109 292.004C26.5496 292.004 27.4083 292.433 27.9869 293.292C28.5749 294.141 28.8689 295.392 28.8689 297.044C28.8689 298.696 28.5703 299.956 27.9729 300.824C27.3849 301.692 26.5309 302.126 25.4109 302.126ZM25.4109 301.132C26.1949 301.132 26.7736 300.801 27.1469 300.138C27.5296 299.466 27.7209 298.435 27.7209 297.044C27.7209 295.644 27.5343 294.622 27.1609 293.978C26.7876 293.325 26.2043 292.998 25.4109 292.998C24.6269 292.998 24.0436 293.325 23.6609 293.978C23.2876 294.631 23.1009 295.653 23.1009 297.044C23.1009 298.435 23.2876 299.466 23.6609 300.138C24.0436 300.801 24.6269 301.132 25.4109 301.132ZM33.9455 303.708C33.8055 303.708 33.6888 303.661 33.5955 303.568C33.5115 303.475 33.4695 303.363 33.4695 303.232V302.056C32.8628 302.028 32.3121 301.93 31.8175 301.762C31.3228 301.594 30.9028 301.384 30.5575 301.132C30.4175 301.039 30.3335 300.922 30.3055 300.782C30.2868 300.642 30.3055 300.516 30.3615 300.404C30.4175 300.283 30.5061 300.203 30.6275 300.166C30.7488 300.119 30.8935 300.147 31.0615 300.25C31.3695 300.465 31.7428 300.651 32.1815 300.81C32.6201 300.969 33.1661 301.048 33.8195 301.048C34.6221 301.048 35.2148 300.894 35.5975 300.586C35.9801 300.278 36.1715 299.872 36.1715 299.368C36.1715 298.967 36.0315 298.645 35.7515 298.402C35.4808 298.159 35.0188 297.968 34.3655 297.828L32.9655 297.534C31.2948 297.179 30.4595 296.316 30.4595 294.944C30.4595 294.421 30.5808 293.955 30.8235 293.544C31.0755 293.124 31.4255 292.788 31.8735 292.536C32.3308 292.284 32.8628 292.135 33.4695 292.088V290.898C33.4695 290.767 33.5115 290.655 33.5955 290.562C33.6888 290.469 33.8055 290.422 33.9455 290.422C34.0761 290.422 34.1881 290.469 34.2815 290.562C34.3748 290.655 34.4215 290.767 34.4215 290.898V292.088C34.8415 292.125 35.2755 292.233 35.7235 292.41C36.1715 292.578 36.5588 292.811 36.8855 293.11C37.0348 293.241 37.0955 293.395 37.0675 293.572C37.0488 293.74 36.9648 293.866 36.8155 293.95C36.6755 294.034 36.4981 294.006 36.2835 293.866C35.9661 293.614 35.6161 293.423 35.2335 293.292C34.8601 293.152 34.4121 293.082 33.8895 293.082C33.1895 293.082 32.6295 293.25 32.2095 293.586C31.7988 293.922 31.5935 294.365 31.5935 294.916C31.5935 295.345 31.7241 295.691 31.9855 295.952C32.2468 296.204 32.6715 296.391 33.2595 296.512L34.6735 296.82C35.5881 297.016 36.2601 297.315 36.6895 297.716C37.1188 298.117 37.3335 298.649 37.3335 299.312C37.3335 300.077 37.0628 300.703 36.5215 301.188C35.9801 301.664 35.2801 301.949 34.4215 302.042V303.232C34.4215 303.363 34.3748 303.475 34.2815 303.568C34.1975 303.661 34.0855 303.708 33.9455 303.708Z" fill="white"/>
<path d="M6.22788 256C6.01321 256 5.85921 255.953 5.76588 255.86C5.67254 255.757 5.62588 255.622 5.62588 255.454C5.62588 255.258 5.72388 255.057 5.91988 254.852L9.05588 251.492C9.53188 250.979 9.87254 250.507 10.0779 250.078C10.2925 249.639 10.3999 249.196 10.3999 248.748C10.3999 247.6 9.73254 247.026 8.39788 247.026C7.56721 247.026 6.81121 247.292 6.12988 247.824C5.98054 247.936 5.84521 247.978 5.72388 247.95C5.60254 247.913 5.50921 247.838 5.44388 247.726C5.38788 247.614 5.36454 247.493 5.37388 247.362C5.39254 247.222 5.47188 247.101 5.61188 246.998C5.97588 246.699 6.41454 246.461 6.92788 246.284C7.44121 246.097 7.96388 246.004 8.49588 246.004C9.48521 246.004 10.2412 246.237 10.7639 246.704C11.2959 247.161 11.5619 247.815 11.5619 248.664C11.5619 249.252 11.4172 249.831 11.1279 250.4C10.8479 250.96 10.4045 251.557 9.79788 252.192L7.13788 255.02H11.5339C11.8885 255.02 12.0659 255.179 12.0659 255.496C12.0659 255.832 11.8885 256 11.5339 256H6.22788ZM17.0164 256.126C15.8871 256.126 15.0284 255.692 14.4404 254.824C13.8524 253.956 13.5584 252.701 13.5584 251.058C13.5584 249.406 13.8524 248.151 14.4404 247.292C15.0284 246.433 15.8871 246.004 17.0164 246.004C18.1551 246.004 19.0137 246.433 19.5924 247.292C20.1804 248.141 20.4744 249.392 20.4744 251.044C20.4744 252.696 20.1757 253.956 19.5784 254.824C18.9904 255.692 18.1364 256.126 17.0164 256.126ZM17.0164 255.132C17.8004 255.132 18.3791 254.801 18.7524 254.138C19.1351 253.466 19.3264 252.435 19.3264 251.044C19.3264 249.644 19.1397 248.622 18.7664 247.978C18.3931 247.325 17.8097 246.998 17.0164 246.998C16.2324 246.998 15.6491 247.325 15.2664 247.978C14.8931 248.631 14.7064 249.653 14.7064 251.044C14.7064 252.435 14.8931 253.466 15.2664 254.138C15.6491 254.801 16.2324 255.132 17.0164 255.132ZM25.4109 256.126C24.2816 256.126 23.4229 255.692 22.8349 254.824C22.2469 253.956 21.9529 252.701 21.9529 251.058C21.9529 249.406 22.2469 248.151 22.8349 247.292C23.4229 246.433 24.2816 246.004 25.4109 246.004C26.5496 246.004 27.4083 246.433 27.9869 247.292C28.5749 248.141 28.8689 249.392 28.8689 251.044C28.8689 252.696 28.5703 253.956 27.9729 254.824C27.3849 255.692 26.5309 256.126 25.4109 256.126ZM25.4109 255.132C26.1949 255.132 26.7736 254.801 27.1469 254.138C27.5296 253.466 27.7209 252.435 27.7209 251.044C27.7209 249.644 27.5343 248.622 27.1609 247.978C26.7876 247.325 26.2043 246.998 25.4109 246.998C24.6269 246.998 24.0436 247.325 23.6609 247.978C23.2876 248.631 23.1009 249.653 23.1009 251.044C23.1009 252.435 23.2876 253.466 23.6609 254.138C24.0436 254.801 24.6269 255.132 25.4109 255.132ZM33.9455 257.708C33.8055 257.708 33.6888 257.661 33.5955 257.568C33.5115 257.475 33.4695 257.363 33.4695 257.232V256.056C32.8628 256.028 32.3121 255.93 31.8175 255.762C31.3228 255.594 30.9028 255.384 30.5575 255.132C30.4175 255.039 30.3335 254.922 30.3055 254.782C30.2868 254.642 30.3055 254.516 30.3615 254.404C30.4175 254.283 30.5061 254.203 30.6275 254.166C30.7488 254.119 30.8935 254.147 31.0615 254.25C31.3695 254.465 31.7428 254.651 32.1815 254.81C32.6201 254.969 33.1661 255.048 33.8195 255.048C34.6221 255.048 35.2148 254.894 35.5975 254.586C35.9801 254.278 36.1715 253.872 36.1715 253.368C36.1715 252.967 36.0315 252.645 35.7515 252.402C35.4808 252.159 35.0188 251.968 34.3655 251.828L32.9655 251.534C31.2948 251.179 30.4595 250.316 30.4595 248.944C30.4595 248.421 30.5808 247.955 30.8235 247.544C31.0755 247.124 31.4255 246.788 31.8735 246.536C32.3308 246.284 32.8628 246.135 33.4695 246.088V244.898C33.4695 244.767 33.5115 244.655 33.5955 244.562C33.6888 244.469 33.8055 244.422 33.9455 244.422C34.0761 244.422 34.1881 244.469 34.2815 244.562C34.3748 244.655 34.4215 244.767 34.4215 244.898V246.088C34.8415 246.125 35.2755 246.233 35.7235 246.41C36.1715 246.578 36.5588 246.811 36.8855 247.11C37.0348 247.241 37.0955 247.395 37.0675 247.572C37.0488 247.74 36.9648 247.866 36.8155 247.95C36.6755 248.034 36.4981 248.006 36.2835 247.866C35.9661 247.614 35.6161 247.423 35.2335 247.292C34.8601 247.152 34.4121 247.082 33.8895 247.082C33.1895 247.082 32.6295 247.25 32.2095 247.586C31.7988 247.922 31.5935 248.365 31.5935 248.916C31.5935 249.345 31.7241 249.691 31.9855 249.952C32.2468 250.204 32.6715 250.391 33.2595 250.512L34.6735 250.82C35.5881 251.016 36.2601 251.315 36.6895 251.716C37.1188 252.117 37.3335 252.649 37.3335 253.312C37.3335 254.077 37.0628 254.703 36.5215 255.188C35.9801 255.664 35.2801 255.949 34.4215 256.042V257.232C34.4215 257.363 34.3748 257.475 34.2815 257.568C34.1975 257.661 34.0855 257.708 33.9455 257.708Z" fill="white"/>
<path d="M8.50988 206.126C7.95921 206.126 7.41321 206.047 6.87188 205.888C6.33054 205.729 5.85921 205.496 5.45788 205.188C5.30854 205.076 5.21988 204.955 5.19188 204.824C5.17321 204.684 5.19188 204.558 5.24788 204.446C5.31321 204.334 5.41121 204.264 5.54188 204.236C5.67254 204.199 5.81721 204.231 5.97588 204.334C6.38654 204.605 6.79721 204.801 7.20788 204.922C7.61854 205.043 8.04321 205.104 8.48188 205.104C9.19121 205.104 9.73254 204.95 10.1059 204.642C10.4885 204.325 10.6799 203.863 10.6799 203.256C10.6799 202.677 10.4885 202.239 10.1059 201.94C9.72321 201.641 9.16788 201.492 8.43988 201.492H7.44588C7.08188 201.492 6.89988 201.324 6.89988 200.988C6.89988 200.661 7.08188 200.498 7.44588 200.498H8.34188C8.97654 200.498 9.47588 200.335 9.83988 200.008C10.2132 199.672 10.3999 199.215 10.3999 198.636C10.3999 198.123 10.2272 197.726 9.88188 197.446C9.54588 197.166 9.06521 197.026 8.43988 197.026C8.01054 197.026 7.60921 197.087 7.23588 197.208C6.87188 197.329 6.50788 197.535 6.14388 197.824C6.00388 197.927 5.86854 197.964 5.73788 197.936C5.61654 197.908 5.51854 197.843 5.44388 197.74C5.37854 197.628 5.35521 197.502 5.37388 197.362C5.40188 197.222 5.49054 197.096 5.63988 196.984C6.00388 196.676 6.43788 196.438 6.94188 196.27C7.44588 196.093 7.96854 196.004 8.50988 196.004C9.46188 196.004 10.2039 196.228 10.7359 196.676C11.2772 197.124 11.5479 197.745 11.5479 198.538C11.5479 199.089 11.4079 199.574 11.1279 199.994C10.8479 200.405 10.4605 200.703 9.96588 200.89C10.5539 201.049 11.0112 201.343 11.3379 201.772C11.6645 202.192 11.8279 202.715 11.8279 203.34C11.8279 204.189 11.5292 204.866 10.9319 205.37C10.3439 205.874 9.53654 206.126 8.50988 206.126ZM17.0164 206.126C15.8871 206.126 15.0284 205.692 14.4404 204.824C13.8524 203.956 13.5584 202.701 13.5584 201.058C13.5584 199.406 13.8524 198.151 14.4404 197.292C15.0284 196.433 15.8871 196.004 17.0164 196.004C18.1551 196.004 19.0137 196.433 19.5924 197.292C20.1804 198.141 20.4744 199.392 20.4744 201.044C20.4744 202.696 20.1757 203.956 19.5784 204.824C18.9904 205.692 18.1364 206.126 17.0164 206.126ZM17.0164 205.132C17.8004 205.132 18.3791 204.801 18.7524 204.138C19.1351 203.466 19.3264 202.435 19.3264 201.044C19.3264 199.644 19.1397 198.622 18.7664 197.978C18.3931 197.325 17.8097 196.998 17.0164 196.998C16.2324 196.998 15.6491 197.325 15.2664 197.978C14.8931 198.631 14.7064 199.653 14.7064 201.044C14.7064 202.435 14.8931 203.466 15.2664 204.138C15.6491 204.801 16.2324 205.132 17.0164 205.132ZM25.4109 206.126C24.2816 206.126 23.4229 205.692 22.8349 204.824C22.2469 203.956 21.9529 202.701 21.9529 201.058C21.9529 199.406 22.2469 198.151 22.8349 197.292C23.4229 196.433 24.2816 196.004 25.4109 196.004C26.5496 196.004 27.4083 196.433 27.9869 197.292C28.5749 198.141 28.8689 199.392 28.8689 201.044C28.8689 202.696 28.5703 203.956 27.9729 204.824C27.3849 205.692 26.5309 206.126 25.4109 206.126ZM25.4109 205.132C26.1949 205.132 26.7736 204.801 27.1469 204.138C27.5296 203.466 27.7209 202.435 27.7209 201.044C27.7209 199.644 27.5343 198.622 27.1609 197.978C26.7876 197.325 26.2043 196.998 25.4109 196.998C24.6269 196.998 24.0436 197.325 23.6609 197.978C23.2876 198.631 23.1009 199.653 23.1009 201.044C23.1009 202.435 23.2876 203.466 23.6609 204.138C24.0436 204.801 24.6269 205.132 25.4109 205.132ZM33.9455 207.708C33.8055 207.708 33.6888 207.661 33.5955 207.568C33.5115 207.475 33.4695 207.363 33.4695 207.232V206.056C32.8628 206.028 32.3121 205.93 31.8175 205.762C31.3228 205.594 30.9028 205.384 30.5575 205.132C30.4175 205.039 30.3335 204.922 30.3055 204.782C30.2868 204.642 30.3055 204.516 30.3615 204.404C30.4175 204.283 30.5061 204.203 30.6275 204.166C30.7488 204.119 30.8935 204.147 31.0615 204.25C31.3695 204.465 31.7428 204.651 32.1815 204.81C32.6201 204.969 33.1661 205.048 33.8195 205.048C34.6221 205.048 35.2148 204.894 35.5975 204.586C35.9801 204.278 36.1715 203.872 36.1715 203.368C36.1715 202.967 36.0315 202.645 35.7515 202.402C35.4808 202.159 35.0188 201.968 34.3655 201.828L32.9655 201.534C31.2948 201.179 30.4595 200.316 30.4595 198.944C30.4595 198.421 30.5808 197.955 30.8235 197.544C31.0755 197.124 31.4255 196.788 31.8735 196.536C32.3308 196.284 32.8628 196.135 33.4695 196.088V194.898C33.4695 194.767 33.5115 194.655 33.5955 194.562C33.6888 194.469 33.8055 194.422 33.9455 194.422C34.0761 194.422 34.1881 194.469 34.2815 194.562C34.3748 194.655 34.4215 194.767 34.4215 194.898V196.088C34.8415 196.125 35.2755 196.233 35.7235 196.41C36.1715 196.578 36.5588 196.811 36.8855 197.11C37.0348 197.241 37.0955 197.395 37.0675 197.572C37.0488 197.74 36.9648 197.866 36.8155 197.95C36.6755 198.034 36.4981 198.006 36.2835 197.866C35.9661 197.614 35.6161 197.423 35.2335 197.292C34.8601 197.152 34.4121 197.082 33.8895 197.082C33.1895 197.082 32.6295 197.25 32.2095 197.586C31.7988 197.922 31.5935 198.365 31.5935 198.916C31.5935 199.345 31.7241 199.691 31.9855 199.952C32.2468 200.204 32.6715 200.391 33.2595 200.512L34.6735 200.82C35.5881 201.016 36.2601 201.315 36.6895 201.716C37.1188 202.117 37.3335 202.649 37.3335 203.312C37.3335 204.077 37.0628 204.703 36.5215 205.188C35.9801 205.664 35.2801 205.949 34.4215 206.042V207.232C34.4215 207.363 34.3748 207.475 34.2815 207.568C34.1975 207.661 34.0855 207.708 33.9455 207.708Z" fill="white"/>
<path d="M10.2739 158.098C9.89121 158.098 9.69988 157.902 9.69988 157.51V155.886H5.68188C5.49521 155.886 5.34588 155.844 5.23388 155.76C5.13121 155.667 5.07988 155.536 5.07988 155.368C5.07988 155.2 5.18721 154.957 5.40188 154.64L9.67188 148.424C9.83988 148.163 10.0545 148.032 10.3159 148.032C10.4652 148.032 10.5912 148.083 10.6939 148.186C10.8059 148.279 10.8619 148.424 10.8619 148.62V154.906H11.8839C12.2479 154.906 12.4299 155.069 12.4299 155.396C12.4299 155.723 12.2479 155.886 11.8839 155.886H10.8619V157.51C10.8619 157.902 10.6659 158.098 10.2739 158.098ZM9.69988 154.906V149.978L6.32588 154.906H9.69988ZM17.0164 158.126C15.8871 158.126 15.0284 157.692 14.4404 156.824C13.8524 155.956 13.5584 154.701 13.5584 153.058C13.5584 151.406 13.8524 150.151 14.4404 149.292C15.0284 148.433 15.8871 148.004 17.0164 148.004C18.1551 148.004 19.0137 148.433 19.5924 149.292C20.1804 150.141 20.4744 151.392 20.4744 153.044C20.4744 154.696 20.1757 155.956 19.5784 156.824C18.9904 157.692 18.1364 158.126 17.0164 158.126ZM17.0164 157.132C17.8004 157.132 18.3791 156.801 18.7524 156.138C19.1351 155.466 19.3264 154.435 19.3264 153.044C19.3264 151.644 19.1397 150.622 18.7664 149.978C18.3931 149.325 17.8097 148.998 17.0164 148.998C16.2324 148.998 15.6491 149.325 15.2664 149.978C14.8931 150.631 14.7064 151.653 14.7064 153.044C14.7064 154.435 14.8931 155.466 15.2664 156.138C15.6491 156.801 16.2324 157.132 17.0164 157.132ZM25.4109 158.126C24.2816 158.126 23.4229 157.692 22.8349 156.824C22.2469 155.956 21.9529 154.701 21.9529 153.058C21.9529 151.406 22.2469 150.151 22.8349 149.292C23.4229 148.433 24.2816 148.004 25.4109 148.004C26.5496 148.004 27.4083 148.433 27.9869 149.292C28.5749 150.141 28.8689 151.392 28.8689 153.044C28.8689 154.696 28.5703 155.956 27.9729 156.824C27.3849 157.692 26.5309 158.126 25.4109 158.126ZM25.4109 157.132C26.1949 157.132 26.7736 156.801 27.1469 156.138C27.5296 155.466 27.7209 154.435 27.7209 153.044C27.7209 151.644 27.5343 150.622 27.1609 149.978C26.7876 149.325 26.2043 148.998 25.4109 148.998C24.6269 148.998 24.0436 149.325 23.6609 149.978C23.2876 150.631 23.1009 151.653 23.1009 153.044C23.1009 154.435 23.2876 155.466 23.6609 156.138C24.0436 156.801 24.6269 157.132 25.4109 157.132ZM33.9455 159.708C33.8055 159.708 33.6888 159.661 33.5955 159.568C33.5115 159.475 33.4695 159.363 33.4695 159.232V158.056C32.8628 158.028 32.3121 157.93 31.8175 157.762C31.3228 157.594 30.9028 157.384 30.5575 157.132C30.4175 157.039 30.3335 156.922 30.3055 156.782C30.2868 156.642 30.3055 156.516 30.3615 156.404C30.4175 156.283 30.5061 156.203 30.6275 156.166C30.7488 156.119 30.8935 156.147 31.0615 156.25C31.3695 156.465 31.7428 156.651 32.1815 156.81C32.6201 156.969 33.1661 157.048 33.8195 157.048C34.6221 157.048 35.2148 156.894 35.5975 156.586C35.9801 156.278 36.1715 155.872 36.1715 155.368C36.1715 154.967 36.0315 154.645 35.7515 154.402C35.4808 154.159 35.0188 153.968 34.3655 153.828L32.9655 153.534C31.2948 153.179 30.4595 152.316 30.4595 150.944C30.4595 150.421 30.5808 149.955 30.8235 149.544C31.0755 149.124 31.4255 148.788 31.8735 148.536C32.3308 148.284 32.8628 148.135 33.4695 148.088V146.898C33.4695 146.767 33.5115 146.655 33.5955 146.562C33.6888 146.469 33.8055 146.422 33.9455 146.422C34.0761 146.422 34.1881 146.469 34.2815 146.562C34.3748 146.655 34.4215 146.767 34.4215 146.898V148.088C34.8415 148.125 35.2755 148.233 35.7235 148.41C36.1715 148.578 36.5588 148.811 36.8855 149.11C37.0348 149.241 37.0955 149.395 37.0675 149.572C37.0488 149.74 36.9648 149.866 36.8155 149.95C36.6755 150.034 36.4981 150.006 36.2835 149.866C35.9661 149.614 35.6161 149.423 35.2335 149.292C34.8601 149.152 34.4121 149.082 33.8895 149.082C33.1895 149.082 32.6295 149.25 32.2095 149.586C31.7988 149.922 31.5935 150.365 31.5935 150.916C31.5935 151.345 31.7241 151.691 31.9855 151.952C32.2468 152.204 32.6715 152.391 33.2595 152.512L34.6735 152.82C35.5881 153.016 36.2601 153.315 36.6895 153.716C37.1188 154.117 37.3335 154.649 37.3335 155.312C37.3335 156.077 37.0628 156.703 36.5215 157.188C35.9801 157.664 35.2801 157.949 34.4215 158.042V159.232C34.4215 159.363 34.3748 159.475 34.2815 159.568C34.1975 159.661 34.0855 159.708 33.9455 159.708Z" fill="white"/>
<path d="M8.83188 110.126C8.29054 110.126 7.75388 110.047 7.22188 109.888C6.69921 109.729 6.22788 109.482 5.80788 109.146C5.66788 109.053 5.58388 108.941 5.55588 108.81C5.53721 108.67 5.56054 108.544 5.62588 108.432C5.69121 108.32 5.78454 108.245 5.90588 108.208C6.03654 108.171 6.18121 108.203 6.33988 108.306C7.07721 108.838 7.90321 109.104 8.81788 109.104C9.49921 109.104 10.0359 108.913 10.4279 108.53C10.8199 108.147 11.0159 107.643 11.0159 107.018C11.0159 106.374 10.8292 105.847 10.4559 105.436C10.0825 105.025 9.56921 104.82 8.91588 104.82C8.51454 104.82 8.14121 104.895 7.79588 105.044C7.45988 105.193 7.15654 105.431 6.88588 105.758C6.82054 105.833 6.74121 105.898 6.64788 105.954C6.56388 106.001 6.46588 106.024 6.35388 106.024C6.01788 106.024 5.84988 105.861 5.84988 105.534V100.662C5.84988 100.307 6.02721 100.13 6.38188 100.13H11.1419C11.4965 100.13 11.6739 100.293 11.6739 100.62C11.6739 100.947 11.4965 101.11 11.1419 101.11H6.98388V104.638C7.52521 104.097 8.23921 103.826 9.12588 103.826C9.74188 103.826 10.2785 103.957 10.7359 104.218C11.1932 104.479 11.5432 104.848 11.7859 105.324C12.0379 105.791 12.1639 106.337 12.1639 106.962C12.1639 107.578 12.0285 108.124 11.7579 108.6C11.4872 109.076 11.0999 109.449 10.5959 109.72C10.1012 109.991 9.51321 110.126 8.83188 110.126ZM17.0164 110.126C15.8871 110.126 15.0284 109.692 14.4404 108.824C13.8524 107.956 13.5584 106.701 13.5584 105.058C13.5584 103.406 13.8524 102.151 14.4404 101.292C15.0284 100.433 15.8871 100.004 17.0164 100.004C18.1551 100.004 19.0137 100.433 19.5924 101.292C20.1804 102.141 20.4744 103.392 20.4744 105.044C20.4744 106.696 20.1757 107.956 19.5784 108.824C18.9904 109.692 18.1364 110.126 17.0164 110.126ZM17.0164 109.132C17.8004 109.132 18.3791 108.801 18.7524 108.138C19.1351 107.466 19.3264 106.435 19.3264 105.044C19.3264 103.644 19.1397 102.622 18.7664 101.978C18.3931 101.325 17.8097 100.998 17.0164 100.998C16.2324 100.998 15.6491 101.325 15.2664 101.978C14.8931 102.631 14.7064 103.653 14.7064 105.044C14.7064 106.435 14.8931 107.466 15.2664 108.138C15.6491 108.801 16.2324 109.132 17.0164 109.132ZM25.4109 110.126C24.2816 110.126 23.4229 109.692 22.8349 108.824C22.2469 107.956 21.9529 106.701 21.9529 105.058C21.9529 103.406 22.2469 102.151 22.8349 101.292C23.4229 100.433 24.2816 100.004 25.4109 100.004C26.5496 100.004 27.4083 100.433 27.9869 101.292C28.5749 102.141 28.8689 103.392 28.8689 105.044C28.8689 106.696 28.5703 107.956 27.9729 108.824C27.3849 109.692 26.5309 110.126 25.4109 110.126ZM25.4109 109.132C26.1949 109.132 26.7736 108.801 27.1469 108.138C27.5296 107.466 27.7209 106.435 27.7209 105.044C27.7209 103.644 27.5343 102.622 27.1609 101.978C26.7876 101.325 26.2043 100.998 25.4109 100.998C24.6269 100.998 24.0436 101.325 23.6609 101.978C23.2876 102.631 23.1009 103.653 23.1009 105.044C23.1009 106.435 23.2876 107.466 23.6609 108.138C24.0436 108.801 24.6269 109.132 25.4109 109.132ZM33.9455 111.708C33.8055 111.708 33.6888 111.661 33.5955 111.568C33.5115 111.475 33.4695 111.363 33.4695 111.232V110.056C32.8628 110.028 32.3121 109.93 31.8175 109.762C31.3228 109.594 30.9028 109.384 30.5575 109.132C30.4175 109.039 30.3335 108.922 30.3055 108.782C30.2868 108.642 30.3055 108.516 30.3615 108.404C30.4175 108.283 30.5061 108.203 30.6275 108.166C30.7488 108.119 30.8935 108.147 31.0615 108.25C31.3695 108.465 31.7428 108.651 32.1815 108.81C32.6201 108.969 33.1661 109.048 33.8195 109.048C34.6221 109.048 35.2148 108.894 35.5975 108.586C35.9801 108.278 36.1715 107.872 36.1715 107.368C36.1715 106.967 36.0315 106.645 35.7515 106.402C35.4808 106.159 35.0188 105.968 34.3655 105.828L32.9655 105.534C31.2948 105.179 30.4595 104.316 30.4595 102.944C30.4595 102.421 30.5808 101.955 30.8235 101.544C31.0755 101.124 31.4255 100.788 31.8735 100.536C32.3308 100.284 32.8628 100.135 33.4695 100.088V98.898C33.4695 98.7673 33.5115 98.6553 33.5955 98.562C33.6888 98.4687 33.8055 98.422 33.9455 98.422C34.0761 98.422 34.1881 98.4687 34.2815 98.562C34.3748 98.6553 34.4215 98.7673 34.4215 98.898V100.088C34.8415 100.125 35.2755 100.233 35.7235 100.41C36.1715 100.578 36.5588 100.811 36.8855 101.11C37.0348 101.241 37.0955 101.395 37.0675 101.572C37.0488 101.74 36.9648 101.866 36.8155 101.95C36.6755 102.034 36.4981 102.006 36.2835 101.866C35.9661 101.614 35.6161 101.423 35.2335 101.292C34.8601 101.152 34.4121 101.082 33.8895 101.082C33.1895 101.082 32.6295 101.25 32.2095 101.586C31.7988 101.922 31.5935 102.365 31.5935 102.916C31.5935 103.345 31.7241 103.691 31.9855 103.952C32.2468 104.204 32.6715 104.391 33.2595 104.512L34.6735 104.82C35.5881 105.016 36.2601 105.315 36.6895 105.716C37.1188 106.117 37.3335 106.649 37.3335 107.312C37.3335 108.077 37.0628 108.703 36.5215 109.188C35.9801 109.664 35.2801 109.949 34.4215 110.042V111.232C34.4215 111.363 34.3748 111.475 34.2815 111.568C34.1975 111.661 34.0855 111.708 33.9455 111.708Z" fill="white"/>
<path d="M8.95788 62.126C7.79121 62.126 6.89054 61.706 6.25588 60.866C5.63054 60.0167 5.31788 58.8313 5.31788 57.31C5.31788 55.602 5.66788 54.2907 6.36788 53.376C7.06788 52.4613 8.04788 52.004 9.30788 52.004C9.73721 52.004 10.1759 52.088 10.6239 52.256C11.0812 52.424 11.4825 52.662 11.8279 52.97C11.9492 53.0727 12.0145 53.1893 12.0239 53.32C12.0425 53.4507 12.0192 53.572 11.9539 53.684C11.8885 53.796 11.7952 53.8707 11.6739 53.908C11.5619 53.936 11.4312 53.894 11.2819 53.782C10.9645 53.5113 10.6379 53.32 10.3019 53.208C9.96588 53.0867 9.62521 53.026 9.27988 53.026C8.36521 53.026 7.66054 53.3667 7.16588 54.048C6.68054 54.7293 6.43788 55.742 6.43788 57.086V57.772C6.61521 57.156 6.94188 56.6753 7.41788 56.33C7.90321 55.9847 8.47254 55.812 9.12588 55.812C9.70454 55.812 10.2179 55.9473 10.6659 56.218C11.1139 56.4793 11.4639 56.8433 11.7159 57.31C11.9679 57.7767 12.0939 58.3133 12.0939 58.92C12.0939 59.5453 11.9585 60.1007 11.6879 60.586C11.4265 61.062 11.0579 61.44 10.5819 61.72C10.1152 61.9907 9.57388 62.126 8.95788 62.126ZM8.88788 61.146C9.51321 61.146 10.0172 60.9453 10.3999 60.544C10.7919 60.1427 10.9879 59.6153 10.9879 58.962C10.9879 58.318 10.7919 57.7953 10.3999 57.394C10.0172 56.9833 9.51321 56.778 8.88788 56.778C8.26254 56.778 7.75388 56.9833 7.36188 57.394C6.97921 57.7953 6.78788 58.318 6.78788 58.962C6.78788 59.6153 6.97921 60.1427 7.36188 60.544C7.75388 60.9453 8.26254 61.146 8.88788 61.146ZM17.0164 62.126C15.8871 62.126 15.0284 61.692 14.4404 60.824C13.8524 59.956 13.5584 58.7007 13.5584 57.058C13.5584 55.406 13.8524 54.1507 14.4404 53.292C15.0284 52.4333 15.8871 52.004 17.0164 52.004C18.1551 52.004 19.0137 52.4333 19.5924 53.292C20.1804 54.1413 20.4744 55.392 20.4744 57.044C20.4744 58.696 20.1757 59.956 19.5784 60.824C18.9904 61.692 18.1364 62.126 17.0164 62.126ZM17.0164 61.132C17.8004 61.132 18.3791 60.8007 18.7524 60.138C19.1351 59.466 19.3264 58.4347 19.3264 57.044C19.3264 55.644 19.1397 54.622 18.7664 53.978C18.3931 53.3247 17.8097 52.998 17.0164 52.998C16.2324 52.998 15.6491 53.3247 15.2664 53.978C14.8931 54.6313 14.7064 55.6533 14.7064 57.044C14.7064 58.4347 14.8931 59.466 15.2664 60.138C15.6491 60.8007 16.2324 61.132 17.0164 61.132ZM25.4109 62.126C24.2816 62.126 23.4229 61.692 22.8349 60.824C22.2469 59.956 21.9529 58.7007 21.9529 57.058C21.9529 55.406 22.2469 54.1507 22.8349 53.292C23.4229 52.4333 24.2816 52.004 25.4109 52.004C26.5496 52.004 27.4083 52.4333 27.9869 53.292C28.5749 54.1413 28.8689 55.392 28.8689 57.044C28.8689 58.696 28.5703 59.956 27.9729 60.824C27.3849 61.692 26.5309 62.126 25.4109 62.126ZM25.4109 61.132C26.1949 61.132 26.7736 60.8007 27.1469 60.138C27.5296 59.466 27.7209 58.4347 27.7209 57.044C27.7209 55.644 27.5343 54.622 27.1609 53.978C26.7876 53.3247 26.2043 52.998 25.4109 52.998C24.6269 52.998 24.0436 53.3247 23.6609 53.978C23.2876 54.6313 23.1009 55.6533 23.1009 57.044C23.1009 58.4347 23.2876 59.466 23.6609 60.138C24.0436 60.8007 24.6269 61.132 25.4109 61.132ZM33.9455 63.708C33.8055 63.708 33.6888 63.6613 33.5955 63.568C33.5115 63.4747 33.4695 63.3627 33.4695 63.232V62.056C32.8628 62.028 32.3121 61.93 31.8175 61.762C31.3228 61.594 30.9028 61.384 30.5575 61.132C30.4175 61.0387 30.3335 60.922 30.3055 60.782C30.2868 60.642 30.3055 60.516 30.3615 60.404C30.4175 60.2827 30.5061 60.2033 30.6275 60.166C30.7488 60.1193 30.8935 60.1473 31.0615 60.25C31.3695 60.4647 31.7428 60.6513 32.1815 60.81C32.6201 60.9687 33.1661 61.048 33.8195 61.048C34.6221 61.048 35.2148 60.894 35.5975 60.586C35.9801 60.278 36.1715 59.872 36.1715 59.368C36.1715 58.9667 36.0315 58.6447 35.7515 58.402C35.4808 58.1593 35.0188 57.968 34.3655 57.828L32.9655 57.534C31.2948 57.1793 30.4595 56.316 30.4595 54.944C30.4595 54.4213 30.5808 53.9547 30.8235 53.544C31.0755 53.124 31.4255 52.788 31.8735 52.536C32.3308 52.284 32.8628 52.1347 33.4695 52.088V50.898C33.4695 50.7673 33.5115 50.6553 33.5955 50.562C33.6888 50.4687 33.8055 50.422 33.9455 50.422C34.0761 50.422 34.1881 50.4687 34.2815 50.562C34.3748 50.6553 34.4215 50.7673 34.4215 50.898V52.088C34.8415 52.1253 35.2755 52.2327 35.7235 52.41C36.1715 52.578 36.5588 52.8113 36.8855 53.11C37.0348 53.2407 37.0955 53.3947 37.0675 53.572C37.0488 53.74 36.9648 53.866 36.8155 53.95C36.6755 54.034 36.4981 54.006 36.2835 53.866C35.9661 53.614 35.6161 53.4227 35.2335 53.292C34.8601 53.152 34.4121 53.082 33.8895 53.082C33.1895 53.082 32.6295 53.25 32.2095 53.586C31.7988 53.922 31.5935 54.3653 31.5935 54.916C31.5935 55.3453 31.7241 55.6907 31.9855 55.952C32.2468 56.204 32.6715 56.3907 33.2595 56.512L34.6735 56.82C35.5881 57.016 36.2601 57.3147 36.6895 57.716C37.1188 58.1173 37.3335 58.6493 37.3335 59.312C37.3335 60.0773 37.0628 60.7027 36.5215 61.188C35.9801 61.664 35.2801 61.9487 34.4215 62.042V63.232C34.4215 63.3627 34.3748 63.4747 34.2815 63.568C34.1975 63.6613 34.0855 63.708 33.9455 63.708Z" fill="white"/>
<path d="M6.77388 14.098C6.56854 14.098 6.41454 14.028 6.31188 13.888C6.21854 13.7387 6.22788 13.5567 6.33988 13.342L10.5819 5.124H5.79388C5.43921 5.124 5.26188 4.956 5.26188 4.62C5.26188 4.29333 5.43921 4.13 5.79388 4.13H11.3519C11.5199 4.13 11.6552 4.17667 11.7579 4.27C11.8605 4.354 11.9119 4.47067 11.9119 4.62C11.9119 4.76 11.8932 4.88133 11.8559 4.984C11.8279 5.07733 11.7859 5.18 11.7299 5.292L7.41788 13.706C7.28721 13.9673 7.07254 14.098 6.77388 14.098ZM17.0164 14.126C15.8871 14.126 15.0284 13.692 14.4404 12.824C13.8524 11.956 13.5584 10.7007 13.5584 9.058C13.5584 7.406 13.8524 6.15067 14.4404 5.292C15.0284 4.43333 15.8871 4.004 17.0164 4.004C18.1551 4.004 19.0137 4.43333 19.5924 5.292C20.1804 6.14133 20.4744 7.392 20.4744 9.044C20.4744 10.696 20.1757 11.956 19.5784 12.824C18.9904 13.692 18.1364 14.126 17.0164 14.126ZM17.0164 13.132C17.8004 13.132 18.3791 12.8007 18.7524 12.138C19.1351 11.466 19.3264 10.4347 19.3264 9.044C19.3264 7.644 19.1397 6.622 18.7664 5.978C18.3931 5.32467 17.8097 4.998 17.0164 4.998C16.2324 4.998 15.6491 5.32467 15.2664 5.978C14.8931 6.63133 14.7064 7.65333 14.7064 9.044C14.7064 10.4347 14.8931 11.466 15.2664 12.138C15.6491 12.8007 16.2324 13.132 17.0164 13.132ZM25.4109 14.126C24.2816 14.126 23.4229 13.692 22.8349 12.824C22.2469 11.956 21.9529 10.7007 21.9529 9.058C21.9529 7.406 22.2469 6.15067 22.8349 5.292C23.4229 4.43333 24.2816 4.004 25.4109 4.004C26.5496 4.004 27.4083 4.43333 27.9869 5.292C28.5749 6.14133 28.8689 7.392 28.8689 9.044C28.8689 10.696 28.5703 11.956 27.9729 12.824C27.3849 13.692 26.5309 14.126 25.4109 14.126ZM25.4109 13.132C26.1949 13.132 26.7736 12.8007 27.1469 12.138C27.5296 11.466 27.7209 10.4347 27.7209 9.044C27.7209 7.644 27.5343 6.622 27.1609 5.978C26.7876 5.32467 26.2043 4.998 25.4109 4.998C24.6269 4.998 24.0436 5.32467 23.6609 5.978C23.2876 6.63133 23.1009 7.65333 23.1009 9.044C23.1009 10.4347 23.2876 11.466 23.6609 12.138C24.0436 12.8007 24.6269 13.132 25.4109 13.132ZM33.9455 15.708C33.8055 15.708 33.6888 15.6613 33.5955 15.568C33.5115 15.4747 33.4695 15.3627 33.4695 15.232V14.056C32.8628 14.028 32.3121 13.93 31.8175 13.762C31.3228 13.594 30.9028 13.384 30.5575 13.132C30.4175 13.0387 30.3335 12.922 30.3055 12.782C30.2868 12.642 30.3055 12.516 30.3615 12.404C30.4175 12.2827 30.5061 12.2033 30.6275 12.166C30.7488 12.1193 30.8935 12.1473 31.0615 12.25C31.3695 12.4647 31.7428 12.6513 32.1815 12.81C32.6201 12.9687 33.1661 13.048 33.8195 13.048C34.6221 13.048 35.2148 12.894 35.5975 12.586C35.9801 12.278 36.1715 11.872 36.1715 11.368C36.1715 10.9667 36.0315 10.6447 35.7515 10.402C35.4808 10.1593 35.0188 9.968 34.3655 9.828L32.9655 9.534C31.2948 9.17933 30.4595 8.316 30.4595 6.944C30.4595 6.42133 30.5808 5.95467 30.8235 5.544C31.0755 5.124 31.4255 4.788 31.8735 4.536C32.3308 4.284 32.8628 4.13467 33.4695 4.088V2.898C33.4695 2.76733 33.5115 2.65533 33.5955 2.562C33.6888 2.46867 33.8055 2.422 33.9455 2.422C34.0761 2.422 34.1881 2.46867 34.2815 2.562C34.3748 2.65533 34.4215 2.76733 34.4215 2.898V4.088C34.8415 4.12533 35.2755 4.23267 35.7235 4.41C36.1715 4.578 36.5588 4.81133 36.8855 5.11C37.0348 5.24067 37.0955 5.39467 37.0675 5.572C37.0488 5.74 36.9648 5.866 36.8155 5.95C36.6755 6.034 36.4981 6.006 36.2835 5.866C35.9661 5.614 35.6161 5.42267 35.2335 5.292C34.8601 5.152 34.4121 5.082 33.8895 5.082C33.1895 5.082 32.6295 5.25 32.2095 5.586C31.7988 5.922 31.5935 6.36533 31.5935 6.916C31.5935 7.34533 31.7241 7.69067 31.9855 7.952C32.2468 8.204 32.6715 8.39067 33.2595 8.512L34.6735 8.82C35.5881 9.016 36.2601 9.31467 36.6895 9.716C37.1188 10.1173 37.3335 10.6493 37.3335 11.312C37.3335 12.0773 37.0628 12.7027 36.5215 13.188C35.9801 13.664 35.2801 13.9487 34.4215 14.042V15.232C34.4215 15.3627 34.3748 15.4747 34.2815 15.568C34.1975 15.6613 34.0855 15.708 33.9455 15.708Z" fill="white"/>
<path d="M125.2 338.126C124.071 338.126 123.212 337.692 122.624 336.824C122.036 335.956 121.742 334.701 121.742 333.058C121.742 331.406 122.036 330.151 122.624 329.292C123.212 328.433 124.071 328.004 125.2 328.004C126.339 328.004 127.197 328.433 127.776 329.292C128.364 330.141 128.658 331.392 128.658 333.044C128.658 334.696 128.359 335.956 127.762 336.824C127.174 337.692 126.32 338.126 125.2 338.126ZM125.2 337.132C125.984 337.132 126.563 336.801 126.936 336.138C127.319 335.466 127.51 334.435 127.51 333.044C127.51 331.644 127.323 330.622 126.95 329.978C126.577 329.325 125.993 328.998 125.2 328.998C124.416 328.998 123.833 329.325 123.45 329.978C123.077 330.631 122.89 331.653 122.89 333.044C122.89 334.435 123.077 335.466 123.45 336.138C123.833 336.801 124.416 337.132 125.2 337.132ZM131.005 338.056C130.771 338.056 130.585 337.986 130.445 337.846C130.305 337.697 130.235 337.51 130.235 337.286C130.235 337.062 130.305 336.88 130.445 336.74C130.585 336.591 130.771 336.516 131.005 336.516C131.238 336.516 131.42 336.591 131.551 336.74C131.691 336.88 131.761 337.062 131.761 337.286C131.761 337.51 131.691 337.697 131.551 337.846C131.42 337.986 131.238 338.056 131.005 338.056ZM134.386 338C134.171 338 134.017 337.953 133.924 337.86C133.831 337.757 133.784 337.622 133.784 337.454C133.784 337.258 133.882 337.057 134.078 336.852L137.214 333.492C137.69 332.979 138.031 332.507 138.236 332.078C138.451 331.639 138.558 331.196 138.558 330.748C138.558 329.6 137.891 329.026 136.556 329.026C135.725 329.026 134.969 329.292 134.288 329.824C134.139 329.936 134.003 329.978 133.882 329.95C133.761 329.913 133.667 329.838 133.602 329.726C133.546 329.614 133.523 329.493 133.532 329.362C133.551 329.222 133.63 329.101 133.77 328.998C134.134 328.699 134.573 328.461 135.086 328.284C135.599 328.097 136.122 328.004 136.654 328.004C137.643 328.004 138.399 328.237 138.922 328.704C139.454 329.161 139.72 329.815 139.72 330.664C139.72 331.252 139.575 331.831 139.286 332.4C139.006 332.96 138.563 333.557 137.956 334.192L135.296 337.02H139.692C140.047 337.02 140.224 337.179 140.224 337.496C140.224 337.832 140.047 338 139.692 338H134.386ZM145.175 338.126C144.045 338.126 143.187 337.692 142.599 336.824C142.011 335.956 141.717 334.701 141.717 333.058C141.717 331.406 142.011 330.151 142.599 329.292C143.187 328.433 144.045 328.004 145.175 328.004C146.313 328.004 147.172 328.433 147.751 329.292C148.339 330.141 148.633 331.392 148.633 333.044C148.633 334.696 148.334 335.956 147.737 336.824C147.149 337.692 146.295 338.126 145.175 338.126ZM145.175 337.132C145.959 337.132 146.537 336.801 146.911 336.138C147.293 335.466 147.485 334.435 147.485 333.044C147.485 331.644 147.298 330.622 146.925 329.978C146.551 329.325 145.968 328.998 145.175 328.998C144.391 328.998 143.807 329.325 143.425 329.978C143.051 330.631 142.865 331.653 142.865 333.044C142.865 334.435 143.051 335.466 143.425 336.138C143.807 336.801 144.391 337.132 145.175 337.132ZM153.569 338.014C153.485 338.163 153.382 338.252 153.261 338.28C153.14 338.308 153.023 338.289 152.911 338.224C152.808 338.168 152.738 338.079 152.701 337.958C152.664 337.837 152.687 337.701 152.771 337.552L158.175 328.144C158.259 327.995 158.362 327.906 158.483 327.878C158.604 327.85 158.716 327.869 158.819 327.934C158.922 327.99 158.992 328.079 159.029 328.2C159.076 328.321 159.057 328.457 158.973 328.606L153.569 338.014ZM152.533 334.052C151.786 334.052 151.203 333.786 150.783 333.254C150.363 332.722 150.153 331.98 150.153 331.028C150.153 330.076 150.363 329.339 150.783 328.816C151.203 328.284 151.786 328.018 152.533 328.018C153.27 328.018 153.849 328.284 154.269 328.816C154.698 329.339 154.913 330.076 154.913 331.028C154.913 331.98 154.698 332.722 154.269 333.254C153.849 333.786 153.27 334.052 152.533 334.052ZM152.533 333.226C152.962 333.226 153.303 333.044 153.555 332.68C153.807 332.307 153.933 331.756 153.933 331.028C153.933 330.3 153.807 329.754 153.555 329.39C153.303 329.026 152.962 328.844 152.533 328.844C152.094 328.844 151.749 329.026 151.497 329.39C151.254 329.754 151.133 330.3 151.133 331.028C151.133 331.756 151.254 332.307 151.497 332.68C151.749 333.044 152.094 333.226 152.533 333.226ZM159.225 338.126C158.488 338.126 157.904 337.86 157.475 337.328C157.055 336.796 156.845 336.054 156.845 335.102C156.845 334.159 157.055 333.422 157.475 332.89C157.904 332.358 158.488 332.092 159.225 332.092C159.972 332.092 160.555 332.358 160.975 332.89C161.395 333.422 161.605 334.159 161.605 335.102C161.605 336.054 161.395 336.796 160.975 337.328C160.555 337.86 159.972 338.126 159.225 338.126ZM159.225 337.3C159.664 337.3 160.004 337.118 160.247 336.754C160.499 336.381 160.625 335.83 160.625 335.102C160.625 334.374 160.499 333.828 160.247 333.464C160.004 333.1 159.664 332.918 159.225 332.918C158.796 332.918 158.455 333.1 158.203 333.464C157.96 333.828 157.839 334.374 157.839 335.102C157.839 335.839 157.96 336.39 158.203 336.754C158.455 337.118 158.796 337.3 159.225 337.3Z" fill="white"/>
<path d="M227.2 338.126C226.071 338.126 225.212 337.692 224.624 336.824C224.036 335.956 223.742 334.701 223.742 333.058C223.742 331.406 224.036 330.151 224.624 329.292C225.212 328.433 226.071 328.004 227.2 328.004C228.339 328.004 229.197 328.433 229.776 329.292C230.364 330.141 230.658 331.392 230.658 333.044C230.658 334.696 230.359 335.956 229.762 336.824C229.174 337.692 228.32 338.126 227.2 338.126ZM227.2 337.132C227.984 337.132 228.563 336.801 228.936 336.138C229.319 335.466 229.51 334.435 229.51 333.044C229.51 331.644 229.323 330.622 228.95 329.978C228.577 329.325 227.993 328.998 227.2 328.998C226.416 328.998 225.833 329.325 225.45 329.978C225.077 330.631 224.89 331.653 224.89 333.044C224.89 334.435 225.077 335.466 225.45 336.138C225.833 336.801 226.416 337.132 227.2 337.132ZM233.005 338.056C232.771 338.056 232.585 337.986 232.445 337.846C232.305 337.697 232.235 337.51 232.235 337.286C232.235 337.062 232.305 336.88 232.445 336.74C232.585 336.591 232.771 336.516 233.005 336.516C233.238 336.516 233.42 336.591 233.551 336.74C233.691 336.88 233.761 337.062 233.761 337.286C233.761 337.51 233.691 337.697 233.551 337.846C233.42 337.986 233.238 338.056 233.005 338.056ZM236.75 338C236.395 338 236.218 337.832 236.218 337.496C236.218 337.179 236.395 337.02 236.75 337.02H238.57V329.474L237.142 330.426C236.993 330.519 236.853 330.547 236.722 330.51C236.601 330.463 236.507 330.384 236.442 330.272C236.377 330.16 236.353 330.039 236.372 329.908C236.4 329.777 236.489 329.661 236.638 329.558L238.57 328.284C238.691 328.209 238.808 328.149 238.92 328.102C239.032 328.055 239.144 328.032 239.256 328.032C239.387 328.032 239.494 328.074 239.578 328.158C239.671 328.233 239.718 328.354 239.718 328.522V337.02H241.398C241.753 337.02 241.93 337.179 241.93 337.496C241.93 337.832 241.753 338 241.398 338H236.75ZM246.489 338.126C246.059 338.126 245.616 338.042 245.159 337.874C244.711 337.706 244.314 337.463 243.969 337.146C243.847 337.053 243.777 336.941 243.759 336.81C243.749 336.67 243.777 336.549 243.843 336.446C243.908 336.334 243.997 336.264 244.109 336.236C244.23 336.199 244.365 336.231 244.515 336.334C244.832 336.605 245.159 336.801 245.495 336.922C245.831 337.043 246.171 337.104 246.517 337.104C247.431 337.104 248.131 336.763 248.617 336.082C249.111 335.401 249.359 334.388 249.359 333.044V332.358C249.181 332.974 248.85 333.455 248.365 333.8C247.889 334.145 247.324 334.318 246.671 334.318C246.092 334.318 245.579 334.187 245.131 333.926C244.683 333.655 244.333 333.287 244.081 332.82C243.829 332.353 243.703 331.817 243.703 331.21C243.703 330.585 243.833 330.034 244.095 329.558C244.365 329.073 244.734 328.695 245.201 328.424C245.677 328.144 246.223 328.004 246.839 328.004C248.005 328.004 248.901 328.429 249.527 329.278C250.161 330.118 250.479 331.299 250.479 332.82C250.479 334.528 250.129 335.839 249.429 336.754C248.729 337.669 247.749 338.126 246.489 338.126ZM246.909 333.352C247.534 333.352 248.043 333.151 248.435 332.75C248.827 332.339 249.023 331.807 249.023 331.154C249.023 330.51 248.827 329.987 248.435 329.586C248.043 329.175 247.534 328.97 246.909 328.97C246.293 328.97 245.789 329.175 245.397 329.586C245.005 329.987 244.809 330.51 244.809 331.154C244.809 331.807 245.005 332.339 245.397 332.75C245.789 333.151 246.293 333.352 246.909 333.352ZM255.569 338.014C255.485 338.163 255.382 338.252 255.261 338.28C255.14 338.308 255.023 338.289 254.911 338.224C254.808 338.168 254.738 338.079 254.701 337.958C254.664 337.837 254.687 337.701 254.771 337.552L260.175 328.144C260.259 327.995 260.362 327.906 260.483 327.878C260.604 327.85 260.716 327.869 260.819 327.934C260.922 327.99 260.992 328.079 261.029 328.2C261.076 328.321 261.057 328.457 260.973 328.606L255.569 338.014ZM254.533 334.052C253.786 334.052 253.203 333.786 252.783 333.254C252.363 332.722 252.153 331.98 252.153 331.028C252.153 330.076 252.363 329.339 252.783 328.816C253.203 328.284 253.786 328.018 254.533 328.018C255.27 328.018 255.849 328.284 256.269 328.816C256.698 329.339 256.913 330.076 256.913 331.028C256.913 331.98 256.698 332.722 256.269 333.254C255.849 333.786 255.27 334.052 254.533 334.052ZM254.533 333.226C254.962 333.226 255.303 333.044 255.555 332.68C255.807 332.307 255.933 331.756 255.933 331.028C255.933 330.3 255.807 329.754 255.555 329.39C255.303 329.026 254.962 328.844 254.533 328.844C254.094 328.844 253.749 329.026 253.497 329.39C253.254 329.754 253.133 330.3 253.133 331.028C253.133 331.756 253.254 332.307 253.497 332.68C253.749 333.044 254.094 333.226 254.533 333.226ZM261.225 338.126C260.488 338.126 259.904 337.86 259.475 337.328C259.055 336.796 258.845 336.054 258.845 335.102C258.845 334.159 259.055 333.422 259.475 332.89C259.904 332.358 260.488 332.092 261.225 332.092C261.972 332.092 262.555 332.358 262.975 332.89C263.395 333.422 263.605 334.159 263.605 335.102C263.605 336.054 263.395 336.796 262.975 337.328C262.555 337.86 261.972 338.126 261.225 338.126ZM261.225 337.3C261.664 337.3 262.004 337.118 262.247 336.754C262.499 336.381 262.625 335.83 262.625 335.102C262.625 334.374 262.499 333.828 262.247 333.464C262.004 333.1 261.664 332.918 261.225 332.918C260.796 332.918 260.455 333.1 260.203 333.464C259.96 333.828 259.839 334.374 259.839 335.102C259.839 335.839 259.96 336.39 260.203 336.754C260.455 337.118 260.796 337.3 261.225 337.3Z" fill="white"/>
<path d="M329.2 338.126C328.071 338.126 327.212 337.692 326.624 336.824C326.036 335.956 325.742 334.701 325.742 333.058C325.742 331.406 326.036 330.151 326.624 329.292C327.212 328.433 328.071 328.004 329.2 328.004C330.339 328.004 331.197 328.433 331.776 329.292C332.364 330.141 332.658 331.392 332.658 333.044C332.658 334.696 332.359 335.956 331.762 336.824C331.174 337.692 330.32 338.126 329.2 338.126ZM329.2 337.132C329.984 337.132 330.563 336.801 330.936 336.138C331.319 335.466 331.51 334.435 331.51 333.044C331.51 331.644 331.323 330.622 330.95 329.978C330.577 329.325 329.993 328.998 329.2 328.998C328.416 328.998 327.833 329.325 327.45 329.978C327.077 330.631 326.89 331.653 326.89 333.044C326.89 334.435 327.077 335.466 327.45 336.138C327.833 336.801 328.416 337.132 329.2 337.132ZM335.005 338.056C334.771 338.056 334.585 337.986 334.445 337.846C334.305 337.697 334.235 337.51 334.235 337.286C334.235 337.062 334.305 336.88 334.445 336.74C334.585 336.591 334.771 336.516 335.005 336.516C335.238 336.516 335.42 336.591 335.551 336.74C335.691 336.88 335.761 337.062 335.761 337.286C335.761 337.51 335.691 337.697 335.551 337.846C335.42 337.986 335.238 338.056 335.005 338.056ZM338.75 338C338.395 338 338.218 337.832 338.218 337.496C338.218 337.179 338.395 337.02 338.75 337.02H340.57V329.474L339.142 330.426C338.993 330.519 338.853 330.547 338.722 330.51C338.601 330.463 338.507 330.384 338.442 330.272C338.377 330.16 338.353 330.039 338.372 329.908C338.4 329.777 338.489 329.661 338.638 329.558L340.57 328.284C340.691 328.209 340.808 328.149 340.92 328.102C341.032 328.055 341.144 328.032 341.256 328.032C341.387 328.032 341.494 328.074 341.578 328.158C341.671 328.233 341.718 328.354 341.718 328.522V337.02H343.398C343.753 337.02 343.93 337.179 343.93 337.496C343.93 337.832 343.753 338 343.398 338H338.75ZM349.175 338.126C348.064 338.126 347.201 337.888 346.585 337.412C345.969 336.927 345.661 336.25 345.661 335.382C345.661 334.775 345.824 334.257 346.151 333.828C346.487 333.399 346.93 333.105 347.481 332.946C346.986 332.759 346.599 332.461 346.319 332.05C346.039 331.639 345.899 331.168 345.899 330.636C345.899 329.805 346.193 329.161 346.781 328.704C347.378 328.237 348.176 328.004 349.175 328.004C350.173 328.004 350.971 328.237 351.569 328.704C352.166 329.161 352.465 329.805 352.465 330.636C352.465 331.168 352.32 331.644 352.031 332.064C351.751 332.475 351.368 332.769 350.883 332.946C351.433 333.105 351.872 333.399 352.199 333.828C352.525 334.257 352.689 334.775 352.689 335.382C352.689 336.25 352.381 336.927 351.765 337.412C351.149 337.888 350.285 338.126 349.175 338.126ZM349.175 332.526C349.856 332.526 350.388 332.367 350.771 332.05C351.163 331.723 351.359 331.285 351.359 330.734C351.359 330.174 351.163 329.74 350.771 329.432C350.388 329.115 349.856 328.956 349.175 328.956C348.493 328.956 347.961 329.115 347.579 329.432C347.196 329.74 347.005 330.174 347.005 330.734C347.005 331.285 347.196 331.723 347.579 332.05C347.961 332.367 348.493 332.526 349.175 332.526ZM349.175 337.174C350.78 337.174 351.583 336.553 351.583 335.312C351.583 334.089 350.78 333.478 349.175 333.478C347.569 333.478 346.767 334.089 346.767 335.312C346.767 336.553 347.569 337.174 349.175 337.174ZM357.569 338.014C357.485 338.163 357.382 338.252 357.261 338.28C357.14 338.308 357.023 338.289 356.911 338.224C356.808 338.168 356.738 338.079 356.701 337.958C356.664 337.837 356.687 337.701 356.771 337.552L362.175 328.144C362.259 327.995 362.362 327.906 362.483 327.878C362.604 327.85 362.716 327.869 362.819 327.934C362.922 327.99 362.992 328.079 363.029 328.2C363.076 328.321 363.057 328.457 362.973 328.606L357.569 338.014ZM356.533 334.052C355.786 334.052 355.203 333.786 354.783 333.254C354.363 332.722 354.153 331.98 354.153 331.028C354.153 330.076 354.363 329.339 354.783 328.816C355.203 328.284 355.786 328.018 356.533 328.018C357.27 328.018 357.849 328.284 358.269 328.816C358.698 329.339 358.913 330.076 358.913 331.028C358.913 331.98 358.698 332.722 358.269 333.254C357.849 333.786 357.27 334.052 356.533 334.052ZM356.533 333.226C356.962 333.226 357.303 333.044 357.555 332.68C357.807 332.307 357.933 331.756 357.933 331.028C357.933 330.3 357.807 329.754 357.555 329.39C357.303 329.026 356.962 328.844 356.533 328.844C356.094 328.844 355.749 329.026 355.497 329.39C355.254 329.754 355.133 330.3 355.133 331.028C355.133 331.756 355.254 332.307 355.497 332.68C355.749 333.044 356.094 333.226 356.533 333.226ZM363.225 338.126C362.488 338.126 361.904 337.86 361.475 337.328C361.055 336.796 360.845 336.054 360.845 335.102C360.845 334.159 361.055 333.422 361.475 332.89C361.904 332.358 362.488 332.092 363.225 332.092C363.972 332.092 364.555 332.358 364.975 332.89C365.395 333.422 365.605 334.159 365.605 335.102C365.605 336.054 365.395 336.796 364.975 337.328C364.555 337.86 363.972 338.126 363.225 338.126ZM363.225 337.3C363.664 337.3 364.004 337.118 364.247 336.754C364.499 336.381 364.625 335.83 364.625 335.102C364.625 334.374 364.499 333.828 364.247 333.464C364.004 333.1 363.664 332.918 363.225 332.918C362.796 332.918 362.455 333.1 362.203 333.464C361.96 333.828 361.839 334.374 361.839 335.102C361.839 335.839 361.96 336.39 362.203 336.754C362.455 337.118 362.796 337.3 363.225 337.3Z" fill="white"/>
<path d="M430.2 338.126C429.071 338.126 428.212 337.692 427.624 336.824C427.036 335.956 426.742 334.701 426.742 333.058C426.742 331.406 427.036 330.151 427.624 329.292C428.212 328.433 429.071 328.004 430.2 328.004C431.339 328.004 432.197 328.433 432.776 329.292C433.364 330.141 433.658 331.392 433.658 333.044C433.658 334.696 433.359 335.956 432.762 336.824C432.174 337.692 431.32 338.126 430.2 338.126ZM430.2 337.132C430.984 337.132 431.563 336.801 431.936 336.138C432.319 335.466 432.51 334.435 432.51 333.044C432.51 331.644 432.323 330.622 431.95 329.978C431.577 329.325 430.993 328.998 430.2 328.998C429.416 328.998 428.833 329.325 428.45 329.978C428.077 330.631 427.89 331.653 427.89 333.044C427.89 334.435 428.077 335.466 428.45 336.138C428.833 336.801 429.416 337.132 430.2 337.132ZM436.005 338.056C435.771 338.056 435.585 337.986 435.445 337.846C435.305 337.697 435.235 337.51 435.235 337.286C435.235 337.062 435.305 336.88 435.445 336.74C435.585 336.591 435.771 336.516 436.005 336.516C436.238 336.516 436.42 336.591 436.551 336.74C436.691 336.88 436.761 337.062 436.761 337.286C436.761 337.51 436.691 337.697 436.551 337.846C436.42 337.986 436.238 338.056 436.005 338.056ZM439.75 338C439.395 338 439.218 337.832 439.218 337.496C439.218 337.179 439.395 337.02 439.75 337.02H441.57V329.474L440.142 330.426C439.993 330.519 439.853 330.547 439.722 330.51C439.601 330.463 439.507 330.384 439.442 330.272C439.377 330.16 439.353 330.039 439.372 329.908C439.4 329.777 439.489 329.661 439.638 329.558L441.57 328.284C441.691 328.209 441.808 328.149 441.92 328.102C442.032 328.055 442.144 328.032 442.256 328.032C442.387 328.032 442.494 328.074 442.578 328.158C442.671 328.233 442.718 328.354 442.718 328.522V337.02H444.398C444.753 337.02 444.93 337.179 444.93 337.496C444.93 337.832 444.753 338 444.398 338H439.75ZM448.327 338.098C448.121 338.098 447.967 338.028 447.865 337.888C447.771 337.739 447.781 337.557 447.893 337.342L452.135 329.124H447.347C446.992 329.124 446.815 328.956 446.815 328.62C446.815 328.293 446.992 328.13 447.347 328.13H452.905C453.073 328.13 453.208 328.177 453.311 328.27C453.413 328.354 453.465 328.471 453.465 328.62C453.465 328.76 453.446 328.881 453.409 328.984C453.381 329.077 453.339 329.18 453.283 329.292L448.971 337.706C448.84 337.967 448.625 338.098 448.327 338.098ZM458.569 338.014C458.485 338.163 458.382 338.252 458.261 338.28C458.14 338.308 458.023 338.289 457.911 338.224C457.808 338.168 457.738 338.079 457.701 337.958C457.664 337.837 457.687 337.701 457.771 337.552L463.175 328.144C463.259 327.995 463.362 327.906 463.483 327.878C463.604 327.85 463.716 327.869 463.819 327.934C463.922 327.99 463.992 328.079 464.029 328.2C464.076 328.321 464.057 328.457 463.973 328.606L458.569 338.014ZM457.533 334.052C456.786 334.052 456.203 333.786 455.783 333.254C455.363 332.722 455.153 331.98 455.153 331.028C455.153 330.076 455.363 329.339 455.783 328.816C456.203 328.284 456.786 328.018 457.533 328.018C458.27 328.018 458.849 328.284 459.269 328.816C459.698 329.339 459.913 330.076 459.913 331.028C459.913 331.98 459.698 332.722 459.269 333.254C458.849 333.786 458.27 334.052 457.533 334.052ZM457.533 333.226C457.962 333.226 458.303 333.044 458.555 332.68C458.807 332.307 458.933 331.756 458.933 331.028C458.933 330.3 458.807 329.754 458.555 329.39C458.303 329.026 457.962 328.844 457.533 328.844C457.094 328.844 456.749 329.026 456.497 329.39C456.254 329.754 456.133 330.3 456.133 331.028C456.133 331.756 456.254 332.307 456.497 332.68C456.749 333.044 457.094 333.226 457.533 333.226ZM464.225 338.126C463.488 338.126 462.904 337.86 462.475 337.328C462.055 336.796 461.845 336.054 461.845 335.102C461.845 334.159 462.055 333.422 462.475 332.89C462.904 332.358 463.488 332.092 464.225 332.092C464.972 332.092 465.555 332.358 465.975 332.89C466.395 333.422 466.605 334.159 466.605 335.102C466.605 336.054 466.395 336.796 465.975 337.328C465.555 337.86 464.972 338.126 464.225 338.126ZM464.225 337.3C464.664 337.3 465.004 337.118 465.247 336.754C465.499 336.381 465.625 335.83 465.625 335.102C465.625 334.374 465.499 333.828 465.247 333.464C465.004 333.1 464.664 332.918 464.225 332.918C463.796 332.918 463.455 333.1 463.203 333.464C462.96 333.828 462.839 334.374 462.839 335.102C462.839 335.839 462.96 336.39 463.203 336.754C463.455 337.118 463.796 337.3 464.225 337.3Z" fill="white"/>
<path d="M532.2 338.126C531.071 338.126 530.212 337.692 529.624 336.824C529.036 335.956 528.742 334.701 528.742 333.058C528.742 331.406 529.036 330.151 529.624 329.292C530.212 328.433 531.071 328.004 532.2 328.004C533.339 328.004 534.197 328.433 534.776 329.292C535.364 330.141 535.658 331.392 535.658 333.044C535.658 334.696 535.359 335.956 534.762 336.824C534.174 337.692 533.32 338.126 532.2 338.126ZM532.2 337.132C532.984 337.132 533.563 336.801 533.936 336.138C534.319 335.466 534.51 334.435 534.51 333.044C534.51 331.644 534.323 330.622 533.95 329.978C533.577 329.325 532.993 328.998 532.2 328.998C531.416 328.998 530.833 329.325 530.45 329.978C530.077 330.631 529.89 331.653 529.89 333.044C529.89 334.435 530.077 335.466 530.45 336.138C530.833 336.801 531.416 337.132 532.2 337.132ZM538.005 338.056C537.771 338.056 537.585 337.986 537.445 337.846C537.305 337.697 537.235 337.51 537.235 337.286C537.235 337.062 537.305 336.88 537.445 336.74C537.585 336.591 537.771 336.516 538.005 336.516C538.238 336.516 538.42 336.591 538.551 336.74C538.691 336.88 538.761 337.062 538.761 337.286C538.761 337.51 538.691 337.697 538.551 337.846C538.42 337.986 538.238 338.056 538.005 338.056ZM541.75 338C541.395 338 541.218 337.832 541.218 337.496C541.218 337.179 541.395 337.02 541.75 337.02H543.57V329.474L542.142 330.426C541.993 330.519 541.853 330.547 541.722 330.51C541.601 330.463 541.507 330.384 541.442 330.272C541.377 330.16 541.353 330.039 541.372 329.908C541.4 329.777 541.489 329.661 541.638 329.558L543.57 328.284C543.691 328.209 543.808 328.149 543.92 328.102C544.032 328.055 544.144 328.032 544.256 328.032C544.387 328.032 544.494 328.074 544.578 328.158C544.671 328.233 544.718 328.354 544.718 328.522V337.02H546.398C546.753 337.02 546.93 337.179 546.93 337.496C546.93 337.832 546.753 338 546.398 338H541.75ZM552.511 338.126C551.344 338.126 550.443 337.706 549.809 336.866C549.183 336.017 548.871 334.831 548.871 333.31C548.871 331.602 549.221 330.291 549.921 329.376C550.621 328.461 551.601 328.004 552.861 328.004C553.29 328.004 553.729 328.088 554.177 328.256C554.634 328.424 555.035 328.662 555.381 328.97C555.502 329.073 555.567 329.189 555.577 329.32C555.595 329.451 555.572 329.572 555.507 329.684C555.441 329.796 555.348 329.871 555.227 329.908C555.115 329.936 554.984 329.894 554.835 329.782C554.517 329.511 554.191 329.32 553.855 329.208C553.519 329.087 553.178 329.026 552.833 329.026C551.918 329.026 551.213 329.367 550.719 330.048C550.233 330.729 549.991 331.742 549.991 333.086V333.772C550.168 333.156 550.495 332.675 550.971 332.33C551.456 331.985 552.025 331.812 552.679 331.812C553.257 331.812 553.771 331.947 554.219 332.218C554.667 332.479 555.017 332.843 555.269 333.31C555.521 333.777 555.647 334.313 555.647 334.92C555.647 335.545 555.511 336.101 555.241 336.586C554.979 337.062 554.611 337.44 554.135 337.72C553.668 337.991 553.127 338.126 552.511 338.126ZM552.441 337.146C553.066 337.146 553.57 336.945 553.953 336.544C554.345 336.143 554.541 335.615 554.541 334.962C554.541 334.318 554.345 333.795 553.953 333.394C553.57 332.983 553.066 332.778 552.441 332.778C551.815 332.778 551.307 332.983 550.915 333.394C550.532 333.795 550.341 334.318 550.341 334.962C550.341 335.615 550.532 336.143 550.915 336.544C551.307 336.945 551.815 337.146 552.441 337.146ZM560.569 338.014C560.485 338.163 560.382 338.252 560.261 338.28C560.14 338.308 560.023 338.289 559.911 338.224C559.808 338.168 559.738 338.079 559.701 337.958C559.664 337.837 559.687 337.701 559.771 337.552L565.175 328.144C565.259 327.995 565.362 327.906 565.483 327.878C565.604 327.85 565.716 327.869 565.819 327.934C565.922 327.99 565.992 328.079 566.029 328.2C566.076 328.321 566.057 328.457 565.973 328.606L560.569 338.014ZM559.533 334.052C558.786 334.052 558.203 333.786 557.783 333.254C557.363 332.722 557.153 331.98 557.153 331.028C557.153 330.076 557.363 329.339 557.783 328.816C558.203 328.284 558.786 328.018 559.533 328.018C560.27 328.018 560.849 328.284 561.269 328.816C561.698 329.339 561.913 330.076 561.913 331.028C561.913 331.98 561.698 332.722 561.269 333.254C560.849 333.786 560.27 334.052 559.533 334.052ZM559.533 333.226C559.962 333.226 560.303 333.044 560.555 332.68C560.807 332.307 560.933 331.756 560.933 331.028C560.933 330.3 560.807 329.754 560.555 329.39C560.303 329.026 559.962 328.844 559.533 328.844C559.094 328.844 558.749 329.026 558.497 329.39C558.254 329.754 558.133 330.3 558.133 331.028C558.133 331.756 558.254 332.307 558.497 332.68C558.749 333.044 559.094 333.226 559.533 333.226ZM566.225 338.126C565.488 338.126 564.904 337.86 564.475 337.328C564.055 336.796 563.845 336.054 563.845 335.102C563.845 334.159 564.055 333.422 564.475 332.89C564.904 332.358 565.488 332.092 566.225 332.092C566.972 332.092 567.555 332.358 567.975 332.89C568.395 333.422 568.605 334.159 568.605 335.102C568.605 336.054 568.395 336.796 567.975 337.328C567.555 337.86 566.972 338.126 566.225 338.126ZM566.225 337.3C566.664 337.3 567.004 337.118 567.247 336.754C567.499 336.381 567.625 335.83 567.625 335.102C567.625 334.374 567.499 333.828 567.247 333.464C567.004 333.1 566.664 332.918 566.225 332.918C565.796 332.918 565.455 333.1 565.203 333.464C564.96 333.828 564.839 334.374 564.839 335.102C564.839 335.839 564.96 336.39 565.203 336.754C565.455 337.118 565.796 337.3 566.225 337.3Z" fill="white"/>
<path d="M634.2 338.126C633.071 338.126 632.212 337.692 631.624 336.824C631.036 335.956 630.742 334.701 630.742 333.058C630.742 331.406 631.036 330.151 631.624 329.292C632.212 328.433 633.071 328.004 634.2 328.004C635.339 328.004 636.197 328.433 636.776 329.292C637.364 330.141 637.658 331.392 637.658 333.044C637.658 334.696 637.359 335.956 636.762 336.824C636.174 337.692 635.32 338.126 634.2 338.126ZM634.2 337.132C634.984 337.132 635.563 336.801 635.936 336.138C636.319 335.466 636.51 334.435 636.51 333.044C636.51 331.644 636.323 330.622 635.95 329.978C635.577 329.325 634.993 328.998 634.2 328.998C633.416 328.998 632.833 329.325 632.45 329.978C632.077 330.631 631.89 331.653 631.89 333.044C631.89 334.435 632.077 335.466 632.45 336.138C632.833 336.801 633.416 337.132 634.2 337.132ZM640.005 338.056C639.771 338.056 639.585 337.986 639.445 337.846C639.305 337.697 639.235 337.51 639.235 337.286C639.235 337.062 639.305 336.88 639.445 336.74C639.585 336.591 639.771 336.516 640.005 336.516C640.238 336.516 640.42 336.591 640.551 336.74C640.691 336.88 640.761 337.062 640.761 337.286C640.761 337.51 640.691 337.697 640.551 337.846C640.42 337.986 640.238 338.056 640.005 338.056ZM643.75 338C643.395 338 643.218 337.832 643.218 337.496C643.218 337.179 643.395 337.02 643.75 337.02H645.57V329.474L644.142 330.426C643.993 330.519 643.853 330.547 643.722 330.51C643.601 330.463 643.507 330.384 643.442 330.272C643.377 330.16 643.353 330.039 643.372 329.908C643.4 329.777 643.489 329.661 643.638 329.558L645.57 328.284C645.691 328.209 645.808 328.149 645.92 328.102C646.032 328.055 646.144 328.032 646.256 328.032C646.387 328.032 646.494 328.074 646.578 328.158C646.671 328.233 646.718 328.354 646.718 328.522V337.02H648.398C648.753 337.02 648.93 337.179 648.93 337.496C648.93 337.832 648.753 338 648.398 338H643.75ZM654.385 338.126C653.843 338.126 653.307 338.047 652.775 337.888C652.252 337.729 651.781 337.482 651.361 337.146C651.221 337.053 651.137 336.941 651.109 336.81C651.09 336.67 651.113 336.544 651.179 336.432C651.244 336.32 651.337 336.245 651.459 336.208C651.589 336.171 651.734 336.203 651.893 336.306C652.63 336.838 653.456 337.104 654.371 337.104C655.052 337.104 655.589 336.913 655.981 336.53C656.373 336.147 656.569 335.643 656.569 335.018C656.569 334.374 656.382 333.847 656.009 333.436C655.635 333.025 655.122 332.82 654.469 332.82C654.067 332.82 653.694 332.895 653.349 333.044C653.013 333.193 652.709 333.431 652.439 333.758C652.373 333.833 652.294 333.898 652.201 333.954C652.117 334.001 652.019 334.024 651.907 334.024C651.571 334.024 651.403 333.861 651.403 333.534V328.662C651.403 328.307 651.58 328.13 651.935 328.13H656.695C657.049 328.13 657.227 328.293 657.227 328.62C657.227 328.947 657.049 329.11 656.695 329.11H652.537V332.638C653.078 332.097 653.792 331.826 654.679 331.826C655.295 331.826 655.831 331.957 656.289 332.218C656.746 332.479 657.096 332.848 657.339 333.324C657.591 333.791 657.717 334.337 657.717 334.962C657.717 335.578 657.581 336.124 657.311 336.6C657.04 337.076 656.653 337.449 656.149 337.72C655.654 337.991 655.066 338.126 654.385 338.126ZM662.569 338.014C662.485 338.163 662.382 338.252 662.261 338.28C662.14 338.308 662.023 338.289 661.911 338.224C661.808 338.168 661.738 338.079 661.701 337.958C661.664 337.837 661.687 337.701 661.771 337.552L667.175 328.144C667.259 327.995 667.362 327.906 667.483 327.878C667.604 327.85 667.716 327.869 667.819 327.934C667.922 327.99 667.992 328.079 668.029 328.2C668.076 328.321 668.057 328.457 667.973 328.606L662.569 338.014ZM661.533 334.052C660.786 334.052 660.203 333.786 659.783 333.254C659.363 332.722 659.153 331.98 659.153 331.028C659.153 330.076 659.363 329.339 659.783 328.816C660.203 328.284 660.786 328.018 661.533 328.018C662.27 328.018 662.849 328.284 663.269 328.816C663.698 329.339 663.913 330.076 663.913 331.028C663.913 331.98 663.698 332.722 663.269 333.254C662.849 333.786 662.27 334.052 661.533 334.052ZM661.533 333.226C661.962 333.226 662.303 333.044 662.555 332.68C662.807 332.307 662.933 331.756 662.933 331.028C662.933 330.3 662.807 329.754 662.555 329.39C662.303 329.026 661.962 328.844 661.533 328.844C661.094 328.844 660.749 329.026 660.497 329.39C660.254 329.754 660.133 330.3 660.133 331.028C660.133 331.756 660.254 332.307 660.497 332.68C660.749 333.044 661.094 333.226 661.533 333.226ZM668.225 338.126C667.488 338.126 666.904 337.86 666.475 337.328C666.055 336.796 665.845 336.054 665.845 335.102C665.845 334.159 666.055 333.422 666.475 332.89C666.904 332.358 667.488 332.092 668.225 332.092C668.972 332.092 669.555 332.358 669.975 332.89C670.395 333.422 670.605 334.159 670.605 335.102C670.605 336.054 670.395 336.796 669.975 337.328C669.555 337.86 668.972 338.126 668.225 338.126ZM668.225 337.3C668.664 337.3 669.004 337.118 669.247 336.754C669.499 336.381 669.625 335.83 669.625 335.102C669.625 334.374 669.499 333.828 669.247 333.464C669.004 333.1 668.664 332.918 668.225 332.918C667.796 332.918 667.455 333.1 667.203 333.464C666.96 333.828 666.839 334.374 666.839 335.102C666.839 335.839 666.96 336.39 667.203 336.754C667.455 337.118 667.796 337.3 668.225 337.3Z" fill="white"/>
<path d="M58 14V302H1013" stroke="url(#paint0_linear_417_2595)" stroke-width="2" stroke-linecap="round"/>
<path d="M58.5 13.5L84.5 41.7549L129 61.5L206.5 72.7549L238.5 111.5L272 145.755L338.5 156.5L381.5 187.755L442.5 204.5L494 245.255L545 254.5L611.5 270.255L645 302" stroke="url(#paint1_linear_417_2595)" stroke-width="2" stroke-linecap="round"/>
<path opacity="0.4" d="M58 14H1015" stroke="url(#paint2_linear_417_2595)" stroke-linecap="round" stroke-dasharray="2 2"/>
<path opacity="0.4" d="M58 62H1015" stroke="url(#paint3_linear_417_2595)" stroke-linecap="round" stroke-dasharray="2 2"/>
<path opacity="0.4" d="M58 110H1016" stroke="url(#paint4_linear_417_2595)" stroke-linecap="round" stroke-dasharray="2 2"/>
<path opacity="0.4" d="M58 158H1016" stroke="url(#paint5_linear_417_2595)" stroke-linecap="round" stroke-dasharray="2 2"/>
<path opacity="0.4" d="M58 206H1015" stroke="url(#paint6_linear_417_2595)" stroke-linecap="round" stroke-dasharray="2 2"/>
<path opacity="0.4" d="M58 256H1015" stroke="url(#paint7_linear_417_2595)" stroke-linecap="round" stroke-dasharray="2 2"/>
<defs>
<linearGradient id="paint0_linear_417_2595" x1="1012.79" y1="285.635" x2="722.299" y2="-255.315" gradientUnits="userSpaceOnUse">
<stop stop-color="#D600E2"/>
<stop offset="1" stop-color="#B5E200"/>
</linearGradient>
<linearGradient id="paint1_linear_417_2595" x1="1005.15" y1="272.733" x2="770.001" y2="-184.769" gradientUnits="userSpaceOnUse">
<stop stop-color="#D600E2"/>
<stop offset="1" stop-color="#B5E200"/>
</linearGradient>
<linearGradient id="paint2_linear_417_2595" x1="1014.79" y1="14.9432" x2="1014.78" y2="12.5233" gradientUnits="userSpaceOnUse">
<stop stop-color="#D600E2"/>
<stop offset="1" stop-color="#B5E200"/>
</linearGradient>
<linearGradient id="paint3_linear_417_2595" x1="1014.79" y1="62.9432" x2="1014.78" y2="60.5233" gradientUnits="userSpaceOnUse">
<stop stop-color="#D600E2"/>
<stop offset="1" stop-color="#B5E200"/>
</linearGradient>
<linearGradient id="paint4_linear_417_2595" x1="1015.79" y1="110.943" x2="1015.78" y2="108.523" gradientUnits="userSpaceOnUse">
<stop stop-color="#D600E2"/>
<stop offset="1" stop-color="#B5E200"/>
</linearGradient>
<linearGradient id="paint5_linear_417_2595" x1="1015.79" y1="158.943" x2="1015.78" y2="156.523" gradientUnits="userSpaceOnUse">
<stop stop-color="#D600E2"/>
<stop offset="1" stop-color="#B5E200"/>
</linearGradient>
<linearGradient id="paint6_linear_417_2595" x1="1014.79" y1="206.943" x2="1014.78" y2="204.523" gradientUnits="userSpaceOnUse">
<stop stop-color="#D600E2"/>
<stop offset="1" stop-color="#B5E200"/>
</linearGradient>
<linearGradient id="paint7_linear_417_2595" x1="1014.79" y1="256.943" x2="1014.78" y2="254.523" gradientUnits="userSpaceOnUse">
<stop stop-color="#D600E2"/>
<stop offset="1" stop-color="#B5E200"/>
</linearGradient>
</defs>
</svg>
