<svg width="1017" height="343" viewBox="0 0 1017 343" fill="none" xmlns="http://www.w3.org/2000/svg">
<path d="M59.17 338.998C58.8153 338.998 58.638 338.83 58.638 338.494C58.638 338.177 58.8153 338.018 59.17 338.018H60.99V330.472L59.562 331.424C59.4127 331.517 59.2727 331.545 59.142 331.508C59.0207 331.461 58.9273 331.382 58.862 331.27C58.7967 331.158 58.7733 331.037 58.792 330.906C58.82 330.775 58.9087 330.659 59.058 330.556L60.99 329.282C61.1113 329.207 61.228 329.147 61.34 329.1C61.452 329.053 61.564 329.03 61.676 329.03C61.8067 329.03 61.914 329.072 61.998 329.156C62.0913 329.231 62.138 329.352 62.138 329.52V338.018H63.818C64.1727 338.018 64.35 338.177 64.35 338.494C64.35 338.83 64.1727 338.998 63.818 338.998H59.17ZM69.5945 339.124C68.4652 339.124 67.6065 338.69 67.0185 337.822C66.4305 336.954 66.1365 335.699 66.1365 334.056C66.1365 332.404 66.4305 331.149 67.0185 330.29C67.6065 329.431 68.4652 329.002 69.5945 329.002C70.7332 329.002 71.5919 329.431 72.1705 330.29C72.7585 331.139 73.0525 332.39 73.0525 334.042C73.0525 335.694 72.7539 336.954 72.1565 337.822C71.5685 338.69 70.7145 339.124 69.5945 339.124ZM69.5945 338.13C70.3785 338.13 70.9572 337.799 71.3305 337.136C71.7132 336.464 71.9045 335.433 71.9045 334.042C71.9045 332.642 71.7179 331.62 71.3445 330.976C70.9712 330.323 70.3879 329.996 69.5945 329.996C68.8105 329.996 68.2272 330.323 67.8445 330.976C67.4712 331.629 67.2845 332.651 67.2845 334.042C67.2845 335.433 67.4712 336.464 67.8445 337.136C68.2272 337.799 68.8105 338.13 69.5945 338.13ZM77.9891 339.124C76.8597 339.124 76.0011 338.69 75.4131 337.822C74.8251 336.954 74.5311 335.699 74.5311 334.056C74.5311 332.404 74.8251 331.149 75.4131 330.29C76.0011 329.431 76.8597 329.002 77.9891 329.002C79.1277 329.002 79.9864 329.431 80.5651 330.29C81.1531 331.139 81.4471 332.39 81.4471 334.042C81.4471 335.694 81.1484 336.954 80.5511 337.822C79.9631 338.69 79.1091 339.124 77.9891 339.124ZM77.9891 338.13C78.7731 338.13 79.3517 337.799 79.7251 337.136C80.1077 336.464 80.2991 335.433 80.2991 334.042C80.2991 332.642 80.1124 331.62 79.7391 330.976C79.3657 330.323 78.7824 329.996 77.9891 329.996C77.2051 329.996 76.6217 330.323 76.2391 330.976C75.8657 331.629 75.6791 332.651 75.6791 334.042C75.6791 335.433 75.8657 336.464 76.2391 337.136C76.6217 337.799 77.2051 338.13 77.9891 338.13ZM86.5236 340.706C86.3836 340.706 86.2669 340.659 86.1736 340.566C86.0896 340.473 86.0476 340.361 86.0476 340.23V339.054C85.4409 339.026 84.8903 338.928 84.3956 338.76C83.9009 338.592 83.4809 338.382 83.1356 338.13C82.9956 338.037 82.9116 337.92 82.8836 337.78C82.8649 337.64 82.8836 337.514 82.9396 337.402C82.9956 337.281 83.0843 337.201 83.2056 337.164C83.3269 337.117 83.4716 337.145 83.6396 337.248C83.9476 337.463 84.3209 337.649 84.7596 337.808C85.1983 337.967 85.7443 338.046 86.3976 338.046C87.2003 338.046 87.7929 337.892 88.1756 337.584C88.5583 337.276 88.7496 336.87 88.7496 336.366C88.7496 335.965 88.6096 335.643 88.3296 335.4C88.0589 335.157 87.5969 334.966 86.9436 334.826L85.5436 334.532C83.8729 334.177 83.0376 333.314 83.0376 331.942C83.0376 331.419 83.1589 330.953 83.4016 330.542C83.6536 330.122 84.0036 329.786 84.4516 329.534C84.9089 329.282 85.4409 329.133 86.0476 329.086V327.896C86.0476 327.765 86.0896 327.653 86.1736 327.56C86.2669 327.467 86.3836 327.42 86.5236 327.42C86.6543 327.42 86.7663 327.467 86.8596 327.56C86.9529 327.653 86.9996 327.765 86.9996 327.896V329.086C87.4196 329.123 87.8536 329.231 88.3016 329.408C88.7496 329.576 89.1369 329.809 89.4636 330.108C89.6129 330.239 89.6736 330.393 89.6456 330.57C89.6269 330.738 89.5429 330.864 89.3936 330.948C89.2536 331.032 89.0763 331.004 88.8616 330.864C88.5443 330.612 88.1943 330.421 87.8116 330.29C87.4383 330.15 86.9903 330.08 86.4676 330.08C85.7676 330.08 85.2076 330.248 84.7876 330.584C84.3769 330.92 84.1716 331.363 84.1716 331.914C84.1716 332.343 84.3023 332.689 84.5636 332.95C84.8249 333.202 85.2496 333.389 85.8376 333.51L87.2516 333.818C88.1663 334.014 88.8383 334.313 89.2676 334.714C89.6969 335.115 89.9116 335.647 89.9116 336.31C89.9116 337.075 89.6409 337.701 89.0996 338.186C88.5583 338.662 87.8583 338.947 86.9996 339.04V340.23C86.9996 340.361 86.9529 340.473 86.8596 340.566C86.7756 340.659 86.6636 340.706 86.5236 340.706Z" fill="white"/>
<path d="M33.8055 303.124C32.6761 303.124 31.8175 302.69 31.2295 301.822C30.6415 300.954 30.3475 299.699 30.3475 298.056C30.3475 296.404 30.6415 295.149 31.2295 294.29C31.8175 293.431 32.6761 293.002 33.8055 293.002C34.9441 293.002 35.8028 293.431 36.3815 294.29C36.9695 295.139 37.2635 296.39 37.2635 298.042C37.2635 299.694 36.9648 300.954 36.3675 301.822C35.7795 302.69 34.9255 303.124 33.8055 303.124ZM33.8055 302.13C34.5895 302.13 35.1681 301.799 35.5415 301.136C35.9241 300.464 36.1155 299.433 36.1155 298.042C36.1155 296.642 35.9288 295.62 35.5555 294.976C35.1821 294.323 34.5988 293.996 33.8055 293.996C33.0215 293.996 32.4381 294.323 32.0555 294.976C31.6821 295.629 31.4955 296.651 31.4955 298.042C31.4955 299.433 31.6821 300.464 32.0555 301.136C32.4381 301.799 33.0215 302.13 33.8055 302.13Z" fill="white"/>
<path d="M13.8309 257.124C12.7015 257.124 11.8429 256.69 11.2549 255.822C10.6669 254.954 10.3729 253.699 10.3729 252.056C10.3729 250.404 10.6669 249.149 11.2549 248.29C11.8429 247.431 12.7015 247.002 13.8309 247.002C14.9695 247.002 15.8282 247.431 16.4069 248.29C16.9949 249.139 17.2889 250.39 17.2889 252.042C17.2889 253.694 16.9902 254.954 16.3929 255.822C15.8049 256.69 14.9509 257.124 13.8309 257.124ZM13.8309 256.13C14.6149 256.13 15.1935 255.799 15.5669 255.136C15.9495 254.464 16.1409 253.433 16.1409 252.042C16.1409 250.642 15.9542 249.62 15.5809 248.976C15.2075 248.323 14.6242 247.996 13.8309 247.996C13.0469 247.996 12.4635 248.323 12.0809 248.976C11.7075 249.629 11.5209 250.651 11.5209 252.042C11.5209 253.433 11.7075 254.464 12.0809 255.136C12.4635 255.799 13.0469 256.13 13.8309 256.13ZM19.7614 258.328C19.6307 258.487 19.5001 258.557 19.3694 258.538C19.2387 258.529 19.1501 258.463 19.1034 258.342C19.0567 258.221 19.0941 258.076 19.2154 257.908C19.3274 257.768 19.4114 257.623 19.4674 257.474C19.5234 257.325 19.5654 257.185 19.5934 257.054C19.3694 257.035 19.1921 256.956 19.0614 256.816C18.9307 256.676 18.8654 256.499 18.8654 256.284C18.8654 256.06 18.9307 255.878 19.0614 255.738C19.2014 255.589 19.3834 255.514 19.6074 255.514C19.8501 255.514 20.0414 255.598 20.1814 255.766C20.3214 255.925 20.3914 256.158 20.3914 256.466C20.3914 256.755 20.3447 257.063 20.2514 257.39C20.1581 257.717 19.9947 258.029 19.7614 258.328ZM25.4109 257.124C24.2816 257.124 23.4229 256.69 22.8349 255.822C22.2469 254.954 21.9529 253.699 21.9529 252.056C21.9529 250.404 22.2469 249.149 22.8349 248.29C23.4229 247.431 24.2816 247.002 25.4109 247.002C26.5496 247.002 27.4083 247.431 27.9869 248.29C28.5749 249.139 28.8689 250.39 28.8689 252.042C28.8689 253.694 28.5703 254.954 27.9729 255.822C27.3849 256.69 26.5309 257.124 25.4109 257.124ZM25.4109 256.13C26.1949 256.13 26.7736 255.799 27.1469 255.136C27.5296 254.464 27.7209 253.433 27.7209 252.042C27.7209 250.642 27.5343 249.62 27.1609 248.976C26.7876 248.323 26.2043 247.996 25.4109 247.996C24.6269 247.996 24.0436 248.323 23.6609 248.976C23.2876 249.629 23.1009 250.651 23.1009 252.042C23.1009 253.433 23.2876 254.464 23.6609 255.136C24.0436 255.799 24.6269 256.13 25.4109 256.13ZM33.6935 257.124C33.1428 257.124 32.5968 257.045 32.0555 256.886C31.5141 256.727 31.0428 256.494 30.6415 256.186C30.4921 256.074 30.4035 255.953 30.3755 255.822C30.3568 255.682 30.3755 255.556 30.4315 255.444C30.4968 255.332 30.5948 255.262 30.7255 255.234C30.8561 255.197 31.0008 255.229 31.1595 255.332C31.5701 255.603 31.9808 255.799 32.3915 255.92C32.8021 256.041 33.2268 256.102 33.6655 256.102C34.3748 256.102 34.9161 255.948 35.2895 255.64C35.6721 255.323 35.8635 254.861 35.8635 254.254C35.8635 253.675 35.6721 253.237 35.2895 252.938C34.9068 252.639 34.3515 252.49 33.6235 252.49H32.6295C32.2655 252.49 32.0835 252.322 32.0835 251.986C32.0835 251.659 32.2655 251.496 32.6295 251.496H33.5255C34.1601 251.496 34.6595 251.333 35.0235 251.006C35.3968 250.67 35.5835 250.213 35.5835 249.634C35.5835 249.121 35.4108 248.724 35.0655 248.444C34.7295 248.164 34.2488 248.024 33.6235 248.024C33.1941 248.024 32.7928 248.085 32.4195 248.206C32.0555 248.327 31.6915 248.533 31.3275 248.822C31.1875 248.925 31.0521 248.962 30.9215 248.934C30.8001 248.906 30.7021 248.841 30.6275 248.738C30.5621 248.626 30.5388 248.5 30.5575 248.36C30.5855 248.22 30.6741 248.094 30.8235 247.982C31.1875 247.674 31.6215 247.436 32.1255 247.268C32.6295 247.091 33.1521 247.002 33.6935 247.002C34.6455 247.002 35.3875 247.226 35.9195 247.674C36.4608 248.122 36.7315 248.743 36.7315 249.536C36.7315 250.087 36.5915 250.572 36.3115 250.992C36.0315 251.403 35.6441 251.701 35.1495 251.888C35.7375 252.047 36.1948 252.341 36.5215 252.77C36.8481 253.19 37.0115 253.713 37.0115 254.338C37.0115 255.187 36.7128 255.864 36.1155 256.368C35.5275 256.872 34.7201 257.124 33.6935 257.124Z" fill="white"/>
<path d="M13.8309 207.124C12.7015 207.124 11.8429 206.69 11.2549 205.822C10.6669 204.954 10.3729 203.699 10.3729 202.056C10.3729 200.404 10.6669 199.149 11.2549 198.29C11.8429 197.431 12.7015 197.002 13.8309 197.002C14.9695 197.002 15.8282 197.431 16.4069 198.29C16.9949 199.139 17.2889 200.39 17.2889 202.042C17.2889 203.694 16.9902 204.954 16.3929 205.822C15.8049 206.69 14.9509 207.124 13.8309 207.124ZM13.8309 206.13C14.6149 206.13 15.1935 205.799 15.5669 205.136C15.9495 204.464 16.1409 203.433 16.1409 202.042C16.1409 200.642 15.9542 199.62 15.5809 198.976C15.2075 198.323 14.6242 197.996 13.8309 197.996C13.0469 197.996 12.4635 198.323 12.0809 198.976C11.7075 199.629 11.5209 200.651 11.5209 202.042C11.5209 203.433 11.7075 204.464 12.0809 205.136C12.4635 205.799 13.0469 206.13 13.8309 206.13ZM19.7614 208.328C19.6307 208.487 19.5001 208.557 19.3694 208.538C19.2387 208.529 19.1501 208.463 19.1034 208.342C19.0567 208.221 19.0941 208.076 19.2154 207.908C19.3274 207.768 19.4114 207.623 19.4674 207.474C19.5234 207.325 19.5654 207.185 19.5934 207.054C19.3694 207.035 19.1921 206.956 19.0614 206.816C18.9307 206.676 18.8654 206.499 18.8654 206.284C18.8654 206.06 18.9307 205.878 19.0614 205.738C19.2014 205.589 19.3834 205.514 19.6074 205.514C19.8501 205.514 20.0414 205.598 20.1814 205.766C20.3214 205.925 20.3914 206.158 20.3914 206.466C20.3914 206.755 20.3447 207.063 20.2514 207.39C20.1581 207.717 19.9947 208.029 19.7614 208.328ZM25.4109 207.124C24.2816 207.124 23.4229 206.69 22.8349 205.822C22.2469 204.954 21.9529 203.699 21.9529 202.056C21.9529 200.404 22.2469 199.149 22.8349 198.29C23.4229 197.431 24.2816 197.002 25.4109 197.002C26.5496 197.002 27.4083 197.431 27.9869 198.29C28.5749 199.139 28.8689 200.39 28.8689 202.042C28.8689 203.694 28.5703 204.954 27.9729 205.822C27.3849 206.69 26.5309 207.124 25.4109 207.124ZM25.4109 206.13C26.1949 206.13 26.7736 205.799 27.1469 205.136C27.5296 204.464 27.7209 203.433 27.7209 202.042C27.7209 200.642 27.5343 199.62 27.1609 198.976C26.7876 198.323 26.2043 197.996 25.4109 197.996C24.6269 197.996 24.0436 198.323 23.6609 198.976C23.2876 199.629 23.1009 200.651 23.1009 202.042C23.1009 203.433 23.2876 204.464 23.6609 205.136C24.0436 205.799 24.6269 206.13 25.4109 206.13ZM34.1415 207.124C32.9748 207.124 32.0741 206.704 31.4395 205.864C30.8141 205.015 30.5015 203.829 30.5015 202.308C30.5015 200.6 30.8515 199.289 31.5515 198.374C32.2515 197.459 33.2315 197.002 34.4915 197.002C34.9208 197.002 35.3595 197.086 35.8075 197.254C36.2648 197.422 36.6661 197.66 37.0115 197.968C37.1328 198.071 37.1981 198.187 37.2075 198.318C37.2261 198.449 37.2028 198.57 37.1375 198.682C37.0721 198.794 36.9788 198.869 36.8575 198.906C36.7455 198.934 36.6148 198.892 36.4655 198.78C36.1481 198.509 35.8215 198.318 35.4855 198.206C35.1495 198.085 34.8088 198.024 34.4635 198.024C33.5488 198.024 32.8441 198.365 32.3495 199.046C31.8641 199.727 31.6215 200.74 31.6215 202.084V202.77C31.7988 202.154 32.1255 201.673 32.6015 201.328C33.0868 200.983 33.6561 200.81 34.3095 200.81C34.8881 200.81 35.4015 200.945 35.8495 201.216C36.2975 201.477 36.6475 201.841 36.8995 202.308C37.1515 202.775 37.2775 203.311 37.2775 203.918C37.2775 204.543 37.1421 205.099 36.8715 205.584C36.6101 206.06 36.2415 206.438 35.7655 206.718C35.2988 206.989 34.7575 207.124 34.1415 207.124ZM34.0715 206.144C34.6968 206.144 35.2008 205.943 35.5835 205.542C35.9755 205.141 36.1715 204.613 36.1715 203.96C36.1715 203.316 35.9755 202.793 35.5835 202.392C35.2008 201.981 34.6968 201.776 34.0715 201.776C33.4461 201.776 32.9375 201.981 32.5455 202.392C32.1628 202.793 31.9715 203.316 31.9715 203.96C31.9715 204.613 32.1628 205.141 32.5455 205.542C32.9375 205.943 33.4461 206.144 34.0715 206.144Z" fill="white"/>
<path d="M13.8309 159.124C12.7015 159.124 11.8429 158.69 11.2549 157.822C10.6669 156.954 10.3729 155.699 10.3729 154.056C10.3729 152.404 10.6669 151.149 11.2549 150.29C11.8429 149.431 12.7015 149.002 13.8309 149.002C14.9695 149.002 15.8282 149.431 16.4069 150.29C16.9949 151.139 17.2889 152.39 17.2889 154.042C17.2889 155.694 16.9902 156.954 16.3929 157.822C15.8049 158.69 14.9509 159.124 13.8309 159.124ZM13.8309 158.13C14.6149 158.13 15.1935 157.799 15.5669 157.136C15.9495 156.464 16.1409 155.433 16.1409 154.042C16.1409 152.642 15.9542 151.62 15.5809 150.976C15.2075 150.323 14.6242 149.996 13.8309 149.996C13.0469 149.996 12.4635 150.323 12.0809 150.976C11.7075 151.629 11.5209 152.651 11.5209 154.042C11.5209 155.433 11.7075 156.464 12.0809 157.136C12.4635 157.799 13.0469 158.13 13.8309 158.13ZM19.7614 160.328C19.6307 160.487 19.5001 160.557 19.3694 160.538C19.2387 160.529 19.1501 160.463 19.1034 160.342C19.0567 160.221 19.0941 160.076 19.2154 159.908C19.3274 159.768 19.4114 159.623 19.4674 159.474C19.5234 159.325 19.5654 159.185 19.5934 159.054C19.3694 159.035 19.1921 158.956 19.0614 158.816C18.9307 158.676 18.8654 158.499 18.8654 158.284C18.8654 158.06 18.9307 157.878 19.0614 157.738C19.2014 157.589 19.3834 157.514 19.6074 157.514C19.8501 157.514 20.0414 157.598 20.1814 157.766C20.3214 157.925 20.3914 158.158 20.3914 158.466C20.3914 158.755 20.3447 159.063 20.2514 159.39C20.1581 159.717 19.9947 160.029 19.7614 160.328ZM25.4109 159.124C24.2816 159.124 23.4229 158.69 22.8349 157.822C22.2469 156.954 21.9529 155.699 21.9529 154.056C21.9529 152.404 22.2469 151.149 22.8349 150.29C23.4229 149.431 24.2816 149.002 25.4109 149.002C26.5496 149.002 27.4083 149.431 27.9869 150.29C28.5749 151.139 28.8689 152.39 28.8689 154.042C28.8689 155.694 28.5703 156.954 27.9729 157.822C27.3849 158.69 26.5309 159.124 25.4109 159.124ZM25.4109 158.13C26.1949 158.13 26.7736 157.799 27.1469 157.136C27.5296 156.464 27.7209 155.433 27.7209 154.042C27.7209 152.642 27.5343 151.62 27.1609 150.976C26.7876 150.323 26.2043 149.996 25.4109 149.996C24.6269 149.996 24.0436 150.323 23.6609 150.976C23.2876 151.629 23.1009 152.651 23.1009 154.042C23.1009 155.433 23.2876 156.464 23.6609 157.136C24.0436 157.799 24.6269 158.13 25.4109 158.13ZM33.1195 159.124C32.6901 159.124 32.2468 159.04 31.7895 158.872C31.3415 158.704 30.9448 158.461 30.5995 158.144C30.4781 158.051 30.4081 157.939 30.3895 157.808C30.3801 157.668 30.4081 157.547 30.4735 157.444C30.5388 157.332 30.6275 157.262 30.7395 157.234C30.8608 157.197 30.9961 157.229 31.1455 157.332C31.4628 157.603 31.7895 157.799 32.1255 157.92C32.4615 158.041 32.8021 158.102 33.1475 158.102C34.0621 158.102 34.7621 157.761 35.2475 157.08C35.7421 156.399 35.9895 155.386 35.9895 154.042V153.356C35.8121 153.972 35.4808 154.453 34.9955 154.798C34.5195 155.143 33.9548 155.316 33.3015 155.316C32.7228 155.316 32.2095 155.185 31.7615 154.924C31.3135 154.653 30.9635 154.285 30.7115 153.818C30.4595 153.351 30.3335 152.815 30.3335 152.208C30.3335 151.583 30.4641 151.032 30.7255 150.556C30.9961 150.071 31.3648 149.693 31.8315 149.422C32.3075 149.142 32.8535 149.002 33.4695 149.002C34.6361 149.002 35.5321 149.427 36.1575 150.276C36.7921 151.116 37.1095 152.297 37.1095 153.818C37.1095 155.526 36.7595 156.837 36.0595 157.752C35.3595 158.667 34.3795 159.124 33.1195 159.124ZM33.5395 154.35C34.1648 154.35 34.6735 154.149 35.0655 153.748C35.4575 153.337 35.6535 152.805 35.6535 152.152C35.6535 151.508 35.4575 150.985 35.0655 150.584C34.6735 150.173 34.1648 149.968 33.5395 149.968C32.9235 149.968 32.4195 150.173 32.0275 150.584C31.6355 150.985 31.4395 151.508 31.4395 152.152C31.4395 152.805 31.6355 153.337 32.0275 153.748C32.4195 154.149 32.9235 154.35 33.5395 154.35Z" fill="white"/>
<path d="M13.8309 111.124C12.7015 111.124 11.8429 110.69 11.2549 109.822C10.6669 108.954 10.3729 107.699 10.3729 106.056C10.3729 104.404 10.6669 103.149 11.2549 102.29C11.8429 101.431 12.7015 101.002 13.8309 101.002C14.9695 101.002 15.8282 101.431 16.4069 102.29C16.9949 103.139 17.2889 104.39 17.2889 106.042C17.2889 107.694 16.9902 108.954 16.3929 109.822C15.8049 110.69 14.9509 111.124 13.8309 111.124ZM13.8309 110.13C14.6149 110.13 15.1935 109.799 15.5669 109.136C15.9495 108.464 16.1409 107.433 16.1409 106.042C16.1409 104.642 15.9542 103.62 15.5809 102.976C15.2075 102.323 14.6242 101.996 13.8309 101.996C13.0469 101.996 12.4635 102.323 12.0809 102.976C11.7075 103.629 11.5209 104.651 11.5209 106.042C11.5209 107.433 11.7075 108.464 12.0809 109.136C12.4635 109.799 13.0469 110.13 13.8309 110.13ZM19.7614 112.328C19.6307 112.487 19.5001 112.557 19.3694 112.538C19.2387 112.529 19.1501 112.463 19.1034 112.342C19.0567 112.221 19.0941 112.076 19.2154 111.908C19.3274 111.768 19.4114 111.623 19.4674 111.474C19.5234 111.325 19.5654 111.185 19.5934 111.054C19.3694 111.035 19.1921 110.956 19.0614 110.816C18.9307 110.676 18.8654 110.499 18.8654 110.284C18.8654 110.06 18.9307 109.878 19.0614 109.738C19.2014 109.589 19.3834 109.514 19.6074 109.514C19.8501 109.514 20.0414 109.598 20.1814 109.766C20.3214 109.925 20.3914 110.158 20.3914 110.466C20.3914 110.755 20.3447 111.063 20.2514 111.39C20.1581 111.717 19.9947 112.029 19.7614 112.328ZM23.3809 110.998C23.0263 110.998 22.8489 110.83 22.8489 110.494C22.8489 110.177 23.0263 110.018 23.3809 110.018H25.2009V102.472L23.7729 103.424C23.6236 103.517 23.4836 103.545 23.3529 103.508C23.2316 103.461 23.1383 103.382 23.0729 103.27C23.0076 103.158 22.9843 103.037 23.0029 102.906C23.0309 102.775 23.1196 102.659 23.2689 102.556L25.2009 101.282C25.3223 101.207 25.4389 101.147 25.5509 101.1C25.6629 101.053 25.7749 101.03 25.8869 101.03C26.0176 101.03 26.1249 101.072 26.2089 101.156C26.3023 101.231 26.3489 101.352 26.3489 101.52V110.018H28.0289C28.3836 110.018 28.5609 110.177 28.5609 110.494C28.5609 110.83 28.3836 110.998 28.0289 110.998H23.3809ZM31.4115 110.998C31.1968 110.998 31.0428 110.951 30.9495 110.858C30.8561 110.755 30.8095 110.62 30.8095 110.452C30.8095 110.256 30.9075 110.055 31.1035 109.85L34.2395 106.49C34.7155 105.977 35.0561 105.505 35.2615 105.076C35.4761 104.637 35.5835 104.194 35.5835 103.746C35.5835 102.598 34.9161 102.024 33.5815 102.024C32.7508 102.024 31.9948 102.29 31.3135 102.822C31.1641 102.934 31.0288 102.976 30.9075 102.948C30.7861 102.911 30.6928 102.836 30.6275 102.724C30.5715 102.612 30.5481 102.491 30.5575 102.36C30.5761 102.22 30.6555 102.099 30.7955 101.996C31.1595 101.697 31.5981 101.459 32.1115 101.282C32.6248 101.095 33.1475 101.002 33.6795 101.002C34.6688 101.002 35.4248 101.235 35.9475 101.702C36.4795 102.159 36.7455 102.813 36.7455 103.662C36.7455 104.25 36.6008 104.829 36.3115 105.398C36.0315 105.958 35.5881 106.555 34.9815 107.19L32.3215 110.018H36.7175C37.0721 110.018 37.2495 110.177 37.2495 110.494C37.2495 110.83 37.0721 110.998 36.7175 110.998H31.4115Z" fill="white"/>
<path d="M13.8309 63.124C12.7015 63.124 11.8429 62.69 11.2549 61.822C10.6669 60.954 10.3729 59.6987 10.3729 58.056C10.3729 56.404 10.6669 55.1487 11.2549 54.29C11.8429 53.4314 12.7015 53.002 13.8309 53.002C14.9695 53.002 15.8282 53.4314 16.4069 54.29C16.9949 55.1394 17.2889 56.39 17.2889 58.042C17.2889 59.694 16.9902 60.954 16.3929 61.822C15.8049 62.69 14.9509 63.124 13.8309 63.124ZM13.8309 62.13C14.6149 62.13 15.1935 61.7987 15.5669 61.136C15.9495 60.464 16.1409 59.4327 16.1409 58.042C16.1409 56.642 15.9542 55.62 15.5809 54.976C15.2075 54.3227 14.6242 53.996 13.8309 53.996C13.0469 53.996 12.4635 54.3227 12.0809 54.976C11.7075 55.6294 11.5209 56.6514 11.5209 58.042C11.5209 59.4327 11.7075 60.464 12.0809 61.136C12.4635 61.7987 13.0469 62.13 13.8309 62.13ZM19.7614 64.328C19.6307 64.4867 19.5001 64.5567 19.3694 64.538C19.2387 64.5287 19.1501 64.4634 19.1034 64.342C19.0567 64.2207 19.0941 64.076 19.2154 63.908C19.3274 63.768 19.4114 63.6234 19.4674 63.474C19.5234 63.3247 19.5654 63.1847 19.5934 63.054C19.3694 63.0354 19.1921 62.956 19.0614 62.816C18.9307 62.676 18.8654 62.4987 18.8654 62.284C18.8654 62.06 18.9307 61.878 19.0614 61.738C19.2014 61.5887 19.3834 61.514 19.6074 61.514C19.8501 61.514 20.0414 61.598 20.1814 61.766C20.3214 61.9247 20.3914 62.158 20.3914 62.466C20.3914 62.7554 20.3447 63.0634 20.2514 63.39C20.1581 63.7167 19.9947 64.0294 19.7614 64.328ZM23.3809 62.998C23.0263 62.998 22.8489 62.83 22.8489 62.494C22.8489 62.1767 23.0263 62.018 23.3809 62.018H25.2009V54.472L23.7729 55.424C23.6236 55.5174 23.4836 55.5454 23.3529 55.508C23.2316 55.4614 23.1383 55.382 23.0729 55.27C23.0076 55.158 22.9843 55.0367 23.0029 54.906C23.0309 54.7754 23.1196 54.6587 23.2689 54.556L25.2009 53.282C25.3223 53.2074 25.4389 53.1467 25.5509 53.1C25.6629 53.0534 25.7749 53.03 25.8869 53.03C26.0176 53.03 26.1249 53.072 26.2089 53.156C26.3023 53.2307 26.3489 53.352 26.3489 53.52V62.018H28.0289C28.3836 62.018 28.5609 62.1767 28.5609 62.494C28.5609 62.83 28.3836 62.998 28.0289 62.998H23.3809ZM34.0155 63.124C33.4741 63.124 32.9375 63.0447 32.4055 62.886C31.8828 62.7274 31.4115 62.48 30.9915 62.144C30.8515 62.0507 30.7675 61.9387 30.7395 61.808C30.7208 61.668 30.7441 61.542 30.8095 61.43C30.8748 61.318 30.9681 61.2434 31.0895 61.206C31.2201 61.1687 31.3648 61.2014 31.5235 61.304C32.2608 61.836 33.0868 62.102 34.0015 62.102C34.6828 62.102 35.2195 61.9107 35.6115 61.528C36.0035 61.1454 36.1995 60.6414 36.1995 60.016C36.1995 59.372 36.0128 58.8447 35.6395 58.434C35.2661 58.0234 34.7528 57.818 34.0995 57.818C33.6981 57.818 33.3248 57.8927 32.9795 58.042C32.6435 58.1914 32.3401 58.4294 32.0695 58.756C32.0041 58.8307 31.9248 58.896 31.8315 58.952C31.7475 58.9987 31.6495 59.022 31.5375 59.022C31.2015 59.022 31.0335 58.8587 31.0335 58.532V53.66C31.0335 53.3054 31.2108 53.128 31.5655 53.128H36.3255C36.6801 53.128 36.8575 53.2914 36.8575 53.618C36.8575 53.9447 36.6801 54.108 36.3255 54.108H32.1675V57.636C32.7088 57.0947 33.4228 56.824 34.3095 56.824C34.9255 56.824 35.4621 56.9547 35.9195 57.216C36.3768 57.4774 36.7268 57.846 36.9695 58.322C37.2215 58.7887 37.3475 59.3347 37.3475 59.96C37.3475 60.576 37.2121 61.122 36.9415 61.598C36.6708 62.074 36.2835 62.4474 35.7795 62.718C35.2848 62.9887 34.6968 63.124 34.0155 63.124Z" fill="white"/>
<path d="M13.8309 15.124C12.7015 15.124 11.8429 14.69 11.2549 13.822C10.6669 12.954 10.3729 11.6987 10.3729 10.056C10.3729 8.40405 10.6669 7.14871 11.2549 6.29005C11.8429 5.43138 12.7015 5.00205 13.8309 5.00205C14.9695 5.00205 15.8282 5.43138 16.4069 6.29005C16.9949 7.13938 17.2889 8.39005 17.2889 10.042C17.2889 11.694 16.9902 12.954 16.3929 13.822C15.8049 14.69 14.9509 15.124 13.8309 15.124ZM13.8309 14.13C14.6149 14.13 15.1935 13.7987 15.5669 13.136C15.9495 12.464 16.1409 11.4327 16.1409 10.042C16.1409 8.64205 15.9542 7.62005 15.5809 6.97605C15.2075 6.32271 14.6242 5.99605 13.8309 5.99605C13.0469 5.99605 12.4635 6.32271 12.0809 6.97605C11.7075 7.62938 11.5209 8.65138 11.5209 10.042C11.5209 11.4327 11.7075 12.464 12.0809 13.136C12.4635 13.7987 13.0469 14.13 13.8309 14.13ZM19.7614 16.328C19.6307 16.4867 19.5001 16.5567 19.3694 16.538C19.2387 16.5287 19.1501 16.4634 19.1034 16.342C19.0567 16.2207 19.0941 16.076 19.2154 15.908C19.3274 15.768 19.4114 15.6234 19.4674 15.474C19.5234 15.3247 19.5654 15.1847 19.5934 15.054C19.3694 15.0354 19.1921 14.956 19.0614 14.816C18.9307 14.676 18.8654 14.4987 18.8654 14.284C18.8654 14.06 18.9307 13.878 19.0614 13.738C19.2014 13.5887 19.3834 13.514 19.6074 13.514C19.8501 13.514 20.0414 13.598 20.1814 13.766C20.3214 13.9247 20.3914 14.158 20.3914 14.466C20.3914 14.7554 20.3447 15.0634 20.2514 15.39C20.1581 15.7167 19.9947 16.0294 19.7614 16.328ZM23.3809 14.998C23.0263 14.998 22.8489 14.83 22.8489 14.494C22.8489 14.1767 23.0263 14.018 23.3809 14.018H25.2009V6.47205L23.7729 7.42405C23.6236 7.51738 23.4836 7.54538 23.3529 7.50805C23.2316 7.46138 23.1383 7.38205 23.0729 7.27005C23.0076 7.15805 22.9843 7.03671 23.0029 6.90605C23.0309 6.77538 23.1196 6.65871 23.2689 6.55605L25.2009 5.28205C25.3223 5.20738 25.4389 5.14671 25.5509 5.10005C25.6629 5.05338 25.7749 5.03005 25.8869 5.03005C26.0176 5.03005 26.1249 5.07205 26.2089 5.15605C26.3023 5.23071 26.3489 5.35205 26.3489 5.52005V14.018H28.0289C28.3836 14.018 28.5609 14.1767 28.5609 14.494C28.5609 14.83 28.3836 14.998 28.0289 14.998H23.3809ZM33.8055 15.124C32.6948 15.124 31.8315 14.886 31.2155 14.41C30.5995 13.9247 30.2915 13.248 30.2915 12.38C30.2915 11.7734 30.4548 11.2554 30.7815 10.826C31.1175 10.3967 31.5608 10.1027 32.1115 9.94405C31.6168 9.75738 31.2295 9.45871 30.9495 9.04805C30.6695 8.63738 30.5295 8.16605 30.5295 7.63405C30.5295 6.80338 30.8235 6.15938 31.4115 5.70205C32.0088 5.23538 32.8068 5.00205 33.8055 5.00205C34.8041 5.00205 35.6021 5.23538 36.1995 5.70205C36.7968 6.15938 37.0955 6.80338 37.0955 7.63405C37.0955 8.16605 36.9508 8.64205 36.6615 9.06205C36.3815 9.47271 35.9988 9.76671 35.5135 9.94405C36.0641 10.1027 36.5028 10.3967 36.8295 10.826C37.1561 11.2554 37.3195 11.7734 37.3195 12.38C37.3195 13.248 37.0115 13.9247 36.3955 14.41C35.7795 14.886 34.9161 15.124 33.8055 15.124ZM33.8055 9.52405C34.4868 9.52405 35.0188 9.36538 35.4015 9.04805C35.7935 8.72138 35.9895 8.28271 35.9895 7.73205C35.9895 7.17205 35.7935 6.73805 35.4015 6.43005C35.0188 6.11271 34.4868 5.95405 33.8055 5.95405C33.1241 5.95405 32.5921 6.11271 32.2095 6.43005C31.8268 6.73805 31.6355 7.17205 31.6355 7.73205C31.6355 8.28271 31.8268 8.72138 32.2095 9.04805C32.5921 9.36538 33.1241 9.52405 33.8055 9.52405ZM33.8055 14.172C35.4108 14.172 36.2135 13.5514 36.2135 12.31C36.2135 11.0874 35.4108 10.476 33.8055 10.476C32.2001 10.476 31.3975 11.0874 31.3975 12.31C31.3975 13.5514 32.2001 14.172 33.8055 14.172Z" fill="white"/>
<path d="M122.806 338.998C122.591 338.998 122.437 338.951 122.344 338.858C122.251 338.755 122.204 338.62 122.204 338.452C122.204 338.256 122.302 338.055 122.498 337.85L125.634 334.49C126.11 333.977 126.451 333.505 126.656 333.076C126.871 332.637 126.978 332.194 126.978 331.746C126.978 330.598 126.311 330.024 124.976 330.024C124.145 330.024 123.389 330.29 122.708 330.822C122.559 330.934 122.423 330.976 122.302 330.948C122.181 330.911 122.087 330.836 122.022 330.724C121.966 330.612 121.943 330.491 121.952 330.36C121.971 330.22 122.05 330.099 122.19 329.996C122.554 329.697 122.993 329.459 123.506 329.282C124.019 329.095 124.542 329.002 125.074 329.002C126.063 329.002 126.819 329.235 127.342 329.702C127.874 330.159 128.14 330.813 128.14 331.662C128.14 332.25 127.995 332.829 127.706 333.398C127.426 333.958 126.983 334.555 126.376 335.19L123.716 338.018H128.112C128.467 338.018 128.644 338.177 128.644 338.494C128.644 338.83 128.467 338.998 128.112 338.998H122.806ZM133.595 339.124C132.465 339.124 131.607 338.69 131.019 337.822C130.431 336.954 130.137 335.699 130.137 334.056C130.137 332.404 130.431 331.149 131.019 330.29C131.607 329.431 132.465 329.002 133.595 329.002C134.733 329.002 135.592 329.431 136.171 330.29C136.759 331.139 137.053 332.39 137.053 334.042C137.053 335.694 136.754 336.954 136.157 337.822C135.569 338.69 134.715 339.124 133.595 339.124ZM133.595 338.13C134.379 338.13 134.957 337.799 135.331 337.136C135.713 336.464 135.905 335.433 135.905 334.042C135.905 332.642 135.718 331.62 135.345 330.976C134.971 330.323 134.388 329.996 133.595 329.996C132.811 329.996 132.227 330.323 131.845 330.976C131.471 331.629 131.285 332.651 131.285 334.042C131.285 335.433 131.471 336.464 131.845 337.136C132.227 337.799 132.811 338.13 133.595 338.13ZM141.989 339.124C140.86 339.124 140.001 338.69 139.413 337.822C138.825 336.954 138.531 335.699 138.531 334.056C138.531 332.404 138.825 331.149 139.413 330.29C140.001 329.431 140.86 329.002 141.989 329.002C143.128 329.002 143.986 329.431 144.565 330.29C145.153 331.139 145.447 332.39 145.447 334.042C145.447 335.694 145.148 336.954 144.551 337.822C143.963 338.69 143.109 339.124 141.989 339.124ZM141.989 338.13C142.773 338.13 143.352 337.799 143.725 337.136C144.108 336.464 144.299 335.433 144.299 334.042C144.299 332.642 144.112 331.62 143.739 330.976C143.366 330.323 142.782 329.996 141.989 329.996C141.205 329.996 140.622 330.323 140.239 330.976C139.866 331.629 139.679 332.651 139.679 334.042C139.679 335.433 139.866 336.464 140.239 337.136C140.622 337.799 141.205 338.13 141.989 338.13ZM150.524 340.706C150.384 340.706 150.267 340.659 150.174 340.566C150.09 340.473 150.048 340.361 150.048 340.23V339.054C149.441 339.026 148.89 338.928 148.396 338.76C147.901 338.592 147.481 338.382 147.136 338.13C146.996 338.037 146.912 337.92 146.884 337.78C146.865 337.64 146.884 337.514 146.94 337.402C146.996 337.281 147.084 337.201 147.206 337.164C147.327 337.117 147.472 337.145 147.64 337.248C147.948 337.463 148.321 337.649 148.76 337.808C149.198 337.967 149.744 338.046 150.398 338.046C151.2 338.046 151.793 337.892 152.176 337.584C152.558 337.276 152.75 336.87 152.75 336.366C152.75 335.965 152.61 335.643 152.33 335.4C152.059 335.157 151.597 334.966 150.944 334.826L149.544 334.532C147.873 334.177 147.038 333.314 147.038 331.942C147.038 331.419 147.159 330.953 147.402 330.542C147.654 330.122 148.004 329.786 148.452 329.534C148.909 329.282 149.441 329.133 150.048 329.086V327.896C150.048 327.765 150.09 327.653 150.174 327.56C150.267 327.467 150.384 327.42 150.524 327.42C150.654 327.42 150.766 327.467 150.86 327.56C150.953 327.653 151 327.765 151 327.896V329.086C151.42 329.123 151.854 329.231 152.302 329.408C152.75 329.576 153.137 329.809 153.464 330.108C153.613 330.239 153.674 330.393 153.646 330.57C153.627 330.738 153.543 330.864 153.394 330.948C153.254 331.032 153.076 331.004 152.862 330.864C152.544 330.612 152.194 330.421 151.812 330.29C151.438 330.15 150.99 330.08 150.468 330.08C149.768 330.08 149.208 330.248 148.788 330.584C148.377 330.92 148.172 331.363 148.172 331.914C148.172 332.343 148.302 332.689 148.564 332.95C148.825 333.202 149.25 333.389 149.838 333.51L151.252 333.818C152.166 334.014 152.838 334.313 153.268 334.714C153.697 335.115 153.912 335.647 153.912 336.31C153.912 337.075 153.641 337.701 153.1 338.186C152.558 338.662 151.858 338.947 151 339.04V340.23C151 340.361 150.953 340.473 150.86 340.566C150.776 340.659 150.664 340.706 150.524 340.706Z" fill="white"/>
<path d="M227.088 339.124C226.537 339.124 225.991 339.045 225.45 338.886C224.909 338.727 224.437 338.494 224.036 338.186C223.887 338.074 223.798 337.953 223.77 337.822C223.751 337.682 223.77 337.556 223.826 337.444C223.891 337.332 223.989 337.262 224.12 337.234C224.251 337.197 224.395 337.229 224.554 337.332C224.965 337.603 225.375 337.799 225.786 337.92C226.197 338.041 226.621 338.102 227.06 338.102C227.769 338.102 228.311 337.948 228.684 337.64C229.067 337.323 229.258 336.861 229.258 336.254C229.258 335.675 229.067 335.237 228.684 334.938C228.301 334.639 227.746 334.49 227.018 334.49H226.024C225.66 334.49 225.478 334.322 225.478 333.986C225.478 333.659 225.66 333.496 226.024 333.496H226.92C227.555 333.496 228.054 333.333 228.418 333.006C228.791 332.67 228.978 332.213 228.978 331.634C228.978 331.121 228.805 330.724 228.46 330.444C228.124 330.164 227.643 330.024 227.018 330.024C226.589 330.024 226.187 330.085 225.814 330.206C225.45 330.327 225.086 330.533 224.722 330.822C224.582 330.925 224.447 330.962 224.316 330.934C224.195 330.906 224.097 330.841 224.022 330.738C223.957 330.626 223.933 330.5 223.952 330.36C223.98 330.22 224.069 330.094 224.218 329.982C224.582 329.674 225.016 329.436 225.52 329.268C226.024 329.091 226.547 329.002 227.088 329.002C228.04 329.002 228.782 329.226 229.314 329.674C229.855 330.122 230.126 330.743 230.126 331.536C230.126 332.087 229.986 332.572 229.706 332.992C229.426 333.403 229.039 333.701 228.544 333.888C229.132 334.047 229.589 334.341 229.916 334.77C230.243 335.19 230.406 335.713 230.406 336.338C230.406 337.187 230.107 337.864 229.51 338.368C228.922 338.872 228.115 339.124 227.088 339.124ZM235.595 339.124C234.465 339.124 233.607 338.69 233.019 337.822C232.431 336.954 232.137 335.699 232.137 334.056C232.137 332.404 232.431 331.149 233.019 330.29C233.607 329.431 234.465 329.002 235.595 329.002C236.733 329.002 237.592 329.431 238.171 330.29C238.759 331.139 239.053 332.39 239.053 334.042C239.053 335.694 238.754 336.954 238.157 337.822C237.569 338.69 236.715 339.124 235.595 339.124ZM235.595 338.13C236.379 338.13 236.957 337.799 237.331 337.136C237.713 336.464 237.905 335.433 237.905 334.042C237.905 332.642 237.718 331.62 237.345 330.976C236.971 330.323 236.388 329.996 235.595 329.996C234.811 329.996 234.227 330.323 233.845 330.976C233.471 331.629 233.285 332.651 233.285 334.042C233.285 335.433 233.471 336.464 233.845 337.136C234.227 337.799 234.811 338.13 235.595 338.13ZM243.989 339.124C242.86 339.124 242.001 338.69 241.413 337.822C240.825 336.954 240.531 335.699 240.531 334.056C240.531 332.404 240.825 331.149 241.413 330.29C242.001 329.431 242.86 329.002 243.989 329.002C245.128 329.002 245.986 329.431 246.565 330.29C247.153 331.139 247.447 332.39 247.447 334.042C247.447 335.694 247.148 336.954 246.551 337.822C245.963 338.69 245.109 339.124 243.989 339.124ZM243.989 338.13C244.773 338.13 245.352 337.799 245.725 337.136C246.108 336.464 246.299 335.433 246.299 334.042C246.299 332.642 246.112 331.62 245.739 330.976C245.366 330.323 244.782 329.996 243.989 329.996C243.205 329.996 242.622 330.323 242.239 330.976C241.866 331.629 241.679 332.651 241.679 334.042C241.679 335.433 241.866 336.464 242.239 337.136C242.622 337.799 243.205 338.13 243.989 338.13ZM252.524 340.706C252.384 340.706 252.267 340.659 252.174 340.566C252.09 340.473 252.048 340.361 252.048 340.23V339.054C251.441 339.026 250.89 338.928 250.396 338.76C249.901 338.592 249.481 338.382 249.136 338.13C248.996 338.037 248.912 337.92 248.884 337.78C248.865 337.64 248.884 337.514 248.94 337.402C248.996 337.281 249.084 337.201 249.206 337.164C249.327 337.117 249.472 337.145 249.64 337.248C249.948 337.463 250.321 337.649 250.76 337.808C251.198 337.967 251.744 338.046 252.398 338.046C253.2 338.046 253.793 337.892 254.176 337.584C254.558 337.276 254.75 336.87 254.75 336.366C254.75 335.965 254.61 335.643 254.33 335.4C254.059 335.157 253.597 334.966 252.944 334.826L251.544 334.532C249.873 334.177 249.038 333.314 249.038 331.942C249.038 331.419 249.159 330.953 249.402 330.542C249.654 330.122 250.004 329.786 250.452 329.534C250.909 329.282 251.441 329.133 252.048 329.086V327.896C252.048 327.765 252.09 327.653 252.174 327.56C252.267 327.467 252.384 327.42 252.524 327.42C252.654 327.42 252.766 327.467 252.86 327.56C252.953 327.653 253 327.765 253 327.896V329.086C253.42 329.123 253.854 329.231 254.302 329.408C254.75 329.576 255.137 329.809 255.464 330.108C255.613 330.239 255.674 330.393 255.646 330.57C255.627 330.738 255.543 330.864 255.394 330.948C255.254 331.032 255.076 331.004 254.862 330.864C254.544 330.612 254.194 330.421 253.812 330.29C253.438 330.15 252.99 330.08 252.468 330.08C251.768 330.08 251.208 330.248 250.788 330.584C250.377 330.92 250.172 331.363 250.172 331.914C250.172 332.343 250.302 332.689 250.564 332.95C250.825 333.202 251.25 333.389 251.838 333.51L253.252 333.818C254.166 334.014 254.838 334.313 255.268 334.714C255.697 335.115 255.912 335.647 255.912 336.31C255.912 337.075 255.641 337.701 255.1 338.186C254.558 338.662 253.858 338.947 253 339.04V340.23C253 340.361 252.953 340.473 252.86 340.566C252.776 340.659 252.664 340.706 252.524 340.706Z" fill="white"/>
<path d="M330.852 339.096C330.469 339.096 330.278 338.9 330.278 338.508V336.884H326.26C326.073 336.884 325.924 336.842 325.812 336.758C325.709 336.665 325.658 336.534 325.658 336.366C325.658 336.198 325.765 335.955 325.98 335.638L330.25 329.422C330.418 329.161 330.633 329.03 330.894 329.03C331.043 329.03 331.169 329.081 331.272 329.184C331.384 329.277 331.44 329.422 331.44 329.618V335.904H332.462C332.826 335.904 333.008 336.067 333.008 336.394C333.008 336.721 332.826 336.884 332.462 336.884H331.44V338.508C331.44 338.9 331.244 339.096 330.852 339.096ZM330.278 335.904V330.976L326.904 335.904H330.278ZM337.595 339.124C336.465 339.124 335.607 338.69 335.019 337.822C334.431 336.954 334.137 335.699 334.137 334.056C334.137 332.404 334.431 331.149 335.019 330.29C335.607 329.431 336.465 329.002 337.595 329.002C338.733 329.002 339.592 329.431 340.171 330.29C340.759 331.139 341.053 332.39 341.053 334.042C341.053 335.694 340.754 336.954 340.157 337.822C339.569 338.69 338.715 339.124 337.595 339.124ZM337.595 338.13C338.379 338.13 338.957 337.799 339.331 337.136C339.713 336.464 339.905 335.433 339.905 334.042C339.905 332.642 339.718 331.62 339.345 330.976C338.971 330.323 338.388 329.996 337.595 329.996C336.811 329.996 336.227 330.323 335.845 330.976C335.471 331.629 335.285 332.651 335.285 334.042C335.285 335.433 335.471 336.464 335.845 337.136C336.227 337.799 336.811 338.13 337.595 338.13ZM345.989 339.124C344.86 339.124 344.001 338.69 343.413 337.822C342.825 336.954 342.531 335.699 342.531 334.056C342.531 332.404 342.825 331.149 343.413 330.29C344.001 329.431 344.86 329.002 345.989 329.002C347.128 329.002 347.986 329.431 348.565 330.29C349.153 331.139 349.447 332.39 349.447 334.042C349.447 335.694 349.148 336.954 348.551 337.822C347.963 338.69 347.109 339.124 345.989 339.124ZM345.989 338.13C346.773 338.13 347.352 337.799 347.725 337.136C348.108 336.464 348.299 335.433 348.299 334.042C348.299 332.642 348.112 331.62 347.739 330.976C347.366 330.323 346.782 329.996 345.989 329.996C345.205 329.996 344.622 330.323 344.239 330.976C343.866 331.629 343.679 332.651 343.679 334.042C343.679 335.433 343.866 336.464 344.239 337.136C344.622 337.799 345.205 338.13 345.989 338.13ZM354.524 340.706C354.384 340.706 354.267 340.659 354.174 340.566C354.09 340.473 354.048 340.361 354.048 340.23V339.054C353.441 339.026 352.89 338.928 352.396 338.76C351.901 338.592 351.481 338.382 351.136 338.13C350.996 338.037 350.912 337.92 350.884 337.78C350.865 337.64 350.884 337.514 350.94 337.402C350.996 337.281 351.084 337.201 351.206 337.164C351.327 337.117 351.472 337.145 351.64 337.248C351.948 337.463 352.321 337.649 352.76 337.808C353.198 337.967 353.744 338.046 354.398 338.046C355.2 338.046 355.793 337.892 356.176 337.584C356.558 337.276 356.75 336.87 356.75 336.366C356.75 335.965 356.61 335.643 356.33 335.4C356.059 335.157 355.597 334.966 354.944 334.826L353.544 334.532C351.873 334.177 351.038 333.314 351.038 331.942C351.038 331.419 351.159 330.953 351.402 330.542C351.654 330.122 352.004 329.786 352.452 329.534C352.909 329.282 353.441 329.133 354.048 329.086V327.896C354.048 327.765 354.09 327.653 354.174 327.56C354.267 327.467 354.384 327.42 354.524 327.42C354.654 327.42 354.766 327.467 354.86 327.56C354.953 327.653 355 327.765 355 327.896V329.086C355.42 329.123 355.854 329.231 356.302 329.408C356.75 329.576 357.137 329.809 357.464 330.108C357.613 330.239 357.674 330.393 357.646 330.57C357.627 330.738 357.543 330.864 357.394 330.948C357.254 331.032 357.076 331.004 356.862 330.864C356.544 330.612 356.194 330.421 355.812 330.29C355.438 330.15 354.99 330.08 354.468 330.08C353.768 330.08 353.208 330.248 352.788 330.584C352.377 330.92 352.172 331.363 352.172 331.914C352.172 332.343 352.302 332.689 352.564 332.95C352.825 333.202 353.25 333.389 353.838 333.51L355.252 333.818C356.166 334.014 356.838 334.313 357.268 334.714C357.697 335.115 357.912 335.647 357.912 336.31C357.912 337.075 357.641 337.701 357.1 338.186C356.558 338.662 355.858 338.947 355 339.04V340.23C355 340.361 354.953 340.473 354.86 340.566C354.776 340.659 354.664 340.706 354.524 340.706Z" fill="white"/>
<path d="M430.41 339.124C429.869 339.124 429.332 339.045 428.8 338.886C428.277 338.727 427.806 338.48 427.386 338.144C427.246 338.051 427.162 337.939 427.134 337.808C427.115 337.668 427.139 337.542 427.204 337.43C427.269 337.318 427.363 337.243 427.484 337.206C427.615 337.169 427.759 337.201 427.918 337.304C428.655 337.836 429.481 338.102 430.396 338.102C431.077 338.102 431.614 337.911 432.006 337.528C432.398 337.145 432.594 336.641 432.594 336.016C432.594 335.372 432.407 334.845 432.034 334.434C431.661 334.023 431.147 333.818 430.494 333.818C430.093 333.818 429.719 333.893 429.374 334.042C429.038 334.191 428.735 334.429 428.464 334.756C428.399 334.831 428.319 334.896 428.226 334.952C428.142 334.999 428.044 335.022 427.932 335.022C427.596 335.022 427.428 334.859 427.428 334.532V329.66C427.428 329.305 427.605 329.128 427.96 329.128H432.72C433.075 329.128 433.252 329.291 433.252 329.618C433.252 329.945 433.075 330.108 432.72 330.108H428.562V333.636C429.103 333.095 429.817 332.824 430.704 332.824C431.32 332.824 431.857 332.955 432.314 333.216C432.771 333.477 433.121 333.846 433.364 334.322C433.616 334.789 433.742 335.335 433.742 335.96C433.742 336.576 433.607 337.122 433.336 337.598C433.065 338.074 432.678 338.447 432.174 338.718C431.679 338.989 431.091 339.124 430.41 339.124ZM438.595 339.124C437.465 339.124 436.607 338.69 436.019 337.822C435.431 336.954 435.137 335.699 435.137 334.056C435.137 332.404 435.431 331.149 436.019 330.29C436.607 329.431 437.465 329.002 438.595 329.002C439.733 329.002 440.592 329.431 441.171 330.29C441.759 331.139 442.053 332.39 442.053 334.042C442.053 335.694 441.754 336.954 441.157 337.822C440.569 338.69 439.715 339.124 438.595 339.124ZM438.595 338.13C439.379 338.13 439.957 337.799 440.331 337.136C440.713 336.464 440.905 335.433 440.905 334.042C440.905 332.642 440.718 331.62 440.345 330.976C439.971 330.323 439.388 329.996 438.595 329.996C437.811 329.996 437.227 330.323 436.845 330.976C436.471 331.629 436.285 332.651 436.285 334.042C436.285 335.433 436.471 336.464 436.845 337.136C437.227 337.799 437.811 338.13 438.595 338.13ZM446.989 339.124C445.86 339.124 445.001 338.69 444.413 337.822C443.825 336.954 443.531 335.699 443.531 334.056C443.531 332.404 443.825 331.149 444.413 330.29C445.001 329.431 445.86 329.002 446.989 329.002C448.128 329.002 448.986 329.431 449.565 330.29C450.153 331.139 450.447 332.39 450.447 334.042C450.447 335.694 450.148 336.954 449.551 337.822C448.963 338.69 448.109 339.124 446.989 339.124ZM446.989 338.13C447.773 338.13 448.352 337.799 448.725 337.136C449.108 336.464 449.299 335.433 449.299 334.042C449.299 332.642 449.112 331.62 448.739 330.976C448.366 330.323 447.782 329.996 446.989 329.996C446.205 329.996 445.622 330.323 445.239 330.976C444.866 331.629 444.679 332.651 444.679 334.042C444.679 335.433 444.866 336.464 445.239 337.136C445.622 337.799 446.205 338.13 446.989 338.13ZM455.524 340.706C455.384 340.706 455.267 340.659 455.174 340.566C455.09 340.473 455.048 340.361 455.048 340.23V339.054C454.441 339.026 453.89 338.928 453.396 338.76C452.901 338.592 452.481 338.382 452.136 338.13C451.996 338.037 451.912 337.92 451.884 337.78C451.865 337.64 451.884 337.514 451.94 337.402C451.996 337.281 452.084 337.201 452.206 337.164C452.327 337.117 452.472 337.145 452.64 337.248C452.948 337.463 453.321 337.649 453.76 337.808C454.198 337.967 454.744 338.046 455.398 338.046C456.2 338.046 456.793 337.892 457.176 337.584C457.558 337.276 457.75 336.87 457.75 336.366C457.75 335.965 457.61 335.643 457.33 335.4C457.059 335.157 456.597 334.966 455.944 334.826L454.544 334.532C452.873 334.177 452.038 333.314 452.038 331.942C452.038 331.419 452.159 330.953 452.402 330.542C452.654 330.122 453.004 329.786 453.452 329.534C453.909 329.282 454.441 329.133 455.048 329.086V327.896C455.048 327.765 455.09 327.653 455.174 327.56C455.267 327.467 455.384 327.42 455.524 327.42C455.654 327.42 455.766 327.467 455.86 327.56C455.953 327.653 456 327.765 456 327.896V329.086C456.42 329.123 456.854 329.231 457.302 329.408C457.75 329.576 458.137 329.809 458.464 330.108C458.613 330.239 458.674 330.393 458.646 330.57C458.627 330.738 458.543 330.864 458.394 330.948C458.254 331.032 458.076 331.004 457.862 330.864C457.544 330.612 457.194 330.421 456.812 330.29C456.438 330.15 455.99 330.08 455.468 330.08C454.768 330.08 454.208 330.248 453.788 330.584C453.377 330.92 453.172 331.363 453.172 331.914C453.172 332.343 453.302 332.689 453.564 332.95C453.825 333.202 454.25 333.389 454.838 333.51L456.252 333.818C457.166 334.014 457.838 334.313 458.268 334.714C458.697 335.115 458.912 335.647 458.912 336.31C458.912 337.075 458.641 337.701 458.1 338.186C457.558 338.662 456.858 338.947 456 339.04V340.23C456 340.361 455.953 340.473 455.86 340.566C455.776 340.659 455.664 340.706 455.524 340.706Z" fill="white"/>
<path d="M532.536 339.124C531.369 339.124 530.469 338.704 529.834 337.864C529.209 337.015 528.896 335.829 528.896 334.308C528.896 332.6 529.246 331.289 529.946 330.374C530.646 329.459 531.626 329.002 532.886 329.002C533.315 329.002 533.754 329.086 534.202 329.254C534.659 329.422 535.061 329.66 535.406 329.968C535.527 330.071 535.593 330.187 535.602 330.318C535.621 330.449 535.597 330.57 535.532 330.682C535.467 330.794 535.373 330.869 535.252 330.906C535.14 330.934 535.009 330.892 534.86 330.78C534.543 330.509 534.216 330.318 533.88 330.206C533.544 330.085 533.203 330.024 532.858 330.024C531.943 330.024 531.239 330.365 530.744 331.046C530.259 331.727 530.016 332.74 530.016 334.084V334.77C530.193 334.154 530.52 333.673 530.996 333.328C531.481 332.983 532.051 332.81 532.704 332.81C533.283 332.81 533.796 332.945 534.244 333.216C534.692 333.477 535.042 333.841 535.294 334.308C535.546 334.775 535.672 335.311 535.672 335.918C535.672 336.543 535.537 337.099 535.266 337.584C535.005 338.06 534.636 338.438 534.16 338.718C533.693 338.989 533.152 339.124 532.536 339.124ZM532.466 338.144C533.091 338.144 533.595 337.943 533.978 337.542C534.37 337.141 534.566 336.613 534.566 335.96C534.566 335.316 534.37 334.793 533.978 334.392C533.595 333.981 533.091 333.776 532.466 333.776C531.841 333.776 531.332 333.981 530.94 334.392C530.557 334.793 530.366 335.316 530.366 335.96C530.366 336.613 530.557 337.141 530.94 337.542C531.332 337.943 531.841 338.144 532.466 338.144ZM540.595 339.124C539.465 339.124 538.607 338.69 538.019 337.822C537.431 336.954 537.137 335.699 537.137 334.056C537.137 332.404 537.431 331.149 538.019 330.29C538.607 329.431 539.465 329.002 540.595 329.002C541.733 329.002 542.592 329.431 543.171 330.29C543.759 331.139 544.053 332.39 544.053 334.042C544.053 335.694 543.754 336.954 543.157 337.822C542.569 338.69 541.715 339.124 540.595 339.124ZM540.595 338.13C541.379 338.13 541.957 337.799 542.331 337.136C542.713 336.464 542.905 335.433 542.905 334.042C542.905 332.642 542.718 331.62 542.345 330.976C541.971 330.323 541.388 329.996 540.595 329.996C539.811 329.996 539.227 330.323 538.845 330.976C538.471 331.629 538.285 332.651 538.285 334.042C538.285 335.433 538.471 336.464 538.845 337.136C539.227 337.799 539.811 338.13 540.595 338.13ZM548.989 339.124C547.86 339.124 547.001 338.69 546.413 337.822C545.825 336.954 545.531 335.699 545.531 334.056C545.531 332.404 545.825 331.149 546.413 330.29C547.001 329.431 547.86 329.002 548.989 329.002C550.128 329.002 550.986 329.431 551.565 330.29C552.153 331.139 552.447 332.39 552.447 334.042C552.447 335.694 552.148 336.954 551.551 337.822C550.963 338.69 550.109 339.124 548.989 339.124ZM548.989 338.13C549.773 338.13 550.352 337.799 550.725 337.136C551.108 336.464 551.299 335.433 551.299 334.042C551.299 332.642 551.112 331.62 550.739 330.976C550.366 330.323 549.782 329.996 548.989 329.996C548.205 329.996 547.622 330.323 547.239 330.976C546.866 331.629 546.679 332.651 546.679 334.042C546.679 335.433 546.866 336.464 547.239 337.136C547.622 337.799 548.205 338.13 548.989 338.13ZM557.524 340.706C557.384 340.706 557.267 340.659 557.174 340.566C557.09 340.473 557.048 340.361 557.048 340.23V339.054C556.441 339.026 555.89 338.928 555.396 338.76C554.901 338.592 554.481 338.382 554.136 338.13C553.996 338.037 553.912 337.92 553.884 337.78C553.865 337.64 553.884 337.514 553.94 337.402C553.996 337.281 554.084 337.201 554.206 337.164C554.327 337.117 554.472 337.145 554.64 337.248C554.948 337.463 555.321 337.649 555.76 337.808C556.198 337.967 556.744 338.046 557.398 338.046C558.2 338.046 558.793 337.892 559.176 337.584C559.558 337.276 559.75 336.87 559.75 336.366C559.75 335.965 559.61 335.643 559.33 335.4C559.059 335.157 558.597 334.966 557.944 334.826L556.544 334.532C554.873 334.177 554.038 333.314 554.038 331.942C554.038 331.419 554.159 330.953 554.402 330.542C554.654 330.122 555.004 329.786 555.452 329.534C555.909 329.282 556.441 329.133 557.048 329.086V327.896C557.048 327.765 557.09 327.653 557.174 327.56C557.267 327.467 557.384 327.42 557.524 327.42C557.654 327.42 557.766 327.467 557.86 327.56C557.953 327.653 558 327.765 558 327.896V329.086C558.42 329.123 558.854 329.231 559.302 329.408C559.75 329.576 560.137 329.809 560.464 330.108C560.613 330.239 560.674 330.393 560.646 330.57C560.627 330.738 560.543 330.864 560.394 330.948C560.254 331.032 560.076 331.004 559.862 330.864C559.544 330.612 559.194 330.421 558.812 330.29C558.438 330.15 557.99 330.08 557.468 330.08C556.768 330.08 556.208 330.248 555.788 330.584C555.377 330.92 555.172 331.363 555.172 331.914C555.172 332.343 555.302 332.689 555.564 332.95C555.825 333.202 556.25 333.389 556.838 333.51L558.252 333.818C559.166 334.014 559.838 334.313 560.268 334.714C560.697 335.115 560.912 335.647 560.912 336.31C560.912 337.075 560.641 337.701 560.1 338.186C559.558 338.662 558.858 338.947 558 339.04V340.23C558 340.361 557.953 340.473 557.86 340.566C557.776 340.659 557.664 340.706 557.524 340.706Z" fill="white"/>
<path d="M632.352 339.096C632.147 339.096 631.993 339.026 631.89 338.886C631.797 338.737 631.806 338.555 631.918 338.34L636.16 330.122H631.372C631.017 330.122 630.84 329.954 630.84 329.618C630.84 329.291 631.017 329.128 631.372 329.128H636.93C637.098 329.128 637.233 329.175 637.336 329.268C637.439 329.352 637.49 329.469 637.49 329.618C637.49 329.758 637.471 329.879 637.434 329.982C637.406 330.075 637.364 330.178 637.308 330.29L632.996 338.704C632.865 338.965 632.651 339.096 632.352 339.096ZM642.595 339.124C641.465 339.124 640.607 338.69 640.019 337.822C639.431 336.954 639.137 335.699 639.137 334.056C639.137 332.404 639.431 331.149 640.019 330.29C640.607 329.431 641.465 329.002 642.595 329.002C643.733 329.002 644.592 329.431 645.171 330.29C645.759 331.139 646.053 332.39 646.053 334.042C646.053 335.694 645.754 336.954 645.157 337.822C644.569 338.69 643.715 339.124 642.595 339.124ZM642.595 338.13C643.379 338.13 643.957 337.799 644.331 337.136C644.713 336.464 644.905 335.433 644.905 334.042C644.905 332.642 644.718 331.62 644.345 330.976C643.971 330.323 643.388 329.996 642.595 329.996C641.811 329.996 641.227 330.323 640.845 330.976C640.471 331.629 640.285 332.651 640.285 334.042C640.285 335.433 640.471 336.464 640.845 337.136C641.227 337.799 641.811 338.13 642.595 338.13ZM650.989 339.124C649.86 339.124 649.001 338.69 648.413 337.822C647.825 336.954 647.531 335.699 647.531 334.056C647.531 332.404 647.825 331.149 648.413 330.29C649.001 329.431 649.86 329.002 650.989 329.002C652.128 329.002 652.986 329.431 653.565 330.29C654.153 331.139 654.447 332.39 654.447 334.042C654.447 335.694 654.148 336.954 653.551 337.822C652.963 338.69 652.109 339.124 650.989 339.124ZM650.989 338.13C651.773 338.13 652.352 337.799 652.725 337.136C653.108 336.464 653.299 335.433 653.299 334.042C653.299 332.642 653.112 331.62 652.739 330.976C652.366 330.323 651.782 329.996 650.989 329.996C650.205 329.996 649.622 330.323 649.239 330.976C648.866 331.629 648.679 332.651 648.679 334.042C648.679 335.433 648.866 336.464 649.239 337.136C649.622 337.799 650.205 338.13 650.989 338.13ZM659.524 340.706C659.384 340.706 659.267 340.659 659.174 340.566C659.09 340.473 659.048 340.361 659.048 340.23V339.054C658.441 339.026 657.89 338.928 657.396 338.76C656.901 338.592 656.481 338.382 656.136 338.13C655.996 338.037 655.912 337.92 655.884 337.78C655.865 337.64 655.884 337.514 655.94 337.402C655.996 337.281 656.084 337.201 656.206 337.164C656.327 337.117 656.472 337.145 656.64 337.248C656.948 337.463 657.321 337.649 657.76 337.808C658.198 337.967 658.744 338.046 659.398 338.046C660.2 338.046 660.793 337.892 661.176 337.584C661.558 337.276 661.75 336.87 661.75 336.366C661.75 335.965 661.61 335.643 661.33 335.4C661.059 335.157 660.597 334.966 659.944 334.826L658.544 334.532C656.873 334.177 656.038 333.314 656.038 331.942C656.038 331.419 656.159 330.953 656.402 330.542C656.654 330.122 657.004 329.786 657.452 329.534C657.909 329.282 658.441 329.133 659.048 329.086V327.896C659.048 327.765 659.09 327.653 659.174 327.56C659.267 327.467 659.384 327.42 659.524 327.42C659.654 327.42 659.766 327.467 659.86 327.56C659.953 327.653 660 327.765 660 327.896V329.086C660.42 329.123 660.854 329.231 661.302 329.408C661.75 329.576 662.137 329.809 662.464 330.108C662.613 330.239 662.674 330.393 662.646 330.57C662.627 330.738 662.543 330.864 662.394 330.948C662.254 331.032 662.076 331.004 661.862 330.864C661.544 330.612 661.194 330.421 660.812 330.29C660.438 330.15 659.99 330.08 659.468 330.08C658.768 330.08 658.208 330.248 657.788 330.584C657.377 330.92 657.172 331.363 657.172 331.914C657.172 332.343 657.302 332.689 657.564 332.95C657.825 333.202 658.25 333.389 658.838 333.51L660.252 333.818C661.166 334.014 661.838 334.313 662.268 334.714C662.697 335.115 662.912 335.647 662.912 336.31C662.912 337.075 662.641 337.701 662.1 338.186C661.558 338.662 660.858 338.947 660 339.04V340.23C660 340.361 659.953 340.473 659.86 340.566C659.776 340.659 659.664 340.706 659.524 340.706Z" fill="white"/>
<path d="M735.2 339.124C734.089 339.124 733.226 338.886 732.61 338.41C731.994 337.925 731.686 337.248 731.686 336.38C731.686 335.773 731.849 335.255 732.176 334.826C732.512 334.397 732.955 334.103 733.506 333.944C733.011 333.757 732.624 333.459 732.344 333.048C732.064 332.637 731.924 332.166 731.924 331.634C731.924 330.803 732.218 330.159 732.806 329.702C733.403 329.235 734.201 329.002 735.2 329.002C736.199 329.002 736.997 329.235 737.594 329.702C738.191 330.159 738.49 330.803 738.49 331.634C738.49 332.166 738.345 332.642 738.056 333.062C737.776 333.473 737.393 333.767 736.908 333.944C737.459 334.103 737.897 334.397 738.224 334.826C738.551 335.255 738.714 335.773 738.714 336.38C738.714 337.248 738.406 337.925 737.79 338.41C737.174 338.886 736.311 339.124 735.2 339.124ZM735.2 333.524C735.881 333.524 736.413 333.365 736.796 333.048C737.188 332.721 737.384 332.283 737.384 331.732C737.384 331.172 737.188 330.738 736.796 330.43C736.413 330.113 735.881 329.954 735.2 329.954C734.519 329.954 733.987 330.113 733.604 330.43C733.221 330.738 733.03 331.172 733.03 331.732C733.03 332.283 733.221 332.721 733.604 333.048C733.987 333.365 734.519 333.524 735.2 333.524ZM735.2 338.172C736.805 338.172 737.608 337.551 737.608 336.31C737.608 335.087 736.805 334.476 735.2 334.476C733.595 334.476 732.792 335.087 732.792 336.31C732.792 337.551 733.595 338.172 735.2 338.172ZM743.595 339.124C742.465 339.124 741.607 338.69 741.019 337.822C740.431 336.954 740.137 335.699 740.137 334.056C740.137 332.404 740.431 331.149 741.019 330.29C741.607 329.431 742.465 329.002 743.595 329.002C744.733 329.002 745.592 329.431 746.171 330.29C746.759 331.139 747.053 332.39 747.053 334.042C747.053 335.694 746.754 336.954 746.157 337.822C745.569 338.69 744.715 339.124 743.595 339.124ZM743.595 338.13C744.379 338.13 744.957 337.799 745.331 337.136C745.713 336.464 745.905 335.433 745.905 334.042C745.905 332.642 745.718 331.62 745.345 330.976C744.971 330.323 744.388 329.996 743.595 329.996C742.811 329.996 742.227 330.323 741.845 330.976C741.471 331.629 741.285 332.651 741.285 334.042C741.285 335.433 741.471 336.464 741.845 337.136C742.227 337.799 742.811 338.13 743.595 338.13ZM751.989 339.124C750.86 339.124 750.001 338.69 749.413 337.822C748.825 336.954 748.531 335.699 748.531 334.056C748.531 332.404 748.825 331.149 749.413 330.29C750.001 329.431 750.86 329.002 751.989 329.002C753.128 329.002 753.986 329.431 754.565 330.29C755.153 331.139 755.447 332.39 755.447 334.042C755.447 335.694 755.148 336.954 754.551 337.822C753.963 338.69 753.109 339.124 751.989 339.124ZM751.989 338.13C752.773 338.13 753.352 337.799 753.725 337.136C754.108 336.464 754.299 335.433 754.299 334.042C754.299 332.642 754.112 331.62 753.739 330.976C753.366 330.323 752.782 329.996 751.989 329.996C751.205 329.996 750.622 330.323 750.239 330.976C749.866 331.629 749.679 332.651 749.679 334.042C749.679 335.433 749.866 336.464 750.239 337.136C750.622 337.799 751.205 338.13 751.989 338.13ZM760.524 340.706C760.384 340.706 760.267 340.659 760.174 340.566C760.09 340.473 760.048 340.361 760.048 340.23V339.054C759.441 339.026 758.89 338.928 758.396 338.76C757.901 338.592 757.481 338.382 757.136 338.13C756.996 338.037 756.912 337.92 756.884 337.78C756.865 337.64 756.884 337.514 756.94 337.402C756.996 337.281 757.084 337.201 757.206 337.164C757.327 337.117 757.472 337.145 757.64 337.248C757.948 337.463 758.321 337.649 758.76 337.808C759.198 337.967 759.744 338.046 760.398 338.046C761.2 338.046 761.793 337.892 762.176 337.584C762.558 337.276 762.75 336.87 762.75 336.366C762.75 335.965 762.61 335.643 762.33 335.4C762.059 335.157 761.597 334.966 760.944 334.826L759.544 334.532C757.873 334.177 757.038 333.314 757.038 331.942C757.038 331.419 757.159 330.953 757.402 330.542C757.654 330.122 758.004 329.786 758.452 329.534C758.909 329.282 759.441 329.133 760.048 329.086V327.896C760.048 327.765 760.09 327.653 760.174 327.56C760.267 327.467 760.384 327.42 760.524 327.42C760.654 327.42 760.766 327.467 760.86 327.56C760.953 327.653 761 327.765 761 327.896V329.086C761.42 329.123 761.854 329.231 762.302 329.408C762.75 329.576 763.137 329.809 763.464 330.108C763.613 330.239 763.674 330.393 763.646 330.57C763.627 330.738 763.543 330.864 763.394 330.948C763.254 331.032 763.076 331.004 762.862 330.864C762.544 330.612 762.194 330.421 761.812 330.29C761.438 330.15 760.99 330.08 760.468 330.08C759.768 330.08 759.208 330.248 758.788 330.584C758.377 330.92 758.172 331.363 758.172 331.914C758.172 332.343 758.302 332.689 758.564 332.95C758.825 333.202 759.25 333.389 759.838 333.51L761.252 333.818C762.166 334.014 762.838 334.313 763.268 334.714C763.697 335.115 763.912 335.647 763.912 336.31C763.912 337.075 763.641 337.701 763.1 338.186C762.558 338.662 761.858 338.947 761 339.04V340.23C761 340.361 760.953 340.473 760.86 340.566C760.776 340.659 760.664 340.706 760.524 340.706Z" fill="white"/>
<path d="M836.514 339.124C836.085 339.124 835.641 339.04 835.184 338.872C834.736 338.704 834.339 338.461 833.994 338.144C833.873 338.051 833.803 337.939 833.784 337.808C833.775 337.668 833.803 337.547 833.868 337.444C833.933 337.332 834.022 337.262 834.134 337.234C834.255 337.197 834.391 337.229 834.54 337.332C834.857 337.603 835.184 337.799 835.52 337.92C835.856 338.041 836.197 338.102 836.542 338.102C837.457 338.102 838.157 337.761 838.642 337.08C839.137 336.399 839.384 335.386 839.384 334.042V333.356C839.207 333.972 838.875 334.453 838.39 334.798C837.914 335.143 837.349 335.316 836.696 335.316C836.117 335.316 835.604 335.185 835.156 334.924C834.708 334.653 834.358 334.285 834.106 333.818C833.854 333.351 833.728 332.815 833.728 332.208C833.728 331.583 833.859 331.032 834.12 330.556C834.391 330.071 834.759 329.693 835.226 329.422C835.702 329.142 836.248 329.002 836.864 329.002C838.031 329.002 838.927 329.427 839.552 330.276C840.187 331.116 840.504 332.297 840.504 333.818C840.504 335.526 840.154 336.837 839.454 337.752C838.754 338.667 837.774 339.124 836.514 339.124ZM836.934 334.35C837.559 334.35 838.068 334.149 838.46 333.748C838.852 333.337 839.048 332.805 839.048 332.152C839.048 331.508 838.852 330.985 838.46 330.584C838.068 330.173 837.559 329.968 836.934 329.968C836.318 329.968 835.814 330.173 835.422 330.584C835.03 330.985 834.834 331.508 834.834 332.152C834.834 332.805 835.03 333.337 835.422 333.748C835.814 334.149 836.318 334.35 836.934 334.35ZM845.595 339.124C844.465 339.124 843.607 338.69 843.019 337.822C842.431 336.954 842.137 335.699 842.137 334.056C842.137 332.404 842.431 331.149 843.019 330.29C843.607 329.431 844.465 329.002 845.595 329.002C846.733 329.002 847.592 329.431 848.171 330.29C848.759 331.139 849.053 332.39 849.053 334.042C849.053 335.694 848.754 336.954 848.157 337.822C847.569 338.69 846.715 339.124 845.595 339.124ZM845.595 338.13C846.379 338.13 846.957 337.799 847.331 337.136C847.713 336.464 847.905 335.433 847.905 334.042C847.905 332.642 847.718 331.62 847.345 330.976C846.971 330.323 846.388 329.996 845.595 329.996C844.811 329.996 844.227 330.323 843.845 330.976C843.471 331.629 843.285 332.651 843.285 334.042C843.285 335.433 843.471 336.464 843.845 337.136C844.227 337.799 844.811 338.13 845.595 338.13ZM853.989 339.124C852.86 339.124 852.001 338.69 851.413 337.822C850.825 336.954 850.531 335.699 850.531 334.056C850.531 332.404 850.825 331.149 851.413 330.29C852.001 329.431 852.86 329.002 853.989 329.002C855.128 329.002 855.986 329.431 856.565 330.29C857.153 331.139 857.447 332.39 857.447 334.042C857.447 335.694 857.148 336.954 856.551 337.822C855.963 338.69 855.109 339.124 853.989 339.124ZM853.989 338.13C854.773 338.13 855.352 337.799 855.725 337.136C856.108 336.464 856.299 335.433 856.299 334.042C856.299 332.642 856.112 331.62 855.739 330.976C855.366 330.323 854.782 329.996 853.989 329.996C853.205 329.996 852.622 330.323 852.239 330.976C851.866 331.629 851.679 332.651 851.679 334.042C851.679 335.433 851.866 336.464 852.239 337.136C852.622 337.799 853.205 338.13 853.989 338.13ZM862.524 340.706C862.384 340.706 862.267 340.659 862.174 340.566C862.09 340.473 862.048 340.361 862.048 340.23V339.054C861.441 339.026 860.89 338.928 860.396 338.76C859.901 338.592 859.481 338.382 859.136 338.13C858.996 338.037 858.912 337.92 858.884 337.78C858.865 337.64 858.884 337.514 858.94 337.402C858.996 337.281 859.084 337.201 859.206 337.164C859.327 337.117 859.472 337.145 859.64 337.248C859.948 337.463 860.321 337.649 860.76 337.808C861.198 337.967 861.744 338.046 862.398 338.046C863.2 338.046 863.793 337.892 864.176 337.584C864.558 337.276 864.75 336.87 864.75 336.366C864.75 335.965 864.61 335.643 864.33 335.4C864.059 335.157 863.597 334.966 862.944 334.826L861.544 334.532C859.873 334.177 859.038 333.314 859.038 331.942C859.038 331.419 859.159 330.953 859.402 330.542C859.654 330.122 860.004 329.786 860.452 329.534C860.909 329.282 861.441 329.133 862.048 329.086V327.896C862.048 327.765 862.09 327.653 862.174 327.56C862.267 327.467 862.384 327.42 862.524 327.42C862.654 327.42 862.766 327.467 862.86 327.56C862.953 327.653 863 327.765 863 327.896V329.086C863.42 329.123 863.854 329.231 864.302 329.408C864.75 329.576 865.137 329.809 865.464 330.108C865.613 330.239 865.674 330.393 865.646 330.57C865.627 330.738 865.543 330.864 865.394 330.948C865.254 331.032 865.076 331.004 864.862 330.864C864.544 330.612 864.194 330.421 863.812 330.29C863.438 330.15 862.99 330.08 862.468 330.08C861.768 330.08 861.208 330.248 860.788 330.584C860.377 330.92 860.172 331.363 860.172 331.914C860.172 332.343 860.302 332.689 860.564 332.95C860.825 333.202 861.25 333.389 861.838 333.51L863.252 333.818C864.166 334.014 864.838 334.313 865.268 334.714C865.697 335.115 865.912 335.647 865.912 336.31C865.912 337.075 865.641 337.701 865.1 338.186C864.558 338.662 863.858 338.947 863 339.04V340.23C863 340.361 862.953 340.473 862.86 340.566C862.776 340.659 862.664 340.706 862.524 340.706Z" fill="white"/>
<path d="M937.17 338.998C936.815 338.998 936.638 338.83 936.638 338.494C936.638 338.177 936.815 338.018 937.17 338.018H938.99V330.472L937.562 331.424C937.413 331.517 937.273 331.545 937.142 331.508C937.021 331.461 936.927 331.382 936.862 331.27C936.797 331.158 936.773 331.037 936.792 330.906C936.82 330.775 936.909 330.659 937.058 330.556L938.99 329.282C939.111 329.207 939.228 329.147 939.34 329.1C939.452 329.053 939.564 329.03 939.676 329.03C939.807 329.03 939.914 329.072 939.998 329.156C940.091 329.231 940.138 329.352 940.138 329.52V338.018H941.818C942.173 338.018 942.35 338.177 942.35 338.494C942.35 338.83 942.173 338.998 941.818 338.998H937.17ZM947.595 339.124C946.465 339.124 945.607 338.69 945.019 337.822C944.431 336.954 944.137 335.699 944.137 334.056C944.137 332.404 944.431 331.149 945.019 330.29C945.607 329.431 946.465 329.002 947.595 329.002C948.733 329.002 949.592 329.431 950.171 330.29C950.759 331.139 951.053 332.39 951.053 334.042C951.053 335.694 950.754 336.954 950.157 337.822C949.569 338.69 948.715 339.124 947.595 339.124ZM947.595 338.13C948.379 338.13 948.957 337.799 949.331 337.136C949.713 336.464 949.905 335.433 949.905 334.042C949.905 332.642 949.718 331.62 949.345 330.976C948.971 330.323 948.388 329.996 947.595 329.996C946.811 329.996 946.227 330.323 945.845 330.976C945.471 331.629 945.285 332.651 945.285 334.042C945.285 335.433 945.471 336.464 945.845 337.136C946.227 337.799 946.811 338.13 947.595 338.13ZM955.989 339.124C954.86 339.124 954.001 338.69 953.413 337.822C952.825 336.954 952.531 335.699 952.531 334.056C952.531 332.404 952.825 331.149 953.413 330.29C954.001 329.431 954.86 329.002 955.989 329.002C957.128 329.002 957.986 329.431 958.565 330.29C959.153 331.139 959.447 332.39 959.447 334.042C959.447 335.694 959.148 336.954 958.551 337.822C957.963 338.69 957.109 339.124 955.989 339.124ZM955.989 338.13C956.773 338.13 957.352 337.799 957.725 337.136C958.108 336.464 958.299 335.433 958.299 334.042C958.299 332.642 958.112 331.62 957.739 330.976C957.366 330.323 956.782 329.996 955.989 329.996C955.205 329.996 954.622 330.323 954.239 330.976C953.866 331.629 953.679 332.651 953.679 334.042C953.679 335.433 953.866 336.464 954.239 337.136C954.622 337.799 955.205 338.13 955.989 338.13ZM964.384 339.124C963.254 339.124 962.396 338.69 961.808 337.822C961.22 336.954 960.926 335.699 960.926 334.056C960.926 332.404 961.22 331.149 961.808 330.29C962.396 329.431 963.254 329.002 964.384 329.002C965.522 329.002 966.381 329.431 966.96 330.29C967.548 331.139 967.842 332.39 967.842 334.042C967.842 335.694 967.543 336.954 966.946 337.822C966.358 338.69 965.504 339.124 964.384 339.124ZM964.384 338.13C965.168 338.13 965.746 337.799 966.12 337.136C966.502 336.464 966.694 335.433 966.694 334.042C966.694 332.642 966.507 331.62 966.134 330.976C965.76 330.323 965.177 329.996 964.384 329.996C963.6 329.996 963.016 330.323 962.634 330.976C962.26 331.629 962.074 332.651 962.074 334.042C962.074 335.433 962.26 336.464 962.634 337.136C963.016 337.799 963.6 338.13 964.384 338.13ZM972.918 340.706C972.778 340.706 972.661 340.659 972.568 340.566C972.484 340.473 972.442 340.361 972.442 340.23V339.054C971.835 339.026 971.285 338.928 970.79 338.76C970.295 338.592 969.875 338.382 969.53 338.13C969.39 338.037 969.306 337.92 969.278 337.78C969.259 337.64 969.278 337.514 969.334 337.402C969.39 337.281 969.479 337.201 969.6 337.164C969.721 337.117 969.866 337.145 970.034 337.248C970.342 337.463 970.715 337.649 971.154 337.808C971.593 337.967 972.139 338.046 972.792 338.046C973.595 338.046 974.187 337.892 974.57 337.584C974.953 337.276 975.144 336.87 975.144 336.366C975.144 335.965 975.004 335.643 974.724 335.4C974.453 335.157 973.991 334.966 973.338 334.826L971.938 334.532C970.267 334.177 969.432 333.314 969.432 331.942C969.432 331.419 969.553 330.953 969.796 330.542C970.048 330.122 970.398 329.786 970.846 329.534C971.303 329.282 971.835 329.133 972.442 329.086V327.896C972.442 327.765 972.484 327.653 972.568 327.56C972.661 327.467 972.778 327.42 972.918 327.42C973.049 327.42 973.161 327.467 973.254 327.56C973.347 327.653 973.394 327.765 973.394 327.896V329.086C973.814 329.123 974.248 329.231 974.696 329.408C975.144 329.576 975.531 329.809 975.858 330.108C976.007 330.239 976.068 330.393 976.04 330.57C976.021 330.738 975.937 330.864 975.788 330.948C975.648 331.032 975.471 331.004 975.256 330.864C974.939 330.612 974.589 330.421 974.206 330.29C973.833 330.15 973.385 330.08 972.862 330.08C972.162 330.08 971.602 330.248 971.182 330.584C970.771 330.92 970.566 331.363 970.566 331.914C970.566 332.343 970.697 332.689 970.958 332.95C971.219 333.202 971.644 333.389 972.232 333.51L973.646 333.818C974.561 334.014 975.233 334.313 975.662 334.714C976.091 335.115 976.306 335.647 976.306 336.31C976.306 337.075 976.035 337.701 975.494 338.186C974.953 338.662 974.253 338.947 973.394 339.04V340.23C973.394 340.361 973.347 340.473 973.254 340.566C973.17 340.659 973.058 340.706 972.918 340.706Z" fill="white"/>
<path d="M58 14.998V302.998H1013" stroke="url(#paint0_linear_415_2591)" stroke-width="2" stroke-linecap="round"/>
<path d="M58 302.999L85 256.999L119 241.254L136.5 206.754L189.5 197.754L242 159.754L272 121.754L340 109.254H395L446 62.999L497.5 53.2539L542 15.2539" stroke="url(#paint1_linear_415_2591)" stroke-width="2" stroke-linecap="round"/>
<path opacity="0.4" d="M58 14.998H1015" stroke="url(#paint2_linear_415_2591)" stroke-linecap="round" stroke-dasharray="2 2"/>
<path opacity="0.4" d="M58 62.998H1015" stroke="url(#paint3_linear_415_2591)" stroke-linecap="round" stroke-dasharray="2 2"/>
<path opacity="0.4" d="M58 110.998H1016" stroke="url(#paint4_linear_415_2591)" stroke-linecap="round" stroke-dasharray="2 2"/>
<path opacity="0.4" d="M58 158.998H1016" stroke="url(#paint5_linear_415_2591)" stroke-linecap="round" stroke-dasharray="2 2"/>
<path opacity="0.4" d="M58 206.998H1015" stroke="url(#paint6_linear_415_2591)" stroke-linecap="round" stroke-dasharray="2 2"/>
<path opacity="0.4" d="M58 256.998H1015" stroke="url(#paint7_linear_415_2591)" stroke-linecap="round" stroke-dasharray="2 2"/>
<defs>
<linearGradient id="paint0_linear_415_2591" x1="1012.79" y1="286.633" x2="722.299" y2="-254.317" gradientUnits="userSpaceOnUse">
<stop stop-color="#D600E2"/>
<stop offset="1" stop-color="#B5E200"/>
</linearGradient>
<linearGradient id="paint1_linear_415_2591" x1="884.852" y1="289.913" x2="649.705" y2="-167.589" gradientUnits="userSpaceOnUse">
<stop stop-color="#D600E2"/>
<stop offset="1" stop-color="#B5E200"/>
</linearGradient>
<linearGradient id="paint2_linear_415_2591" x1="1014.79" y1="15.9412" x2="1014.78" y2="13.5213" gradientUnits="userSpaceOnUse">
<stop stop-color="#D600E2"/>
<stop offset="1" stop-color="#B5E200"/>
</linearGradient>
<linearGradient id="paint3_linear_415_2591" x1="1014.79" y1="63.9412" x2="1014.78" y2="61.5213" gradientUnits="userSpaceOnUse">
<stop stop-color="#D600E2"/>
<stop offset="1" stop-color="#B5E200"/>
</linearGradient>
<linearGradient id="paint4_linear_415_2591" x1="1015.79" y1="111.941" x2="1015.78" y2="109.521" gradientUnits="userSpaceOnUse">
<stop stop-color="#D600E2"/>
<stop offset="1" stop-color="#B5E200"/>
</linearGradient>
<linearGradient id="paint5_linear_415_2591" x1="1015.79" y1="159.941" x2="1015.78" y2="157.521" gradientUnits="userSpaceOnUse">
<stop stop-color="#D600E2"/>
<stop offset="1" stop-color="#B5E200"/>
</linearGradient>
<linearGradient id="paint6_linear_415_2591" x1="1014.79" y1="207.941" x2="1014.78" y2="205.521" gradientUnits="userSpaceOnUse">
<stop stop-color="#D600E2"/>
<stop offset="1" stop-color="#B5E200"/>
</linearGradient>
<linearGradient id="paint7_linear_415_2591" x1="1014.79" y1="257.941" x2="1014.78" y2="255.521" gradientUnits="userSpaceOnUse">
<stop stop-color="#D600E2"/>
<stop offset="1" stop-color="#B5E200"/>
</linearGradient>
</defs>
</svg>
