<svg width="23" height="23" viewBox="0 0 23 23" fill="none" xmlns="http://www.w3.org/2000/svg">
<path d="M7.60987 0C10.5351 0 13.4603 0 16.3855 0C16.6266 0 17.0123 0.0329927 17.2534 0.0714843H17.2588C18.8875 0.340925 20.2322 1.14375 21.2716 2.44696C22.2734 3.70069 22.7556 5.15237 22.7503 6.78001C22.7395 9.74386 22.7449 12.7132 22.7449 15.6771C22.7449 15.9245 22.7503 16.1774 22.7235 16.4194C22.552 17.9645 21.9627 19.3173 20.8912 20.428C19.6697 21.7037 18.1856 22.4241 16.4391 22.4406C13.4442 22.4736 10.444 22.4461 7.44914 22.4571C6.19548 22.4626 4.95789 22.1161 3.8971 21.4178C2.47199 20.483 1.52907 19.1798 1.07903 17.5081C1.06832 17.4642 1.0576 17.4257 1.04689 17.3817C0.918308 16.8593 0.859375 16.3204 0.859375 15.7815C0.859375 12.7077 0.859375 9.62838 0.859375 6.55456C0.859375 6.30711 0.886163 5.9112 0.923665 5.66925V5.66375C1.04689 4.79495 1.3362 3.98112 1.78087 3.22779C2.5845 1.88609 3.69351 0.918298 5.14005 0.395913C5.26327 0.351923 5.38649 0.313431 5.51507 0.27494C6.20084 0.0879806 6.90267 0 7.60987 0ZM20.5055 11.223C20.5001 9.64488 20.5215 8.06673 20.4947 6.48857C20.4733 5.33383 20.0179 4.33855 19.2143 3.54122C18.3624 2.68891 17.3231 2.282 16.123 2.282C13.2406 2.2875 10.3583 2.282 7.47593 2.2875C7.30985 2.2875 7.14912 2.282 6.98304 2.29849C4.72752 2.54044 3.09347 4.39353 3.08811 6.72502C3.08275 9.72736 3.08811 12.7297 3.08275 15.732C3.08275 16.3039 3.18454 16.8483 3.37742 17.3817C3.94531 18.9323 5.5365 20.1476 7.13305 20.1586C10.2351 20.1806 13.3424 20.1861 16.4444 20.1531C17.5481 20.1421 18.5071 19.6582 19.2786 18.8499C20.1197 17.959 20.5162 16.8813 20.5055 15.6331C20.4947 14.1594 20.5055 12.6912 20.5055 11.223Z" fill="white"/>
<path d="M11.8076 5.18359C15.0335 5.23792 17.5738 7.74225 17.5684 10.9582C17.563 14.1633 15.0335 16.7002 11.8076 16.7002C8.56552 16.7002 6.04144 14.1416 6.04688 10.9365C6.05776 7.72052 8.59816 5.23792 11.8076 5.18359ZM15.2782 10.9582C15.2837 9.01342 13.766 7.49236 11.8294 7.48149C9.87107 7.47606 8.34249 8.99169 8.33705 10.9365C8.33161 12.8813 9.84387 14.4023 11.7859 14.4132C13.7497 14.4241 15.2782 12.9139 15.2782 10.9582Z" fill="white"/>
<path d="M16.4141 5.4596C16.4141 4.64985 17.0441 4.02566 17.8542 4.03129C18.6586 4.03691 19.3056 4.68359 19.2943 5.47085C19.2831 6.25249 18.6192 6.91041 17.8429 6.91041C17.0441 6.91041 16.4141 6.26373 16.4141 5.4596Z" fill="white"/>
</svg>
