<svg width="16" height="19" viewBox="0 0 16 19" fill="none" xmlns="http://www.w3.org/2000/svg">
<path d="M5.43481 0H13.5878C14.5842 0 15.3995 0.815294 15.3995 1.81176V16.3059C15.3995 17.3024 14.5842 18.1176 13.5878 18.1176H5.43481C4.43834 18.1176 3.62305 17.3024 3.62305 16.3059V15.4C3.62305 15.1597 3.71849 14.9293 3.88837 14.7594C4.05826 14.5896 4.28867 14.4941 4.52893 14.4941C4.76918 14.4941 4.9996 14.5896 5.16948 14.7594C5.33937 14.9293 5.43481 15.1597 5.43481 15.4V16.3059H13.5878V1.81176H5.43481V2.71765C5.43481 2.9579 5.33937 3.18832 5.16948 3.3582C4.9996 3.52809 4.76918 3.62353 4.52893 3.62353C4.28867 3.62353 4.05826 3.52809 3.88837 3.3582C3.71849 3.18832 3.62305 2.9579 3.62305 2.71765V1.81176C3.62305 0.815294 4.43834 0 5.43481 0Z" fill="white"/>
<path d="M7.06135 12.9497C7.41465 13.303 7.98535 13.303 8.33865 12.9497L11.589 9.69938C11.7588 9.52951 11.8542 9.29913 11.8542 9.05893C11.8542 8.81872 11.7588 8.58834 11.589 8.41847L8.33865 5.16816C8.16645 5.01252 7.94103 4.929 7.709 4.93486C7.47696 4.94072 7.25605 5.03551 7.09192 5.19963C6.92779 5.36376 6.833 5.58467 6.82715 5.81671C6.82129 6.04875 6.90481 6.27416 7.06045 6.44636L8.75988 8.15304H0.905882C0.665627 8.15304 0.435213 8.24848 0.265327 8.41837C0.0954409 8.58826 0 8.81867 0 9.05893C0 9.29918 0.0954409 9.52959 0.265327 9.69948C0.435213 9.86937 0.665627 9.96481 0.905882 9.96481H8.75988L7.06045 11.6715C6.89135 11.8413 6.79648 12.0712 6.79665 12.3108C6.79682 12.5504 6.89201 12.7802 7.06135 12.9497V12.9497Z" fill="white"/>
</svg>
