<svg width="204" height="45" viewBox="0 0 204 45" fill="none" xmlns="http://www.w3.org/2000/svg">
<path d="M21.0088 6.3961C21.0088 5.18084 22.0592 4.15747 23.3066 4.15747C24.6197 4.15747 25.6044 5.18084 25.6044 6.3961V34.6669C25.6044 40.2955 29.8719 44.9007 35.6493 44.9007C41.4267 44.9007 46.088 40.2955 46.088 34.6669V2.11071C46.088 0.959415 45.1689 0 43.9871 0C42.8054 0 41.8206 0.959415 41.8206 2.11071V34.6669C41.8206 37.9929 39.0632 40.7432 35.6493 40.7432C32.1697 40.7432 29.8719 37.9929 29.8719 34.6669V6.3961C29.8719 2.87825 26.9175 0 23.3066 0C19.6957 0 16.7414 2.87825 16.7414 6.3961V34.6669C16.7414 37.9929 13.984 40.7432 10.5044 40.7432C7.09046 40.7432 4.26741 37.9929 4.26741 34.6669V2.11071C4.26741 0.959415 3.34827 0 2.16653 0C0.984786 0 0 0.959415 0 2.11071V34.6669C0 40.2955 4.72697 44.9007 10.5044 44.9007C16.3475 44.9007 21.0088 40.2955 21.0088 34.6669V6.3961Z" fill="white"/>
<path d="M75.6813 0C62.9448 0 52.6373 10.0419 52.6373 22.4503C52.6373 34.8588 62.9448 44.9007 75.6813 44.9007C88.4179 44.9007 98.7253 34.8588 98.7253 22.4503C98.7253 10.0419 88.4179 0 75.6813 0ZM75.6813 40.7432C65.3083 40.7432 56.9047 32.5562 56.9047 22.4503C56.9047 12.3445 65.3083 4.15747 75.6813 4.15747C86.0544 4.15747 94.4579 12.3445 94.4579 22.4503C94.4579 32.5562 86.0544 40.7432 75.6813 40.7432Z" fill="white"/>
<path d="M128.319 0C115.582 0 105.275 10.0419 105.275 22.4503C105.275 34.8588 115.582 44.9007 128.319 44.9007C141.055 44.9007 151.363 34.8588 151.363 22.4503C151.363 10.0419 141.055 0 128.319 0ZM128.319 40.7432C117.946 40.7432 109.542 32.5562 109.542 22.4503C109.542 12.3445 117.946 4.15747 128.319 4.15747C138.692 4.15747 147.095 12.3445 147.095 22.4503C147.095 32.5562 138.692 40.7432 128.319 40.7432Z" fill="white"/>
<path d="M202.227 44.325C202.753 43.3016 203.081 42.1503 202.227 41.3828L198.157 37.4172C201.833 33.4516 204 28.2068 204 22.4503C204 10.0419 193.693 0 180.956 0C168.219 0 157.912 10.0419 157.912 22.4503C157.912 34.8588 168.219 44.9007 180.956 44.9007C186.274 44.9007 191.198 43.1737 195.071 40.2315L199.273 44.325C200.061 45.0925 201.702 45.3484 202.227 44.325ZM195.137 34.475L178.33 18.037C177.476 17.2055 175.835 17.0136 175.31 18.037C174.785 19.0604 174.522 20.1477 175.31 20.9792L192.051 37.2893C188.9 39.464 185.092 40.7432 180.956 40.7432C170.583 40.7432 162.179 32.5562 162.179 22.4503C162.179 12.3445 170.583 4.15747 180.956 4.15747C191.329 4.15747 199.733 12.3445 199.733 22.4503C199.733 27.0555 198.026 31.277 195.137 34.475Z" fill="white"/>
</svg>
