<svg width="25" height="23" viewBox="0 0 25 23" fill="none" xmlns="http://www.w3.org/2000/svg">
<path d="M0 10.1884C0.208868 9.71692 0.597796 9.47356 1.02994 9.29864C2.70088 8.61418 4.37903 7.93732 6.05718 7.26046C11.7975 4.9409 17.5449 2.61373 23.2852 0.29417C23.4221 0.240935 23.5661 0.187699 23.703 0.164883C24.4736 0.0508065 25.021 0.537534 24.9994 1.39691C24.985 1.95969 24.8625 2.51487 24.7545 3.07004C23.5733 8.9412 22.3849 14.8047 21.1965 20.6683C21.1389 20.9649 21.0381 21.2691 20.9084 21.5353C20.6492 22.06 20.2098 22.2578 19.6768 22.0905C19.4176 22.0068 19.1511 21.8851 18.935 21.7178C17.1416 20.3489 15.3626 18.9648 13.5764 17.5806C13.5044 17.5274 13.4324 17.4741 13.346 17.4057C13.2739 17.4741 13.2091 17.5274 13.1443 17.5958C12.2296 18.516 11.3149 19.4363 10.4074 20.3565C10.1409 20.6303 9.82401 20.79 9.41348 20.7824C9.43509 20.4097 9.45669 20.0447 9.4855 19.6796C9.59354 18.0673 9.70158 16.4551 9.81681 14.8504C9.82402 14.7287 9.89604 14.5918 9.98247 14.5081C13.2811 11.3748 19.7705 5.20708 20.3683 4.6367C20.4043 4.59867 20.4403 4.56065 20.4619 4.51501C20.4691 4.4998 20.4763 4.47699 20.4835 4.46178C20.5339 4.25644 20.3755 4.07392 20.1882 4.11194C20.1882 4.11194 20.1882 4.11194 20.181 4.11194C20.0154 4.14236 19.8497 4.24884 19.6984 4.3477C15.3914 7.19202 11.0844 10.0363 6.77022 12.8807C6.67658 12.9415 6.52534 12.9795 6.4173 12.9415C4.5807 12.3483 2.7513 11.7475 0.921902 11.1467C0.547379 11.025 0.216071 10.8501 0.00720236 10.4774C0.00720236 10.3786 0.00720236 10.2873 0 10.1884Z" fill="white"/>
</svg>
