<svg width="445" height="277" viewBox="0 0 445 277" fill="none" xmlns="http://www.w3.org/2000/svg">
<g>
<ellipse cx="411.811" cy="92.8007" rx="18.0724" ry="19.2773" fill="url(#paint0_radial_544_2269)"/>
<path d="M428.883 92.8007C428.883 102.957 421.18 111.078 411.811 111.078C402.442 111.078 394.738 102.957 394.738 92.8007C394.738 82.6447 402.442 74.5234 411.811 74.5234C421.18 74.5234 428.883 82.6447 428.883 92.8007Z" stroke="url(#paint1_linear_544_2269)" stroke-width="2"/>
</g>
<g>
<rect x="143.645" y="28.8281" width="42.4012" height="18.9558" rx="7" transform="rotate(-41.7818 143.645 28.8281)" fill="url(#paint2_radial_544_2269)"/>
<rect x="145.057" y="28.9075" width="40.4012" height="16.9558" rx="6" transform="rotate(-41.7818 145.057 28.9075)" stroke="url(#paint3_linear_544_2269)" stroke-width="2"/>
</g>
<g>
<rect x="0.964844" y="110.971" width="48.3278" height="48.3278" rx="3" transform="rotate(-25.2044 0.964844 110.971)" fill="url(#paint4_radial_544_2269)"/>
<rect x="1.63017" y="111.21" width="47.3278" height="47.3278" rx="2.5" transform="rotate(-25.2044 1.63017 111.21)" stroke="url(#paint5_linear_544_2269)"/>
</g>
<g>
<path d="M399.919 219.761C401.037 216.888 404.849 216.307 406.773 218.717L440.522 260.997C442.441 263.402 441.04 266.983 437.998 267.447L384.628 275.581C381.586 276.045 379.182 273.044 380.298 270.176L399.919 219.761Z" fill="url(#paint6_radial_544_2269)"/>
<path d="M400.851 220.124C401.69 217.969 404.549 217.533 405.991 219.341L439.74 261.621C441.18 263.425 440.129 266.111 437.848 266.458L384.477 274.593C382.196 274.94 380.393 272.689 381.23 270.539L400.851 220.124Z" stroke="url(#paint7_linear_544_2269)" stroke-width="2"/>
</g>
<defs>
<filter id="filter0_b_544_2269" x="391.738" y="71.5234" width="40.1445" height="42.5547" filterUnits="userSpaceOnUse" color-interpolation-filters="sRGB">
<feFlood flood-opacity="0" result="BackgroundImageFix"/>
<feGaussianBlur in="BackgroundImage" stdDeviation="1"/>
<feComposite in2="SourceAlpha" operator="in" result="effect1_backgroundBlur_544_2269"/>
<feBlend mode="normal" in="SourceGraphic" in2="effect1_backgroundBlur_544_2269" result="shape"/>
</filter>
<filter id="filter1_b_544_2269" x="135.527" y="-7.53906" width="60.4805" height="58.6191" filterUnits="userSpaceOnUse" color-interpolation-filters="sRGB">
<feFlood flood-opacity="0" result="BackgroundImageFix"/>
<feGaussianBlur in="BackgroundImage" stdDeviation="5.5"/>
<feComposite in2="SourceAlpha" operator="in" result="effect1_backgroundBlur_544_2269"/>
<feBlend mode="normal" in="SourceGraphic" in2="effect1_backgroundBlur_544_2269" result="shape"/>
</filter>
<filter id="filter2_b_544_2269" x="-1.04297" y="88.3809" width="68.3242" height="68.3262" filterUnits="userSpaceOnUse" color-interpolation-filters="sRGB">
<feFlood flood-opacity="0" result="BackgroundImageFix"/>
<feGaussianBlur in="BackgroundImage" stdDeviation="1.5"/>
<feComposite in2="SourceAlpha" operator="in" result="effect1_backgroundBlur_544_2269"/>
<feBlend mode="normal" in="SourceGraphic" in2="effect1_backgroundBlur_544_2269" result="shape"/>
</filter>
<filter id="filter3_b_544_2269" x="377.02" y="214.211" width="67.3789" height="64.418" filterUnits="userSpaceOnUse" color-interpolation-filters="sRGB">
<feFlood flood-opacity="0" result="BackgroundImageFix"/>
<feGaussianBlur in="BackgroundImage" stdDeviation="1.5"/>
<feComposite in2="SourceAlpha" operator="in" result="effect1_backgroundBlur_544_2269"/>
<feBlend mode="normal" in="SourceGraphic" in2="effect1_backgroundBlur_544_2269" result="shape"/>
</filter>
<radialGradient id="paint0_radial_544_2269" cx="0" cy="0" r="1" gradientUnits="userSpaceOnUse" gradientTransform="translate(413.662 104.878) rotate(-50.0504) scale(36.9618 36.6202)">
<stop stop-color="#D600E2"/>
<stop offset="1" stop-opacity="0"/>
</radialGradient>
<linearGradient id="paint1_linear_544_2269" x1="409.967" y1="62.1144" x2="412.064" y2="112.067" gradientUnits="userSpaceOnUse">
<stop stop-opacity="0"/>
<stop offset="0.919792" stop-color="#D600E2"/>
</linearGradient>
<radialGradient id="paint2_radial_544_2269" cx="0" cy="0" r="1" gradientUnits="userSpaceOnUse" gradientTransform="translate(158.99 35.6883) rotate(33.6508) scale(44.145 43.9962)">
<stop stop-color="#D600E2"/>
<stop offset="0.777375" stop-color="#050505" stop-opacity="0"/>
</radialGradient>
<linearGradient id="paint3_linear_544_2269" x1="145.343" y1="28.4541" x2="153.159" y2="52.8009" gradientUnits="userSpaceOnUse">
<stop stop-color="#D600E2"/>
<stop offset="1" stop-color="#101010" stop-opacity="0"/>
</linearGradient>
<radialGradient id="paint4_radial_544_2269" cx="0" cy="0" r="1" gradientUnits="userSpaceOnUse" gradientTransform="translate(18.4549 128.461) rotate(56.1152) scale(75.1251)">
<stop stop-color="#00D5E2"/>
<stop offset="0.777375" stop-color="#050505" stop-opacity="0"/>
</radialGradient>
<linearGradient id="paint5_linear_544_2269" x1="2.901" y1="110.017" x2="35.3404" y2="155.192" gradientUnits="userSpaceOnUse">
<stop stop-color="#00D5E2"/>
<stop offset="0.0001" stop-color="#605E5E"/>
<stop offset="1" stop-color="#101010" stop-opacity="0"/>
</linearGradient>
<radialGradient id="paint6_radial_544_2269" cx="0" cy="0" r="1" gradientUnits="userSpaceOnUse" gradientTransform="translate(412.317 227.61) rotate(129.232) scale(63.031 63.168)">
<stop stop-color="#00D5E2"/>
<stop offset="0.821326" stop-opacity="0"/>
</radialGradient>
<linearGradient id="paint7_linear_544_2269" x1="401.779" y1="208.96" x2="413.612" y2="286.596" gradientUnits="userSpaceOnUse">
<stop stop-color="#00D5E2"/>
<stop offset="1" stop-color="#7D7D7D" stop-opacity="0"/>
</linearGradient>
</defs>
</svg>
