<svg width="305" height="173" viewBox="0 0 305 173" fill="none" xmlns="http://www.w3.org/2000/svg">
<g filter="url(#filter0_b_578_2246)">
<rect x="304.219" y="33.5918" width="42.1679" height="42.1679" rx="5" transform="rotate(141.773 304.219 33.5918)" fill="url(#paint0_radial_578_2246)"/>
<rect x="302.814" y="33.425" width="40.1679" height="40.1679" rx="4" transform="rotate(141.773 302.814 33.425)" stroke="url(#paint1_linear_578_2246)" stroke-width="2"/>
</g>
<g filter="url(#filter1_b_578_2246)">
<path d="M26.7404 116.835C26.5894 113.744 29.8559 111.659 32.5959 113.099L76.1732 135.992C78.8922 137.42 79.0537 141.253 76.4645 142.905L35.2879 169.178C32.6987 170.83 29.2908 169.069 29.1411 166.001L26.7404 116.835Z" fill="url(#paint2_radial_578_2246)"/>
<path d="M27.7392 116.786C27.626 114.468 30.0758 112.905 32.1308 113.984L75.7082 136.877C77.7474 137.948 77.8685 140.823 75.9266 142.062L34.75 168.335C32.8081 169.574 30.2522 168.253 30.1399 165.952L27.7392 116.786Z" stroke="url(#paint3_linear_578_2246)" stroke-width="2"/>
</g>
<defs>
<filter id="filter0_b_578_2246" x="244.023" y="-0.511719" width="61.1719" height="61.1738" filterUnits="userSpaceOnUse" color-interpolation-filters="sRGB">
<feFlood flood-opacity="0" result="BackgroundImageFix"/>
<feGaussianBlur in="BackgroundImage" stdDeviation="1.5"/>
<feComposite in2="SourceAlpha" operator="in" result="effect1_backgroundBlur_578_2246"/>
<feBlend mode="normal" in="SourceGraphic" in2="effect1_backgroundBlur_578_2246" result="shape"/>
</filter>
<filter id="filter1_b_578_2246" x="23.7344" y="109.633" width="57.5781" height="63.1797" filterUnits="userSpaceOnUse" color-interpolation-filters="sRGB">
<feFlood flood-opacity="0" result="BackgroundImageFix"/>
<feGaussianBlur in="BackgroundImage" stdDeviation="1.5"/>
<feComposite in2="SourceAlpha" operator="in" result="effect1_backgroundBlur_578_2246"/>
<feBlend mode="normal" in="SourceGraphic" in2="effect1_backgroundBlur_578_2246" result="shape"/>
</filter>
<radialGradient id="paint0_radial_578_2246" cx="0" cy="0" r="1" gradientUnits="userSpaceOnUse" gradientTransform="translate(319.479 48.8525) rotate(56.1152) scale(65.5495)">
<stop stop-color="#E94D10"/>
<stop offset="0.777375" stop-color="#050505" stop-opacity="0"/>
</radialGradient>
<linearGradient id="paint1_linear_578_2246" x1="305.908" y1="32.7598" x2="334.213" y2="72.1764" gradientUnits="userSpaceOnUse">
<stop stop-color="#E94D10"/>
<stop offset="0.0001" stop-color="#605E5E"/>
<stop offset="1" stop-color="#101010" stop-opacity="0"/>
</linearGradient>
<radialGradient id="paint2_radial_578_2246" cx="0" cy="0" r="1" gradientUnits="userSpaceOnUse" gradientTransform="translate(40.1527 118.338) rotate(105.142) scale(58.403 58.5729)">
<stop stop-color="#E94D10"/>
<stop offset="0.821326" stop-opacity="0"/>
</radialGradient>
<linearGradient id="paint3_linear_578_2246" x1="24.2086" y1="106.41" x2="63.5116" y2="168.008" gradientUnits="userSpaceOnUse">
<stop stop-color="#E94D10"/>
<stop offset="1" stop-color="#7D7D7D" stop-opacity="0"/>
</linearGradient>
</defs>
</svg>
