<svg width="80" height="354" viewBox="0 0 80 354" fill="none" xmlns="http://www.w3.org/2000/svg">
<g>
<ellipse cx="47.7613" cy="18.3814" rx="17.6148" ry="16.849" transform="rotate(-2.42532 47.7613 18.3814)" fill="url(#paint0_radial_578_2248)"/>
<path d="M64.3612 17.6783C64.7299 26.3823 57.6422 33.8261 48.432 34.2162C39.2217 34.6063 31.53 27.7884 31.1613 19.0845C30.7927 10.3806 37.8804 2.93676 47.0906 2.54666C56.3008 2.15657 63.9926 8.97443 64.3612 17.6783Z" stroke="url(#paint1_linear_578_2248)" stroke-width="2"/>
</g>
<g>
<rect x="22.3438" y="298.57" width="45.852" height="45.852" rx="5" transform="rotate(9.29244 22.3438 298.57)" fill="url(#paint2_radial_578_2248)"/>
<rect x="23.1692" y="299.719" width="43.852" height="43.852" rx="4" transform="rotate(9.29244 23.1692 299.719)" stroke="url(#paint3_linear_578_2248)" stroke-width="2"/>
</g>
<defs>
<filter id="filter0_b_578_2248" x="28.1484" y="-0.46875" width="39.2266" height="37.7012" filterUnits="userSpaceOnUse" color-interpolation-filters="sRGB">
<feFlood flood-opacity="0" result="BackgroundImageFix"/>
<feGaussianBlur in="BackgroundImage" stdDeviation="1"/>
<feComposite in2="SourceAlpha" operator="in" result="effect1_backgroundBlur_578_2248"/>
<feBlend mode="normal" in="SourceGraphic" in2="effect1_backgroundBlur_578_2248" result="shape"/>
</filter>
<filter id="filter1_b_578_2248" x="12.6797" y="296.311" width="57.1719" height="57.1738" filterUnits="userSpaceOnUse" color-interpolation-filters="sRGB">
<feFlood flood-opacity="0" result="BackgroundImageFix"/>
<feGaussianBlur in="BackgroundImage" stdDeviation="1.5"/>
<feComposite in2="SourceAlpha" operator="in" result="effect1_backgroundBlur_578_2248"/>
<feBlend mode="normal" in="SourceGraphic" in2="effect1_backgroundBlur_578_2248" result="shape"/>
</filter>
<radialGradient id="paint0_radial_578_2248" cx="0" cy="0" r="1" gradientUnits="userSpaceOnUse" gradientTransform="translate(49.5652 28.9374) rotate(-46.9529) scale(33.8892 34.0253)">
<stop stop-color="#D600E2"/>
<stop offset="1" stop-opacity="0"/>
</radialGradient>
<linearGradient id="paint1_linear_578_2248" x1="44.8305" y1="-8.33928" x2="48.322" y2="35.2275" gradientUnits="userSpaceOnUse">
<stop stop-opacity="0"/>
<stop offset="0.919792" stop-color="#D600E2"/>
</linearGradient>
<radialGradient id="paint2_radial_578_2248" cx="0" cy="0" r="1" gradientUnits="userSpaceOnUse" gradientTransform="translate(38.9378 315.164) rotate(56.1152) scale(71.2764)">
<stop stop-color="#D600E2"/>
<stop offset="0.777375" stop-color="#050505" stop-opacity="0"/>
</radialGradient>
<linearGradient id="paint3_linear_578_2248" x1="24.1807" y1="297.666" x2="54.9582" y2="340.526" gradientUnits="userSpaceOnUse">
<stop stop-color="#D600E2"/>
<stop offset="0.0001" stop-color="#605E5E"/>
<stop offset="1" stop-color="#101010" stop-opacity="0"/>
</linearGradient>
</defs>
</svg>
