<svg width="328" height="344" viewBox="0 0 328 344" fill="none" xmlns="http://www.w3.org/2000/svg">
<g filter="url(#filter0_b_577_2242)">
<circle cx="44.2931" cy="18.2936" r="12.9871" transform="rotate(129.867 44.2931 18.2936)" fill="url(#paint0_radial_577_2242)"/>
<circle cx="44.2931" cy="18.2936" r="11.9871" transform="rotate(129.867 44.2931 18.2936)" stroke="url(#paint1_linear_577_2242)" stroke-width="2"/>
</g>
<g filter="url(#filter1_b_577_2242)">
<circle cx="295.443" cy="311.772" r="22.587" transform="rotate(129.867 295.443 311.772)" fill="url(#paint2_radial_577_2242)"/>
<circle cx="295.443" cy="311.772" r="21.587" transform="rotate(129.867 295.443 311.772)" stroke="url(#paint3_linear_577_2242)" stroke-width="2"/>
</g>
<g filter="url(#filter2_b_577_2242)">
<path d="M21.1013 269.847C21.0515 267.526 23.5431 266.031 25.5679 267.166L59.5162 286.201C61.5254 287.328 61.568 290.205 59.593 291.39L26.4804 311.267C24.5054 312.452 21.9865 311.062 21.9371 308.759L21.1013 269.847Z" fill="url(#paint4_radial_577_2242)"/>
<path d="M22.1011 269.826C22.0679 268.279 23.729 267.281 25.0788 268.038L59.0271 287.073C60.3666 287.825 60.395 289.742 59.0783 290.533L25.9657 310.409C24.6491 311.2 22.9698 310.273 22.9368 308.738L22.1011 269.826Z" stroke="url(#paint5_linear_577_2242)" stroke-width="2"/>
</g>
<defs>
<filter id="filter0_b_577_2242" x="29.3047" y="3.30664" width="29.9766" height="29.9746" filterUnits="userSpaceOnUse" color-interpolation-filters="sRGB">
<feFlood flood-opacity="0" result="BackgroundImageFix"/>
<feGaussianBlur in="BackgroundImage" stdDeviation="1"/>
<feComposite in2="SourceAlpha" operator="in" result="effect1_backgroundBlur_577_2242"/>
<feBlend mode="normal" in="SourceGraphic" in2="effect1_backgroundBlur_577_2242" result="shape"/>
</filter>
<filter id="filter1_b_577_2242" x="270.855" y="287.184" width="49.1758" height="49.1758" filterUnits="userSpaceOnUse" color-interpolation-filters="sRGB">
<feFlood flood-opacity="0" result="BackgroundImageFix"/>
<feGaussianBlur in="BackgroundImage" stdDeviation="1"/>
<feComposite in2="SourceAlpha" operator="in" result="effect1_backgroundBlur_577_2242"/>
<feBlend mode="normal" in="SourceGraphic" in2="effect1_backgroundBlur_577_2242" result="shape"/>
</filter>
<filter id="filter2_b_577_2242" x="18.1016" y="263.777" width="45.9492" height="50.9219" filterUnits="userSpaceOnUse" color-interpolation-filters="sRGB">
<feFlood flood-opacity="0" result="BackgroundImageFix"/>
<feGaussianBlur in="BackgroundImage" stdDeviation="1.5"/>
<feComposite in2="SourceAlpha" operator="in" result="effect1_backgroundBlur_577_2242"/>
<feBlend mode="normal" in="SourceGraphic" in2="effect1_backgroundBlur_577_2242" result="shape"/>
</filter>
<radialGradient id="paint0_radial_577_2242" cx="0" cy="0" r="1" gradientUnits="userSpaceOnUse" gradientTransform="translate(45.6231 26.4301) rotate(-48.221) scale(25.5986)">
<stop stop-color="#D600E2"/>
<stop offset="1" stop-opacity="0"/>
</radialGradient>
<linearGradient id="paint1_linear_577_2242" x1="42.9679" y1="-2.37969" x2="44.2931" y2="31.2807" gradientUnits="userSpaceOnUse">
<stop stop-opacity="0"/>
<stop offset="0.919792" stop-color="#D600E2"/>
</linearGradient>
<radialGradient id="paint2_radial_577_2242" cx="0" cy="0" r="1" gradientUnits="userSpaceOnUse" gradientTransform="translate(297.756 325.923) rotate(-48.221) scale(44.5209)">
<stop stop-color="#D600E2"/>
<stop offset="1" stop-opacity="0"/>
</radialGradient>
<linearGradient id="paint3_linear_577_2242" x1="293.138" y1="275.817" x2="295.443" y2="334.359" gradientUnits="userSpaceOnUse">
<stop stop-opacity="0"/>
<stop offset="0.919792" stop-color="#D600E2"/>
</linearGradient>
<radialGradient id="paint4_radial_577_2242" cx="0" cy="0" r="1" gradientUnits="userSpaceOnUse" gradientTransform="translate(31.5548 271.53) rotate(106.707) scale(45.6549 45.7878)">
<stop stop-color="#00E23F"/>
<stop offset="0.821326" stop-opacity="0"/>
</radialGradient>
<linearGradient id="paint5_linear_577_2242" x1="19.3503" y1="261.869" x2="48.7477" y2="310.842" gradientUnits="userSpaceOnUse">
<stop stop-color="#00E23F"/>
<stop offset="1" stop-color="#7D7D7D" stop-opacity="0"/>
</linearGradient>
</defs>
</svg>
