<svg width="336" height="396" viewBox="0 0 336 396" fill="none" xmlns="http://www.w3.org/2000/svg">
<g filter="url(#filter0_b_543_2266)">
<path d="M296.092 18.3677C297.997 17.0411 300.622 18.2877 300.798 20.6023L305.121 77.5272C305.296 79.824 302.924 81.4524 300.843 80.4644L249.671 56.1646C247.591 55.1765 247.354 52.3092 249.244 50.9928L296.092 18.3677Z" fill="url(#paint0_radial_543_2266)"/>
<path d="M296.663 19.1883C297.933 18.3039 299.683 19.135 299.8 20.678L304.124 77.6029C304.24 79.1342 302.659 80.2198 301.272 79.561L250.1 55.2613C248.713 54.6026 248.555 52.691 249.815 51.8134L296.663 19.1883Z" stroke="url(#paint1_linear_543_2266)" stroke-width="2"/>
</g>
<g filter="url(#filter1_b_543_2266)">
<circle cx="283.945" cy="366.519" r="22.6995" transform="rotate(173.807 283.945 366.519)" fill="url(#paint2_radial_543_2266)"/>
<circle cx="283.945" cy="366.519" r="21.6995" transform="rotate(173.807 283.945 366.519)" stroke="url(#paint3_linear_543_2266)" stroke-width="2"/>
</g>
<g filter="url(#filter2_b_543_2266)">
<rect x="24.5938" y="266.012" width="36.7432" height="36.7432" rx="4" transform="rotate(34.0612 24.5938 266.012)" fill="url(#paint4_radial_543_2266)"/>
<rect x="24.8621" y="267.4" width="34.7432" height="34.7432" rx="3" transform="rotate(34.0612 24.8621 267.4)" stroke="url(#paint5_linear_543_2266)" stroke-width="2"/>
</g>
<defs>
<filter id="filter0_b_543_2266" x="244.957" y="14.8262" width="63.1719" height="68.9336" filterUnits="userSpaceOnUse" color-interpolation-filters="sRGB">
<feFlood flood-opacity="0" result="BackgroundImageFix"/>
<feGaussianBlur in="BackgroundImage" stdDeviation="1.5"/>
<feComposite in2="SourceAlpha" operator="in" result="effect1_backgroundBlur_543_2266"/>
<feBlend mode="normal" in="SourceGraphic" in2="effect1_backgroundBlur_543_2266" result="shape"/>
</filter>
<filter id="filter1_b_543_2266" x="259.242" y="341.816" width="49.4023" height="49.4043" filterUnits="userSpaceOnUse" color-interpolation-filters="sRGB">
<feFlood flood-opacity="0" result="BackgroundImageFix"/>
<feGaussianBlur in="BackgroundImage" stdDeviation="1"/>
<feComposite in2="SourceAlpha" operator="in" result="effect1_backgroundBlur_543_2266"/>
<feBlend mode="normal" in="SourceGraphic" in2="effect1_backgroundBlur_543_2266" result="shape"/>
</filter>
<filter id="filter2_b_543_2266" x="2.57031" y="264.564" width="53.9102" height="53.9121" filterUnits="userSpaceOnUse" color-interpolation-filters="sRGB">
<feFlood flood-opacity="0" result="BackgroundImageFix"/>
<feGaussianBlur in="BackgroundImage" stdDeviation="1.5"/>
<feComposite in2="SourceAlpha" operator="in" result="effect1_backgroundBlur_543_2266"/>
<feBlend mode="normal" in="SourceGraphic" in2="effect1_backgroundBlur_543_2266" result="shape"/>
</filter>
<radialGradient id="paint0_radial_543_2266" cx="0" cy="0" r="1" gradientUnits="userSpaceOnUse" gradientTransform="translate(300.508 32.6573) rotate(163.084) scale(62.4659 62.6477)">
<stop stop-color="#B5E200"/>
<stop offset="0.821326" stop-opacity="0"/>
</radialGradient>
<linearGradient id="paint1_linear_543_2266" x1="302.268" y1="11.4329" x2="268.745" y2="82.0291" gradientUnits="userSpaceOnUse">
<stop stop-color="#B5E200"/>
<stop offset="1" stop-color="#7D7D7D" stop-opacity="0"/>
</linearGradient>
<radialGradient id="paint2_radial_543_2266" cx="0" cy="0" r="1" gradientUnits="userSpaceOnUse" gradientTransform="translate(286.27 380.74) rotate(-48.221) scale(44.7428)">
<stop stop-color="#B5E200"/>
<stop offset="1" stop-opacity="0"/>
</radialGradient>
<linearGradient id="paint3_linear_543_2266" x1="276.031" y1="355.609" x2="283.945" y2="389.218" gradientUnits="userSpaceOnUse">
<stop offset="0.0343749" stop-color="#7F7F7F" stop-opacity="0.36"/>
<stop offset="1" stop-color="#B5E200"/>
</linearGradient>
<radialGradient id="paint4_radial_543_2266" cx="0" cy="0" r="1" gradientUnits="userSpaceOnUse" gradientTransform="translate(37.8913 279.309) rotate(56.1152) scale(57.1169)">
<stop stop-color="#D600E2"/>
<stop offset="0.777375" stop-color="#050505" stop-opacity="0"/>
</radialGradient>
<linearGradient id="paint5_linear_543_2266" x1="26.0658" y1="265.287" x2="50.7291" y2="299.633" gradientUnits="userSpaceOnUse">
<stop stop-color="#D600E2"/>
<stop offset="0.0001" stop-color="#605E5E"/>
<stop offset="1" stop-color="#101010" stop-opacity="0"/>
</linearGradient>
</defs>
</svg>
