<svg width="26" height="23" viewBox="0 0 26 23" fill="none" xmlns="http://www.w3.org/2000/svg">
<path d="M0 19.6234C2.87038 19.8742 5.45244 19.1681 7.80384 17.3401C5.33711 17.1025 3.71612 15.8289 2.7999 13.473C3.6072 13.473 4.36323 13.473 5.11927 13.473C5.12568 13.4334 5.13208 13.3938 5.13849 13.3608C3.92114 13.044 2.90882 12.3907 2.13356 11.381C1.36471 10.3779 0.973879 9.22967 0.961065 7.89663C1.7171 8.26619 2.46033 8.53676 3.3381 8.54995C1.97339 7.40829 1.13406 6.04885 0.999507 4.29346C0.916215 3.19139 1.19813 2.16851 1.73632 1.17203C4.63874 4.66961 8.26516 6.63618 12.6732 6.92655C12.6732 6.30622 12.6348 5.73869 12.6796 5.17775C12.8975 2.31369 15.2873 0.102954 18.0872 0.149148C19.516 0.175545 20.7462 0.703483 21.7713 1.71976C21.8995 1.84515 22.0084 1.88474 22.1878 1.83855C23.1873 1.58778 24.1419 1.23142 25.0453 0.72328C25.1158 0.683685 25.1927 0.657288 25.3337 0.591296C24.9172 1.89134 24.1676 2.83503 23.1232 3.54115C23.1424 3.58074 23.1552 3.61374 23.1745 3.65333C24.1035 3.38936 25.0389 3.1188 26 2.84823C25.9295 2.96042 25.8526 3.0858 25.7693 3.19799C25.1607 4.06908 24.4367 4.82799 23.6037 5.46812C23.4179 5.6133 23.3603 5.75188 23.3667 5.98286C23.5589 12.1531 19.9966 18.2442 14.5954 20.6859C9.72597 22.8901 4.91424 22.5931 0.275505 19.861C0.192213 19.8148 0.108921 19.7554 0.0320355 19.7026C0.0192213 19.696 0.0192213 19.6696 0 19.6234Z" fill="white"/>
</svg>
