<svg width="19" height="93" viewBox="0 0 19 93" fill="none" xmlns="http://www.w3.org/2000/svg">
<path d="M18.144 91.3181C18.144 91.7981 17.888 92.0381 17.376 92.0381L1.92 92.0381C1.36 92.0381 1.08 91.7661 1.08 91.2221L1.08 79.2701C1.08 78.7101 1.36 78.4301 1.92 78.4301L17.376 78.4301C17.888 78.4301 18.144 78.6781 18.144 79.1741C18.144 79.6701 17.888 79.9181 17.376 79.9181L2.4 79.9181L2.4 90.5741L17.376 90.5741C17.888 90.5741 18.144 90.8221 18.144 91.3181ZM18.144 73.2947C18.144 73.7747 17.888 74.0147 17.376 74.0147L1.848 74.0147C1.336 74.0147 1.08 73.7667 1.08 73.2707L1.08 67.6307C1.08 65.8227 1.512 64.4467 2.376 63.5027C3.24 62.5427 4.472 62.0627 6.072 62.0627C7.656 62.0627 8.888 62.5427 9.768 63.5027C10.632 64.4467 11.064 65.8227 11.064 67.6307L11.064 72.5507L17.376 72.5507C17.888 72.5507 18.144 72.7987 18.144 73.2947ZM9.768 72.5507L9.768 67.7507C9.768 64.9507 8.536 63.5507 6.072 63.5507C3.592 63.5507 2.352 64.9507 2.352 67.7507L2.352 72.5507L9.768 72.5507ZM18.192 52.3845C18.192 53.9365 17.84 55.2805 17.136 56.4165C16.432 57.5365 15.432 58.4085 14.136 59.0325C12.84 59.6405 11.304 59.9445 9.528 59.9445C7.752 59.9445 6.216 59.6405 4.92 59.0325C3.624 58.4245 2.632 57.5525 1.944 56.4165C1.24 55.2805 0.887997 53.9365 0.887997 52.3845C0.887997 50.8165 1.24 49.4725 1.944 48.3525C2.632 47.2165 3.624 46.3445 4.92 45.7365C6.2 45.1125 7.728 44.8005 9.504 44.8005C11.296 44.8005 12.84 45.1125 14.136 45.7365C15.432 46.3445 16.432 47.2165 17.136 48.3525C17.84 49.4885 18.192 50.8325 18.192 52.3845ZM16.848 52.3845C16.848 50.4805 16.208 49.0005 14.928 47.9445C13.648 46.8885 11.848 46.3605 9.528 46.3605C7.208 46.3605 5.416 46.8885 4.152 47.9445C2.872 48.9845 2.232 50.4645 2.232 52.3845C2.232 54.2885 2.872 55.7685 4.152 56.8245C5.432 57.8645 7.224 58.3845 9.528 58.3845C11.832 58.3845 13.632 57.8645 14.928 56.8245C16.208 55.7685 16.848 54.2885 16.848 52.3845ZM18 40.2455C18 40.7895 17.72 41.0615 17.16 41.0615L1.92 41.0615C1.36 41.0615 1.08 40.7895 1.08 40.2455L1.08 31.1735C1.08 30.7255 1.288 30.5015 1.704 30.5015C2.136 30.5015 2.352 30.7255 2.352 31.1735L2.352 39.6215L8.784 39.6215L8.784 31.6535C8.784 31.2055 8.992 30.9815 9.408 30.9815C9.84 30.9815 10.056 31.2055 10.056 31.6535L10.056 39.6215L16.728 39.6215L16.728 31.1735C16.728 30.7255 16.936 30.5015 17.352 30.5015C17.784 30.5015 18 30.7255 18 31.1735L18 40.2455ZM18.144 26.5134C18.144 26.9934 17.888 27.2334 17.376 27.2334L1.68 27.2334C1.184 27.2334 0.935996 26.9934 0.935996 26.5134C0.935996 26.0174 1.184 25.7694 1.68 25.7694L8.784 25.7694L8.784 22.5294L1.32 17.5134C1.048 17.3374 0.927996 17.1134 0.959996 16.8414C0.975995 16.5694 1.088 16.3694 1.296 16.2414C1.488 16.0974 1.728 16.1134 2.016 16.2894L8.976 21.0174C9.168 20.2814 9.536 19.6334 10.08 19.0734C10.624 18.5134 11.328 18.0254 12.192 17.6094L17.136 15.1614C17.44 15.0174 17.688 15.0334 17.88 15.2094C18.072 15.3854 18.152 15.6094 18.12 15.8814C18.104 16.1534 17.952 16.3614 17.664 16.5054L13.008 18.7614C11.952 19.2734 11.2 19.8494 10.752 20.4894C10.304 21.1134 10.08 21.8814 10.08 22.7934L10.08 25.7694L17.376 25.7694C17.888 25.7694 18.144 26.0174 18.144 26.5134ZM18.144 7.28997C18.144 7.78597 17.888 8.03397 17.376 8.03397L2.4 8.03397L2.4 13.77C2.4 14.25 2.176 14.49 1.728 14.49C1.296 14.49 1.08 14.25 1.08 13.77L1.07999 0.785968C1.07999 0.321968 1.29599 0.0899685 1.728 0.0899685C2.176 0.0899685 2.4 0.321968 2.4 0.785968L2.4 6.54597L17.376 6.54597C17.888 6.54597 18.144 6.79397 18.144 7.28997Z" fill="white"/>
</svg>
