<svg width="19" height="109" viewBox="0 0 19 109" fill="none" xmlns="http://www.w3.org/2000/svg">
<path d="M18.144 97.1901C18.144 97.6861 17.888 97.9341 17.376 97.9341L10.608 97.9341C10.912 98.4621 11.144 99.1261 11.304 99.9261C11.464 100.71 11.544 101.502 11.544 102.302C11.544 104.414 10.968 106.03 9.816 107.15C8.664 108.254 6.952 108.806 4.68 108.806L1.704 108.806C1.192 108.806 0.935999 108.558 0.935999 108.062C0.935999 107.566 1.192 107.318 1.704 107.318L4.536 107.318C6.472 107.318 7.896 106.894 8.808 106.046C9.72 105.182 10.176 103.91 10.176 102.23C10.176 101.462 10.104 100.718 9.96 99.9981C9.8 99.2621 9.528 98.5741 9.144 97.9341L1.704 97.9341C1.192 97.9341 0.935999 97.6861 0.935999 97.1901C0.935999 96.6941 1.192 96.4461 1.704 96.4461L17.376 96.4461C17.888 96.4461 18.144 96.6941 18.144 97.1901ZM18 91.2377C18 91.7817 17.72 92.0537 17.16 92.0537L1.92 92.0537C1.36 92.0537 1.08 91.7817 1.08 91.2377L1.08 82.1657C1.08 81.7177 1.288 81.4937 1.704 81.4937C2.136 81.4937 2.352 81.7177 2.352 82.1657L2.352 90.6137L8.784 90.6137L8.784 82.6457C8.784 82.1977 8.992 81.9737 9.408 81.9737C9.84 81.9737 10.056 82.1977 10.056 82.6457L10.056 90.6137L16.728 90.6137L16.728 82.1657C16.728 81.7177 16.936 81.4937 17.352 81.4937C17.784 81.4937 18 81.7177 18 82.1657L18 91.2377ZM18.144 65.7216C18.144 66.2176 17.888 66.4656 17.376 66.4656L2.4 66.4656L2.4 74.4576L6.504 74.4576C8.776 74.4576 10.664 74.6256 12.168 74.9616C13.672 75.2816 14.888 75.7616 15.816 76.4016C16.744 77.0416 17.488 77.8336 18.048 78.7776C18.32 79.2256 18.248 79.5696 17.832 79.8096C17.432 80.0336 17.096 79.9216 16.824 79.4736C16.488 78.9136 16.072 78.4176 15.576 77.9856C15.064 77.5376 14.408 77.1536 13.608 76.8336C12.808 76.5136 11.808 76.2736 10.608 76.1136C9.392 75.9376 7.904 75.8496 6.144 75.8496L1.92 75.8496C1.36 75.8496 1.08 75.5696 1.08 75.0096L1.08 65.8176C1.08 65.2576 1.36 64.9776 1.92 64.9776L17.376 64.9776C17.888 64.9776 18.144 65.2256 18.144 65.7216ZM18.192 53.6657C18.192 55.2177 17.84 56.5617 17.136 57.6977C16.432 58.8177 15.432 59.6897 14.136 60.3137C12.84 60.9217 11.304 61.2257 9.528 61.2257C7.752 61.2257 6.216 60.9217 4.92 60.3137C3.624 59.7057 2.632 58.8337 1.944 57.6977C1.24 56.5617 0.887996 55.2177 0.887996 53.6657C0.887996 52.0977 1.24 50.7537 1.944 49.6337C2.632 48.4977 3.624 47.6257 4.92 47.0177C6.2 46.3937 7.728 46.0817 9.504 46.0817C11.296 46.0817 12.84 46.3937 14.136 47.0177C15.432 47.6257 16.432 48.4977 17.136 49.6337C17.84 50.7697 18.192 52.1137 18.192 53.6657ZM16.848 53.6657C16.848 51.7617 16.208 50.2817 14.928 49.2257C13.648 48.1697 11.848 47.6417 9.528 47.6417C7.208 47.6417 5.416 48.1697 4.152 49.2257C2.872 50.2657 2.232 51.7457 2.232 53.6657C2.232 55.5697 2.872 57.0497 4.152 58.1057C5.432 59.1457 7.224 59.6657 9.528 59.6657C11.832 59.6657 13.632 59.1457 14.928 58.1057C16.208 57.0497 16.848 55.5697 16.848 53.6657ZM18 41.5268C18 42.0708 17.72 42.3428 17.16 42.3428L1.92 42.3428C1.36 42.3428 1.08 42.0708 1.08 41.5268L1.08 35.8868C1.08 34.1588 1.464 32.8228 2.232 31.8788C3 30.9188 4.096 30.4388 5.52 30.4388C6.448 30.4388 7.24 30.6868 7.896 31.1828C8.552 31.6788 9.032 32.3508 9.336 33.1988C9.576 32.2228 10.048 31.4548 10.752 30.8948C11.44 30.3348 12.32 30.0548 13.392 30.0548C14.896 30.0548 16.04 30.5348 16.824 31.4948C17.608 32.4548 18 33.8148 18 35.5748L18 41.5268ZM8.808 40.9028L8.808 36.0548C8.808 34.7108 8.536 33.6868 7.992 32.9828C7.432 32.2788 6.624 31.9268 5.568 31.9268C4.512 31.9268 3.712 32.2788 3.168 32.9828C2.608 33.6868 2.328 34.7108 2.328 36.0548L2.328 40.9028L8.808 40.9028ZM16.752 40.9028L16.752 35.6948C16.752 32.9268 15.64 31.5428 13.416 31.5428C12.264 31.5428 11.416 31.8868 10.872 32.5748C10.328 33.2628 10.056 34.3028 10.056 35.6948L10.056 40.9028L16.752 40.9028ZM18 25.4252C18 25.9692 17.72 26.2412 17.16 26.2412L1.92 26.2412C1.36 26.2412 1.08 25.9692 1.08 25.4252L1.07999 16.3532C1.07999 15.9052 1.288 15.6812 1.704 15.6812C2.136 15.6812 2.352 15.9052 2.352 16.3532L2.352 24.8012L8.784 24.8012L8.784 16.8332C8.784 16.3852 8.992 16.1612 9.408 16.1612C9.84 16.1612 10.056 16.3852 10.056 16.8332L10.056 24.8012L16.728 24.8012L16.728 16.3532C16.728 15.9052 16.936 15.6812 17.352 15.6812C17.784 15.6812 18 15.9052 18 16.3532L18 25.4252ZM18.144 11.6931C18.144 12.1731 17.888 12.4131 17.376 12.4131L1.68 12.4131C1.184 12.4131 0.935995 12.1731 0.935995 11.6931C0.935995 11.1971 1.184 10.9491 1.68 10.9491L8.784 10.9491L8.784 7.70909L1.31999 2.69309C1.04799 2.51709 0.927995 2.29309 0.959994 2.02109C0.975994 1.74909 1.08799 1.54909 1.29599 1.42109C1.48799 1.27709 1.72799 1.29309 2.016 1.46909L8.976 6.19709C9.16799 5.46109 9.53599 4.81309 10.08 4.25309C10.624 3.69309 11.328 3.20509 12.192 2.78909L17.136 0.341092C17.44 0.197092 17.688 0.213092 17.88 0.389092C18.072 0.565092 18.152 0.789093 18.12 1.06109C18.104 1.33309 17.952 1.54109 17.664 1.68509L13.008 3.94109C11.952 4.45309 11.2 5.02909 10.752 5.66909C10.304 6.29309 10.08 7.06109 10.08 7.97309L10.08 10.9491L17.376 10.9491C17.888 10.9491 18.144 11.1971 18.144 11.6931Z" fill="white"/>
</svg>
