<svg width="42" height="42" viewBox="0 0 42 42" fill="none" xmlns="http://www.w3.org/2000/svg">
<g > <!--filter="url(#filter0_b_49_1538)" -->
<path fill-rule="evenodd" clip-rule="evenodd" d="M27.6898 3.20722C30.7629 0.0681139 35.6608 0.0160501 38.7999 3.08913C41.8643 6.08911 42.1805 11.1024 39.0359 14.3146L32.2993 21.1959L39.1806 27.9325C42.3928 31.0771 42.1833 36.096 39.1833 39.1605C36.2624 42.1441 31.2495 42.388 28.0732 39.2785L21.1919 32.542L14.4553 39.4233C11.3107 42.6355 6.29181 42.426 3.22737 39.426C0.0882596 36.3529 0.0362029 31.455 3.10928 28.3159L9.84584 21.4346L2.96453 14.698C-0.137829 11.6609 -0.26472 6.53014 2.72856 3.47254C5.80164 0.33343 10.9328 0.278892 14.0719 3.35197L20.9532 10.0885L27.6898 3.20722ZM29.5317 5.01037C31.6089 2.88851 34.8749 2.85379 36.9967 4.93102C39.1186 7.00825 39.2712 10.3896 37.194 12.5115L28.6543 21.2347L37.3775 29.7744C39.4993 31.8516 39.4186 35.2354 37.3414 37.3573C35.3796 39.3613 31.9982 39.5139 29.8764 37.4367L21.1532 28.8969L12.6134 37.6201C10.5362 39.742 7.15238 39.6613 5.03052 37.5841C2.90866 35.5069 2.87395 32.2409 4.95117 30.1191L13.4909 21.3958L4.76768 12.8561C2.64582 10.7789 2.60862 7.27967 4.57045 5.27569C6.64768 3.15383 10.1469 3.11663 12.2688 5.19386L20.992 13.7336L29.5317 5.01037Z" fill="#7F7F7F"/>
</g>
<defs>
<filter id="filter0_b_49_1538" x="-3.44141" y="-3.18164" width="48.9531" height="48.9365" filterUnits="userSpaceOnUse" color-interpolation-filters="sRGB">
<feFlood flood-opacity="0" result="BackgroundImageFix"/>
<feGaussianBlur in="BackgroundImage" stdDeviation="2"/>
<feComposite in2="SourceAlpha" operator="in" result="effect1_backgroundBlur_49_1538"/>
<feBlend mode="normal" in="SourceGraphic" in2="effect1_backgroundBlur_49_1538" result="shape"/>
</filter>
</defs>
</svg>
